  0
SECTION
  2
HEADER
  9
$ACADVER
  1
AC1015
  9
$ACADMAINTVER
 70
     6
  9
$DWGCODEPAGE
  3
ANSI_1252
  9
$INSBASE
 10
0.0
 20
0.0
 30
0.0
  9
$EXTMIN
 10
0.0
 20
0.0
 30
0.0
  9
$EXTMAX
 10
168.2
 20
118.8
 30
0.0
  9
$LIMMIN
 10
0.0
 20
0.0
  9
$LIMMAX
 10
168.2
 20
118.8
  9
$ORTHOMODE
 70
     0
  9
$REGENMODE
 70
     1
  9
$FILLMODE
 70
     1
  9
$QTEXTMODE
 70
     0
  9
$MIRRTEXT
 70
     1
  9
$LTSCALE
 40
0.2
  9
$ATTMODE
 70
     1
  9
$TEXTSIZE
 40
0.7
  9
$TRACEWID
 40
1.0
  9
$TEXTSTYLE
  7
Standard
  9
$CLAYER
  8
0
  9
$CELTYPE
  6
ByLayer
  9
$CECOLOR
 62
   256
  9
$CELTSCALE
 40
1.0
  9
$DISPSILH
 70
     0
  9
$DIMSCALE
 40
1.0
  9
$DIMASZ
 40
0.6604
  9
$DIMEXO
 40
0.2
  9
$DIMDLI
 40
3.75
  9
$DIMRND
 40
0.0
  9
$DIMDLE
 40
0.0
  9
$DIMEXE
 40
0.2
  9
$DIMTP
 40
0.0
  9
$DIMTM
 40
0.0
  9
$DIMTXT
 40
0.7
  9
$DIMCEN
 40
2.5
  9
$DIMTSZ
 40
0.0
  9
$DIMTOL
 70
     0
  9
$DIMLIM
 70
     0
  9
$DIMTIH
 70
     1
  9
$DIMTOH
 70
     1
  9
$DIMSE1
 70
     0
  9
$DIMSE2
 70
     0
  9
$DIMTAD
 70
     1
  9
$DIMZIN
 70
     1
  9
$DIMBLK
  1

  9
$DIMASO
 70
     1
  9
$DIMSHO
 70
     1
  9
$DIMPOST
  1

  9
$DIMAPOST
  1

  9
$DIMALT
 70
     0
  9
$DIMALTD
 70
     3
  9
$DIMALTF
 40
0.0393700787
  9
$DIMLFAC
 40
1.0
  9
$DIMTOFL
 70
     1
  9
$DIMTVP
 40
0.0
  9
$DIMTIX
 70
     0
  9
$DIMSOXD
 70
     0
  9
$DIMSAH
 70
     0
  9
$DIMBLK1
  1

  9
$DIMBLK2
  1

  9
$DIMSTYLE
  2
ISO-25
  9
$DIMCLRD
 70
     0
  9
$DIMCLRE
 70
     0
  9
$DIMCLRT
 70
     0
  9
$DIMTFAC
 40
1.0
  9
$DIMGAP
 40
0.3048
  9
$DIMJUST
 70
     0
  9
$DIMSD1
 70
     0
  9
$DIMSD2
 70
     0
  9
$DIMTOLJ
 70
     0
  9
$DIMTZIN
 70
     1
  9
$DIMALTZ
 70
     0
  9
$DIMALTTZ
 70
     0
  9
$DIMUPT
 70
     0
  9
$DIMDEC
 70
     2
  9
$DIMTDEC
 70
     2
  9
$DIMALTU
 70
     2
  9
$DIMALTTD
 70
     3
  9
$DIMTXSTY
  7
Standard
  9
$DIMAUNIT
 70
     0
  9
$DIMADEC
 70
     2
  9
$DIMALTRND
 40
0.0
  9
$DIMAZIN
 70
     0
  9
$DIMDSEP
 70
    44
  9
$DIMATFIT
 70
     3
  9
$DIMFRAC
 70
     0
  9
$DIMLDRBLK
  1

  9
$DIMLUNIT
 70
     2
  9
$DIMLWD
 70
    -2
  9
$DIMLWE
 70
    -2
  9
$DIMTMOVE
 70
     0
  9
$LUNITS
 70
     2
  9
$LUPREC
 70
     2
  9
$SKETCHINC
 40
1.0
  9
$FILLETRAD
 40
0.0
  9
$AUNITS
 70
     0
  9
$AUPREC
 70
     2
  9
$MENU
  1
.
  9
$ELEVATION
 40
0.0
  9
$PELEVATION
 40
0.0
  9
$THICKNESS
 40
0.0
  9
$LIMCHECK
 70
     0
  9
$CHAMFERA
 40
0.0
  9
$CHAMFERB
 40
0.0
  9
$CHAMFERC
 40
0.0
  9
$CHAMFERD
 40
0.0
  9
$SKPOLY
 70
     0
  9
$TDCREATE
 40
2460789.039156609
  9
$TDUCREATE
 40
2460788.809989942
  9
$TDUPDATE
 40
2460789.039158056
  9
$TDUUPDATE
 40
2460788.809991389
  9
$TDINDWG
 40
0.0000000116
  9
$TDUSRTIMER
 40
0.0000000116
  9
$USRTIMER
 70
     1
  9
$ANGBASE
 50
0.0
  9
$ANGDIR
 70
     0
  9
$PDMODE
 70
     0
  9
$PDSIZE
 40
-1.0
  9
$PLINEWID
 40
0.0
  9
$SPLFRAME
 70
     0
  9
$SPLINETYPE
 70
     6
  9
$SPLINESEGS
 70
     8
  9
$HANDSEED
  5
1C1
  9
$SURFTAB1
 70
     6
  9
$SURFTAB2
 70
     6
  9
$SURFTYPE
 70
     6
  9
$SURFU
 70
     6
  9
$SURFV
 70
     6
  9
$UCSBASE
  2

  9
$UCSNAME
  2

  9
$UCSORG
 10
0.0
 20
0.0
 30
0.0
  9
$UCSXDIR
 10
1.0
 20
0.0
 30
0.0
  9
$UCSYDIR
 10
0.0
 20
1.0
 30
0.0
  9
$UCSORTHOREF
  2

  9
$UCSORTHOVIEW
 70
     0
  9
$UCSORGTOP
 10
0.0
 20
0.0
 30
0.0
  9
$UCSORGBOTTOM
 10
0.0
 20
0.0
 30
0.0
  9
$UCSORGLEFT
 10
0.0
 20
0.0
 30
0.0
  9
$UCSORGRIGHT
 10
0.0
 20
0.0
 30
0.0
  9
$UCSORGFRONT
 10
0.0
 20
0.0
 30
0.0
  9
$UCSORGBACK
 10
0.0
 20
0.0
 30
0.0
  9
$PUCSBASE
  2

  9
$PUCSNAME
  2

  9
$PUCSORG
 10
0.0
 20
0.0
 30
0.0
  9
$PUCSXDIR
 10
1.0
 20
0.0
 30
0.0
  9
$PUCSYDIR
 10
0.0
 20
1.0
 30
0.0
  9
$PUCSORTHOREF
  2

  9
$PUCSORTHOVIEW
 70
     0
  9
$PUCSORGTOP
 10
0.0
 20
0.0
 30
0.0
  9
$PUCSORGBOTTOM
 10
0.0
 20
0.0
 30
0.0
  9
$PUCSORGLEFT
 10
0.0
 20
0.0
 30
0.0
  9
$PUCSORGRIGHT
 10
0.0
 20
0.0
 30
0.0
  9
$PUCSORGFRONT
 10
0.0
 20
0.0
 30
0.0
  9
$PUCSORGBACK
 10
0.0
 20
0.0
 30
0.0
  9
$USERI1
 70
     0
  9
$USERI2
 70
     0
  9
$USERI3
 70
     0
  9
$USERI4
 70
     0
  9
$USERI5
 70
     0
  9
$USERR1
 40
0.0
  9
$USERR2
 40
0.0
  9
$USERR3
 40
0.0
  9
$USERR4
 40
0.0
  9
$USERR5
 40
0.0
  9
$WORLDVIEW
 70
     1
  9
$SHADEDGE
 70
     3
  9
$SHADEDIF
 70
    70
  9
$TILEMODE
 70
     1
  9
$MAXACTVP
 70
    64
  9
$PINSBASE
 10
0.0
 20
0.0
 30
0.0
  9
$PLIMCHECK
 70
     0
  9
$PEXTMIN
 10
1.0000000000E+20
 20
1.0000000000E+20
 30
1.0000000000E+20
  9
$PEXTMAX
 10
-1.0000000000E+20
 20
-1.0000000000E+20
 30
-1.0000000000E+20
  9
$PLIMMIN
 10
0.0
 20
0.0
  9
$PLIMMAX
 10
420.0
 20
297.0
  9
$UNITMODE
 70
     0
  9
$VISRETAIN
 70
     1
  9
$PLINEGEN
 70
     0
  9
$PSLTSCALE
 70
     1
  9
$TREEDEPTH
 70
  3020
  9
$CMLSTYLE
  2
Standard
  9
$CMLJUST
 70
     0
  9
$CMLSCALE
 40
20.0
  9
$PROXYGRAPHICS
 70
     1
  9
$MEASUREMENT
 70
     1
  9
$CELWEIGHT
370
    -1
  9
$ENDCAPS
280
     0
  9
$JOINSTYLE
280
     0
  9
$LWDISPLAY
290
     1
  9
$INSUNITS
 70
     4
  9
$HYPERLINKBASE
  1

  9
$STYLESHEET
  1

  9
$XEDIT
290
     1
  9
$CEPSNTYPE
380
     0
  9
$PSTYLEMODE
290
     1
  9
$FINGERPRINTGUID
  2
{732f249d-5292-44f5-869e-3c02b40dabf1}
  9
$VERSIONGUID
  2
{FAEB1C32-E019-11D5-929B-00C0DF256EC4}
  9
$EXTNAMES
290
     1
  9
$PSVPSCALE
 40
0.0
  9
$OLESTARTUP
290
     0
  0
ENDSEC
  0
SECTION
  2
CLASSES
  0
CLASS
  1
ACDBDICTIONARYWDFLT
  2
AcDbDictionaryWithDefault
  3
ObjectDBX Classes
 90
        0
280
     0
281
     0
  0
CLASS
  1
VISUALSTYLE
  2
AcDbVisualStyle
  3
ObjectDBX Classes
 90
     4095
280
     0
281
     0
  0
CLASS
  1
MATERIAL
  2
AcDbMaterial
  3
ObjectDBX Classes
 90
     1153
280
     0
281
     0
  0
CLASS
  1
SCALE
  2
AcDbScale
  3
ObjectDBX Classes
 90
     1153
280
     0
281
     0
  0
CLASS
  1
TABLESTYLE
  2
AcDbTableStyle
  3
ObjectDBX Classes
 90
     4095
280
     0
281
     0
  0
CLASS
  1
MLEADERSTYLE
  2
AcDbMLeaderStyle
  3
ACDB_MLEADERSTYLE_CLASS
 90
     4095
280
     0
281
     0
  0
CLASS
  1
SUN
  2
AcDbSun
  3
SCENEOE
 90
     1153
280
     0
281
     0
  0
CLASS
  1
ACDBPLACEHOLDER
  2
AcDbPlaceHolder
  3
ObjectDBX Classes
 90
        0
280
     0
281
     0
  0
CLASS
  1
LAYOUT
  2
AcDbLayout
  3
ObjectDBX Classes
 90
        0
280
     0
281
     0
  0
ENDSEC
  0
SECTION
  2
TABLES
  0
TABLE
  2
VPORT
  5
8
330
0
100
AcDbSymbolTable
 70
     1
  0
VPORT
  5
29
330
8
100
AcDbSymbolTableRecord
100
AcDbViewportTableRecord
  2
*Active
 70
     0
 10
0.0
 20
0.0
 11
1.0
 21
1.0
 12
84.1
 22
59.4
 13
0.0
 23
0.0
 14
10.0
 24
10.0
 15
10.0
 25
10.0
 16
0.0
 26
0.0
 36
1.0
 17
0.0
 27
0.0
 37
0.0
 40
118.8
 41
1.4158249158
 42
50.0
 43
0.0
 44
0.0
 50
0.0
 51
0.0
 71
     0
 72
  2000
 73
     1
 74
     3
 75
     0
 76
     0
 77
     0
 78
     0
281
     0
 65
     1
110
0.0
120
0.0
130
0.0
111
1.0
121
0.0
131
0.0
112
0.0
122
1.0
132
0.0
 79
     0
146
0.0
  0
ENDTAB
  0
TABLE
  2
LTYPE
  5
5
330
0
100
AcDbSymbolTable
 70
     6
  0
LTYPE
  5
14
330
5
100
AcDbSymbolTableRecord
100
AcDbLinetypeTableRecord
  2
ByBlock
 70
     0
  3

 72
    65
 73
     0
 40
0.0
  0
LTYPE
  5
15
330
5
100
AcDbSymbolTableRecord
100
AcDbLinetypeTableRecord
  2
ByLayer
 70
     0
  3

 72
    65
 73
     0
 40
0.0
  0
LTYPE
  5
16
330
5
100
AcDbSymbolTableRecord
100
AcDbLinetypeTableRecord
  2
Continuous
 70
     0
  3
Solid line
 72
    65
 73
     0
 40
0.0
  0
LTYPE
  5
5E
330
5
100
AcDbSymbolTableRecord
100
AcDbLinetypeTableRecord
  2
HIDDEN
 70
     0
  3
Hidden __ __ __ __ __ __ __ __ __ __ __ __ __ __
 72
    65
 73
     2
 40
1.905
 49
1.27
 74
     0
 49
-0.635
 74
     0
  0
LTYPE
  5
5F
330
5
100
AcDbSymbolTableRecord
100
AcDbLinetypeTableRecord
  2
PHANTOM
 70
     0
  3
Phantom ______  __  __  ______  __  __  ______
 72
    65
 73
     6
 40
12.7
 49
6.35
 74
     0
 49
-1.27
 74
     0
 49
1.27
 74
     0
 49
-1.27
 74
     0
 49
1.27
 74
     0
 49
-1.27
 74
     0
  0
LTYPE
  5
60
330
5
100
AcDbSymbolTableRecord
100
AcDbLinetypeTableRecord
  2
CENTER
 70
     0
  3
Center ____ _ ____ _ ____ _ ____ _ ____ _ ____
 72
    65
 73
     4
 40
10.16
 49
6.35
 74
     0
 49
-1.27
 74
     0
 49
1.27
 74
     0
 49
-1.27
 74
     0
  0
LTYPE
  5
61
330
5
100
AcDbSymbolTableRecord
100
AcDbLinetypeTableRecord
  2
CENTERX2
 70
     0
  3
Center (2x) ________  __  ________  __  _____
 72
    65
 73
     4
 40
20.32
 49
12.7
 74
     0
 49
-2.54
 74
     0
 49
2.54
 74
     0
 49
-2.54
 74
     0
  0
LTYPE
  5
62
330
5
100
AcDbSymbolTableRecord
100
AcDbLinetypeTableRecord
  2
DOT2
 70
     0
  3
Dot (.5x) ........................................
 72
    65
 73
     2
 40
0.635
 49
0.0
 74
     0
 49
-0.635
 74
     0
  0
ENDTAB
  0
TABLE
  2
LAYER
  5
2
330
0
100
AcDbSymbolTable
 70
     1
  0
LAYER
  5
10
330
2
100
AcDbSymbolTableRecord
100
AcDbLayerTableRecord
  2
0
 70
     0
 62
     7
  6
Continuous
370
    -3
390
F
  0
ENDTAB
  0
TABLE
  2
STYLE
  5
3
330
0
100
AcDbSymbolTable
 70
     2
  0
STYLE
  5
11
330
3
100
AcDbSymbolTableRecord
100
AcDbTextStyleTableRecord
  2
Standard
 70
     0
 40
0.0
 41
1.0
 50
0.0
 71
     0
 42
0.7
  3
txt
  4

  0
STYLE
  5
86
330
3
100
AcDbSymbolTableRecord
100
AcDbTextStyleTableRecord
  2
SLDTEXTSTYLE0
 70
     0
 40
0.0
 41
0.75
 50
0.0
 71
     0
 42
0.7
  3
TXT
  4

  0
ENDTAB
  0
TABLE
  2
VIEW
  5
6
330
0
100
AcDbSymbolTable
 70
     0
  0
ENDTAB
  0
TABLE
  2
UCS
  5
7
330
0
100
AcDbSymbolTable
 70
     0
  0
ENDTAB
  0
TABLE
  2
APPID
  5
9
330
0
100
AcDbSymbolTable
 70
     1
  0
APPID
  5
12
330
9
100
AcDbSymbolTableRecord
100
AcDbRegAppTableRecord
  2
ACAD
 70
     0
  0
ENDTAB
  0
TABLE
  2
DIMSTYLE
  5
A
330
0
100
AcDbSymbolTable
 70
     5
100
AcDbDimStyleTable
  0
DIMSTYLE
105
27
330
A
100
AcDbSymbolTableRecord
100
AcDbDimStyleTableRecord
  2
ISO-25
 70
     0
 41
2.5
 42
0.625
 43
3.75
 44
1.25
 73
     0
 74
     0
 77
     1
 78
     8
140
2.5
141
2.5
143
0.0393700787
147
0.625
171
     3
172
     1
178
     0
271
     2
272
     2
274
     3
278
    44
283
     0
284
     8
340
11
  0
DIMSTYLE
105
87
102
{ACAD_REACTORS
330
85
330
AB
330
E6
330
F1
330
FA
330
172
102
}
330
A
100
AcDbSymbolTableRecord
100
AcDbDimStyleTableRecord
  2
SLDDIMSTYLE0
 70
     0
 41
0.6604
 44
0.0
 45
0.000000001
 73
     0
 74
     0
 77
     2
 78
     4
 79
     1
140
0.7
147
0.175
173
     1
178
     0
271
     2
272
     2
276
     2
284
    12
340
86
341
88
343
88
344
88
  0
DIMSTYLE
105
9A
102
{ACAD_REACTORS
330
99
102
}
330
A
100
AcDbSymbolTableRecord
100
AcDbDimStyleTableRecord
  2
SLDDIMSTYLE1
 70
     0
 41
0.6604
 44
0.0
 45
0.000000001
 73
     0
 74
     0
 77
     2
 78
     4
 79
     1
140
0.7
141
0.0
147
0.175
173
     1
178
     0
271
     2
272
     2
276
     2
284
    12
340
86
341
88
343
88
344
88
  0
DIMSTYLE
105
A3
102
{ACAD_REACTORS
330
A2
102
}
330
A
100
AcDbSymbolTableRecord
100
AcDbDimStyleTableRecord
  2
SLDDIMSTYLE2
 70
     0
 41
0.6604
 44
0.0
 45
0.000000001
 73
     0
 74
     0
 77
     2
 78
    12
 79
     3
140
0.7
141
0.0
147
0.175
173
     1
178
     0
271
     2
272
     2
276
     2
284
    12
340
86
341
88
343
88
344
88
  0
DIMSTYLE
105
166
102
{ACAD_REACTORS
330
165
102
}
330
A
100
AcDbSymbolTableRecord
100
AcDbDimStyleTableRecord
  2
SLDDIMSTYLE3
 70
     0
 41
0.6604
 44
0.0
 45
0.000000001
 73
     0
 74
     0
 77
     2
 78
     4
 79
     1
140
0.7
141
0.0
147
0.175
172
     1
173
     1
178
     0
271
     2
272
     2
276
     2
284
    12
340
86
341
167
343
167
344
88
  0
ENDTAB
  0
TABLE
  2
BLOCK_RECORD
  5
1
330
0
100
AcDbSymbolTable
 70
    14
  0
BLOCK_RECORD
  5
1F
330
1
100
AcDbSymbolTableRecord
100
AcDbBlockTableRecord
  2
*Model_Space
340
22
  0
BLOCK_RECORD
  5
1B
330
1
100
AcDbSymbolTableRecord
100
AcDbBlockTableRecord
  2
*Paper_Space
340
1E
  0
BLOCK_RECORD
  5
23
330
1
100
AcDbSymbolTableRecord
100
AcDbBlockTableRecord
  2
*Paper_Space0
340
26
  0
BLOCK_RECORD
  5
88
330
1
100
AcDbSymbolTableRecord
100
AcDbBlockTableRecord
  2
_Closed
340
0
102
{BLKREFS
331
92
331
93
331
9E
331
A7
331
AF
331
B0
331
EA
331
EB
331
F5
331
F6
331
FE
331
FF
331
16D
331
176
331
177
102
}
  0
BLOCK_RECORD
  5
8F
330
1
100
AcDbSymbolTableRecord
100
AcDbBlockTableRecord
  2
_D
340
0
  0
BLOCK_RECORD
  5
9B
330
1
100
AcDbSymbolTableRecord
100
AcDbBlockTableRecord
  2
_D_1
340
0
  0
BLOCK_RECORD
  5
A4
330
1
100
AcDbSymbolTableRecord
100
AcDbBlockTableRecord
  2
_D_2
340
0
  0
BLOCK_RECORD
  5
AC
330
1
100
AcDbSymbolTableRecord
100
AcDbBlockTableRecord
  2
_D_3
340
0
  0
BLOCK_RECORD
  5
B5
330
1
100
AcDbSymbolTableRecord
100
AcDbBlockTableRecord
  2
SW_CENTERMARKSYMBOL_0
340
0
102
{BLKREFS
331
C0
102
}
  0
BLOCK_RECORD
  5
E7
330
1
100
AcDbSymbolTableRecord
100
AcDbBlockTableRecord
  2
_D_4
340
0
  0
BLOCK_RECORD
  5
F2
330
1
100
AcDbSymbolTableRecord
100
AcDbBlockTableRecord
  2
_D_5
340
0
  0
BLOCK_RECORD
  5
FB
330
1
100
AcDbSymbolTableRecord
100
AcDbBlockTableRecord
  2
_D_6
340
0
  0
BLOCK_RECORD
  5
167
330
1
100
AcDbSymbolTableRecord
100
AcDbBlockTableRecord
  2
_None
340
0
  0
BLOCK_RECORD
  5
16A
330
1
100
AcDbSymbolTableRecord
100
AcDbBlockTableRecord
  2
_D_7
340
0
  0
BLOCK_RECORD
  5
173
330
1
100
AcDbSymbolTableRecord
100
AcDbBlockTableRecord
  2
_D_8
340
0
  0
BLOCK_RECORD
  5
17D
330
1
100
AcDbSymbolTableRecord
100
AcDbBlockTableRecord
  2
SW_CENTERMARKSYMBOL_1
340
0
102
{BLKREFS
331
188
102
}
  0
ENDTAB
  0
ENDSEC
  0
SECTION
  2
BLOCKS
  0
BLOCK
  5
20
330
1F
100
AcDbEntity
  8
0
100
AcDbBlockBegin
  2
*Model_Space
 70
     0
 10
0.0
 20
0.0
 30
0.0
  3
*Model_Space
  1

  0
ENDBLK
  5
21
330
1F
100
AcDbEntity
  8
0
100
AcDbBlockEnd
  0
BLOCK
  5
1C
330
1B
100
AcDbEntity
 67
     1
  8
0
100
AcDbBlockBegin
  2
*Paper_Space
 70
     0
 10
0.0
 20
0.0
 30
0.0
  3
*Paper_Space
  1

  0
ENDBLK
  5
1D
330
1B
100
AcDbEntity
 67
     1
  8
0
100
AcDbBlockEnd
  0
BLOCK
  5
24
330
23
100
AcDbEntity
  8
0
100
AcDbBlockBegin
  2
*Paper_Space0
 70
     0
 10
0.0
 20
0.0
 30
0.0
  3
*Paper_Space0
  1

  0
ENDBLK
  5
25
330
23
100
AcDbEntity
  8
0
100
AcDbBlockEnd
  0
BLOCK
  5
89
330
88
100
AcDbEntity
  8
0
100
AcDbBlockBegin
  2
_Closed
 70
     0
 10
0.0
 20
0.0
 30
0.0
  3
_Closed
  1

  0
LINE
  5
8B
330
88
100
AcDbEntity
  8
0
  6
ByBlock
 62
     0
370
    -2
100
AcDbLine
 10
-1.0
 20
0.166667
 30
0.0
 11
0.0
 21
0.0
 31
0.0
  0
LINE
  5
8C
330
88
100
AcDbEntity
  8
0
  6
ByBlock
 62
     0
370
    -2
100
AcDbLine
 10
0.0
 20
0.0
 30
0.0
 11
-1.0
 21
-0.166667
 31
0.0
  0
LINE
  5
8D
330
88
100
AcDbEntity
  8
0
  6
ByBlock
 62
     0
370
    -2
100
AcDbLine
 10
-1.0
 20
0.166667
 30
0.0
 11
-1.0
 21
-0.166667
 31
0.0
  0
LINE
  5
8E
330
88
100
AcDbEntity
  8
0
  6
ByBlock
 62
     0
370
    -2
100
AcDbLine
 10
0.0
 20
0.0
 30
0.0
 11
-1.0
 21
0.0
 31
0.0
  0
ENDBLK
  5
8A
330
88
100
AcDbEntity
  8
0
100
AcDbBlockEnd
  0
BLOCK
  5
90
330
8F
100
AcDbEntity
  8
0
100
AcDbBlockBegin
  2
_D
 70
     0
 10
0.0
 20
0.0
 30
0.0
  3
_D
  1

  0
INSERT
  5
92
330
8F
100
AcDbEntity
  8
0
  6
Continuous
 62
     7
370
    18
100
AcDbBlockReference
  2
_Closed
 10
54.86635
 20
101.8915
 30
-7.5
 41
0.6604
 42
0.6604
 50
90.0
  0
INSERT
  5
93
330
8F
100
AcDbEntity
  8
0
  6
Continuous
 62
     7
370
    18
100
AcDbBlockReference
  2
_Closed
 10
54.86635
 20
69.8915
 30
-7.5
 41
0.6604
 42
0.6604
 50
270.0
  0
LINE
  5
94
330
8F
100
AcDbEntity
  8
0
  6
Continuous
 62
     7
370
     0
100
AcDbLine
 10
77.46635
 20
101.8915
 30
0.0
 11
54.66635
 21
101.8915
 31
0.0
  0
LINE
  5
95
330
8F
100
AcDbEntity
  8
0
  6
Continuous
 62
     7
370
     0
100
AcDbLine
 10
77.46635
 20
69.8915
 30
0.0
 11
54.66635
 21
69.8915
 31
0.0
  0
LINE
  5
96
330
8F
100
AcDbEntity
  8
0
  6
Continuous
 62
     7
370
     0
100
AcDbLine
 10
54.86635
 20
101.8915
 30
0.0
 11
54.86635
 21
69.8915
 31
0.0
  0
MTEXT
  5
97
330
8F
100
AcDbEntity
  8
0
  6
Continuous
 62
     7
370
    18
100
AcDbMText
 10
53.9640025822
 20
84.3846856763
 30
0.0
 40
0.7
 41
0.0
 71
     1
 72
     1
  1
%%c
  7
SLDTEXTSTYLE0
 11
-7.044195017643634E-15
 21
1.0
 31
0.0
 73
     1
 44
1.0
  0
MTEXT
  5
98
330
8F
100
AcDbEntity
  8
0
  6
Continuous
 62
     7
370
    18
100
AcDbMText
 10
53.9533081468
 20
85.440373156
 30
0.0
 40
0.7
 41
0.0
 71
     1
 72
     1
  1
32.00
  7
SLDTEXTSTYLE0
 11
-7.044195017643634E-15
 21
1.0
 31
0.0
 73
     1
 44
1.0
  0
ENDBLK
  5
91
330
8F
100
AcDbEntity
  8
0
100
AcDbBlockEnd
  0
BLOCK
  5
9C
330
9B
100
AcDbEntity
  8
0
100
AcDbBlockBegin
  2
_D_1
 70
     0
 10
0.0
 20
0.0
 30
0.0
  3
_D_1
  1

  0
INSERT
  5
9E
330
9B
100
AcDbEntity
  8
0
  6
Continuous
 62
     7
370
    18
100
AcDbBlockReference
  2
_Closed
 10
81.1304516151
 20
83.8915
 30
-7.5
 41
0.6604
 42
0.6604
 50
150.0
  0
LINE
  5
9F
330
9B
100
AcDbEntity
  8
0
  6
Continuous
 62
     7
370
     0
100
AcDbLine
 10
81.1304516151
 20
83.8915
 30
0.0
 11
96.5291561548
 21
75.0010537888
 31
0.0
  0
LINE
  5
A0
330
9B
100
AcDbEntity
  8
0
  6
Continuous
 62
     7
370
     0
100
AcDbLine
 10
81.1304516151
 20
83.8915
 30
0.0
 11
77.66635
 21
85.8915
 31
0.0
  0
MTEXT
  5
A1
330
9B
100
AcDbEntity
  8
0
  6
Continuous
 62
     7
370
    18
100
AcDbMText
 10
94.9216141268
 20
76.9708763711
 30
0.0
 40
0.7
 41
0.0
 71
     1
 72
     1
  1
R4.00
  7
SLDTEXTSTYLE0
 11
0.8660254037844459
 21
-0.4999999999999873
 31
0.0
 73
     1
 44
1.0
  0
ENDBLK
  5
9D
330
9B
100
AcDbEntity
  8
0
100
AcDbBlockEnd
  0
BLOCK
  5
A5
330
A4
100
AcDbEntity
  8
0
100
AcDbBlockBegin
  2
_D_2
 70
     0
 10
0.0
 20
0.0
 30
0.0
  3
_D_2
  1

  0
INSERT
  5
A7
330
A4
100
AcDbEntity
  8
0
  6
Continuous
 62
     7
370
    18
100
AcDbBlockReference
  2
_Closed
 10
79.356720196
 20
94.3444333289
 30
-7.5
 41
0.6604
 42
0.6604
 50
195.0
  0
LINE
  5
A8
330
A4
100
AcDbEntity
  8
0
  6
Continuous
 62
     7
370
     0
100
AcDbLine
 10
79.356720196
 20
94.3444333289
 30
0.0
 11
93.6171999867
 21
98.1655173725
 31
0.0
  0
LINE
  5
A9
330
A4
100
AcDbEntity
  8
0
  6
Continuous
 62
     7
370
     0
100
AcDbLine
 10
79.356720196
 20
94.3444333289
 30
0.0
 11
77.66635
 21
93.8915
 31
0.0
  0
MTEXT
  5
AA
330
A4
100
AcDbEntity
  8
0
  6
Continuous
 62
     7
370
    18
100
AcDbMText
 10
91.0876632311
 20
98.4215315917
 30
0.0
 40
0.7
 41
0.0
 71
     1
 72
     1
  1
R1.75
  7
SLDTEXTSTYLE0
 11
0.9659258262890682
 21
0.2588190451025209
 31
0.0
 73
     1
 44
1.0
  0
ENDBLK
  5
A6
330
A4
100
AcDbEntity
  8
0
100
AcDbBlockEnd
  0
BLOCK
  5
AD
330
AC
100
AcDbEntity
  8
0
100
AcDbBlockBegin
  2
_D_3
 70
     0
 10
0.0
 20
0.0
 30
0.0
  3
_D_3
  1

  0
INSERT
  5
AF
330
AC
100
AcDbEntity
  8
0
  6
Continuous
 62
     7
370
    18
100
AcDbBlockReference
  2
_Closed
 10
85.66635
 20
91.5396796105
 30
-7.5
 41
0.6604
 42
0.6604
 50
0.0
  0
INSERT
  5
B0
330
AC
100
AcDbEntity
  8
0
  6
Continuous
 62
     7
370
    18
100
AcDbBlockReference
  2
_Closed
 10
77.66635
 20
91.5396796105
 30
-7.5
 41
0.6604
 42
0.6604
 50
180.0
  0
LINE
  5
B1
330
AC
100
AcDbEntity
  8
0
  6
Continuous
 62
     7
370
     0
100
AcDbLine
 10
85.66635
 20
86.0915
 30
0.0
 11
85.66635
 21
91.7396796105
 31
0.0
  0
LINE
  5
B2
330
AC
100
AcDbEntity
  8
0
  6
Continuous
 62
     7
370
     0
100
AcDbLine
 10
85.66635
 20
91.5396796105
 30
0.0
 11
89.3143950431
 21
91.5396796105
 31
0.0
  0
LINE
  5
B3
330
AC
100
AcDbEntity
  8
0
  6
Continuous
 62
     7
370
     0
100
AcDbLine
 10
85.66635
 20
91.5396796105
 30
0.0
 11
77.66635
 21
91.5396796105
 31
0.0
  0
MTEXT
  5
B4
330
AC
100
AcDbEntity
  8
0
  6
Continuous
 62
     7
370
    18
100
AcDbMText
 10
87.504117231
 20
92.4420269934
 30
0.0
 40
0.7
 41
0.0
 71
     1
 72
     1
  1
8.00
  7
SLDTEXTSTYLE0
 73
     1
 44
1.0
  0
ENDBLK
  5
AE
330
AC
100
AcDbEntity
  8
0
100
AcDbBlockEnd
  0
BLOCK
  5
B6
330
B5
100
AcDbEntity
  8
0
100
AcDbBlockBegin
  2
SW_CENTERMARKSYMBOL_0
 70
     0
 10
0.0
 20
0.0
 30
0.0
  3
SW_CENTERMARKSYMBOL_0
  1

  0
LINE
  5
B8
330
B5
100
AcDbEntity
  8
0
  6
Continuous
 62
     0
370
    18
100
AcDbLine
 10
0.0
 20
0.0
 30
0.0
 11
0.0
 21
2.5
 31
0.0
  0
LINE
  5
B9
330
B5
100
AcDbEntity
  8
0
  6
Continuous
 62
     0
370
    18
100
AcDbLine
 10
0.0
 20
0.0
 30
0.0
 11
-2.5
 21
0.0
 31
0.0
  0
LINE
  5
BA
330
B5
100
AcDbEntity
  8
0
  6
Continuous
 62
     0
370
    18
100
AcDbLine
 10
0.0
 20
0.0
 30
0.0
 11
0.0
 21
-2.5
 31
0.0
  0
LINE
  5
BB
330
B5
100
AcDbEntity
  8
0
  6
Continuous
 62
     0
370
    18
100
AcDbLine
 10
0.0
 20
0.0
 30
0.0
 11
2.5
 21
0.0
 31
0.0
  0
LINE
  5
BC
330
B5
100
AcDbEntity
  8
0
  6
Continuous
 62
     0
370
    18
100
AcDbLine
 10
0.0
 20
5.0
 30
0.0
 11
0.0
 21
18.5
 31
0.0
  0
LINE
  5
BD
330
B5
100
AcDbEntity
  8
0
  6
Continuous
 62
     0
370
    18
100
AcDbLine
 10
-5.0
 20
0.0
 30
0.0
 11
-18.5
 21
0.0
 31
0.0
  0
LINE
  5
BE
330
B5
100
AcDbEntity
  8
0
  6
Continuous
 62
     0
370
    18
100
AcDbLine
 10
0.0
 20
-5.0
 30
0.0
 11
0.0
 21
-18.5
 31
0.0
  0
LINE
  5
BF
330
B5
100
AcDbEntity
  8
0
  6
Continuous
 62
     0
370
    18
100
AcDbLine
 10
5.0
 20
0.0
 30
0.0
 11
18.5
 21
0.0
 31
0.0
  0
ENDBLK
  5
B7
330
B5
100
AcDbEntity
  8
0
100
AcDbBlockEnd
  0
BLOCK
  5
E8
330
E7
100
AcDbEntity
  8
0
100
AcDbBlockBegin
  2
_D_4
 70
     0
 10
0.0
 20
0.0
 30
0.0
  3
_D_4
  1

  0
INSERT
  5
EA
330
E7
100
AcDbEntity
  8
0
  6
Continuous
 62
     7
370
    18
100
AcDbBlockReference
  2
_Closed
 10
117.9257196711
 20
91.3915
 30
0.0
 41
0.6604
 42
0.6604
 50
90.0
  0
INSERT
  5
EB
330
E7
100
AcDbEntity
  8
0
  6
Continuous
 62
     7
370
    18
100
AcDbBlockReference
  2
_Closed
 10
117.9257196711
 20
80.3915
 30
0.0
 41
0.6604
 42
0.6604
 50
270.0
  0
LINE
  5
EC
330
E7
100
AcDbEntity
  8
0
  6
Continuous
 62
     7
370
     0
100
AcDbLine
 10
121.72925
 20
91.3915
 30
0.0
 11
117.7257196711
 21
91.3915
 31
0.0
  0
LINE
  5
ED
330
E7
100
AcDbEntity
  8
0
  6
Continuous
 62
     7
370
     0
100
AcDbLine
 10
121.72925
 20
80.3915
 30
0.0
 11
117.7257196711
 21
80.3915
 31
0.0
  0
LINE
  5
EE
330
E7
100
AcDbEntity
  8
0
  6
Continuous
 62
     7
370
     0
100
AcDbLine
 10
117.9257196711
 20
91.3915
 30
0.0
 11
117.9257196711
 21
80.3915
 31
0.0
  0
MTEXT
  5
EF
330
E7
100
AcDbEntity
  8
0
  6
Continuous
 62
     7
370
    18
100
AcDbMText
 10
117.0233722533
 20
84.3595576561
 30
0.0
 40
0.7
 41
0.0
 71
     1
 72
     1
  1
%%c
  7
SLDTEXTSTYLE0
 11
-7.044195017643634E-15
 21
1.0
 31
0.0
 73
     1
 44
1.0
  0
MTEXT
  5
F0
330
E7
100
AcDbEntity
  8
0
  6
Continuous
 62
     7
370
    18
100
AcDbMText
 10
117.012677818
 20
85.4152451357
 30
0.0
 40
0.7
 41
0.0
 71
     1
 72
     1
  1
11.00
  7
SLDTEXTSTYLE0
 11
-7.044195017643634E-15
 21
1.0
 31
0.0
 73
     1
 44
1.0
  0
ENDBLK
  5
E9
330
E7
100
AcDbEntity
  8
0
100
AcDbBlockEnd
  0
BLOCK
  5
F3
330
F2
100
AcDbEntity
  8
0
100
AcDbBlockBegin
  2
_D_5
 70
     0
 10
0.0
 20
0.0
 30
0.0
  3
_D_5
  1

  0
INSERT
  5
F5
330
F2
100
AcDbEntity
  8
0
  6
Continuous
 62
     7
370
    18
100
AcDbBlockReference
  2
_Closed
 10
121.42925
 20
97.7528285466
 30
0.0
 41
0.6604
 42
0.6604
 50
180.0
  0
INSERT
  5
F6
330
F2
100
AcDbEntity
  8
0
  6
Continuous
 62
     7
370
    18
100
AcDbBlockReference
  2
_Closed
 10
136.42925
 20
97.7528285466
 30
0.0
 41
0.6604
 42
0.6604
 50
0.0
  0
LINE
  5
F7
330
F2
100
AcDbEntity
  8
0
  6
Continuous
 62
     7
370
     0
100
AcDbLine
 10
121.42925
 20
91.0915
 30
0.0
 11
121.42925
 21
97.9528285466
 31
0.0
  0
LINE
  5
F8
330
F2
100
AcDbEntity
  8
0
  6
Continuous
 62
     7
370
     0
100
AcDbLine
 10
121.42925
 20
97.7528285466
 30
0.0
 11
136.42925
 21
97.7528285466
 31
0.0
  0
MTEXT
  5
F9
330
F2
100
AcDbEntity
  8
0
  6
Continuous
 62
     7
370
    18
100
AcDbMText
 10
130.1272204916
 20
98.6551759295
 30
0.0
 40
0.7
 41
0.0
 71
     1
 72
     1
  1
15.00
  7
SLDTEXTSTYLE0
 73
     1
 44
1.0
  0
ENDBLK
  5
F4
330
F2
100
AcDbEntity
  8
0
100
AcDbBlockEnd
  0
BLOCK
  5
FC
330
FB
100
AcDbEntity
  8
0
100
AcDbBlockBegin
  2
_D_6
 70
     0
 10
0.0
 20
0.0
 30
0.0
  3
_D_6
  1

  0
INSERT
  5
FE
330
FB
100
AcDbEntity
  8
0
  6
Continuous
 62
     7
370
    18
100
AcDbBlockReference
  2
_Closed
 10
141.42925
 20
96.5516708658
 30
0.0
 41
0.6604
 42
0.6604
 50
180.0
  0
INSERT
  5
FF
330
FB
100
AcDbEntity
  8
0
  6
Continuous
 62
     7
370
    18
100
AcDbBlockReference
  2
_Closed
 10
146.42925
 20
96.5516708658
 30
0.0
 41
0.6604
 42
0.6604
 50
0.0
  0
LINE
  5
100
330
FB
100
AcDbEntity
  8
0
  6
Continuous
 62
     7
370
     0
100
AcDbLine
 10
141.42925
 20
95.8415
 30
0.0
 11
141.42925
 21
96.7516708658
 31
0.0
  0
LINE
  5
101
330
FB
100
AcDbEntity
  8
0
  6
Continuous
 62
     7
370
     0
100
AcDbLine
 10
146.42925
 20
89.5915
 30
0.0
 11
146.42925
 21
96.7516708658
 31
0.0
  0
LINE
  5
102
330
FB
100
AcDbEntity
  8
0
  6
Continuous
 62
     7
370
     0
100
AcDbLine
 10
141.42925
 20
96.5516708658
 30
0.0
 11
146.42925
 21
96.5516708658
 31
0.0
  0
MTEXT
  5
103
330
FB
100
AcDbEntity
  8
0
  6
Continuous
 62
     7
370
    18
100
AcDbMText
 10
143.9417540315
 20
97.4540182487
 30
0.0
 40
0.7
 41
0.0
 71
     1
 72
     1
  1
5.00
  7
SLDTEXTSTYLE0
 73
     1
 44
1.0
  0
ENDBLK
  5
FD
330
FB
100
AcDbEntity
  8
0
100
AcDbBlockEnd
  0
BLOCK
  5
168
330
167
100
AcDbEntity
  8
0
100
AcDbBlockBegin
  2
_None
 70
     0
 10
0.0
 20
0.0
 30
0.0
  3
_None
  1

  0
ENDBLK
  5
169
330
167
100
AcDbEntity
  8
0
100
AcDbBlockEnd
  0
BLOCK
  5
16B
330
16A
100
AcDbEntity
  8
0
100
AcDbBlockBegin
  2
_D_7
 70
     0
 10
0.0
 20
0.0
 30
0.0
  3
_D_7
  1

  0
INSERT
  5
16D
330
16A
100
AcDbEntity
  8
0
  6
Continuous
 62
     7
370
    18
100
AcDbBlockReference
  2
_Closed
 10
78.6322758263
 20
38.1673190451
 30
0.0
 41
0.6604
 42
0.6604
 50
195.0
  0
LINE
  5
16E
330
16A
100
AcDbEntity
  8
0
  6
Continuous
 62
     7
370
     0
100
AcDbLine
 10
78.6322758263
 20
38.1673190451
 30
0.0
 11
89.6819171065
 21
41.1280615028
 31
0.0
  0
LINE
  5
16F
330
16A
100
AcDbEntity
  8
0
  6
Continuous
 62
     7
370
     0
100
AcDbLine
 10
78.6322758263
 20
38.1673190451
 30
0.0
 11
76.7004241737
 21
37.6496809549
 31
0.0
  0
MTEXT
  5
170
330
16A
100
AcDbEntity
  8
0
  6
Continuous
 62
     7
370
    18
100
AcDbMText
 10
86.680250065
 20
41.2571951189
 30
0.0
 40
0.7
 41
0.0
 71
     1
 72
     1
  1
%%c
  7
SLDTEXTSTYLE0
 11
0.9659258262890682
 21
0.2588190451025209
 31
0.0
 73
     1
 44
1.0
  0
MTEXT
  5
171
330
16A
100
AcDbEntity
  8
0
  6
Continuous
 62
     7
370
    18
100
AcDbMText
 10
87.6971979425
 20
41.5407571756
 30
0.0
 40
0.7
 41
0.0
 71
     1
 72
     1
  1
2.00
  7
SLDTEXTSTYLE0
 11
0.9659258262890682
 21
0.2588190451025209
 31
0.0
 73
     1
 44
1.0
  0
ENDBLK
  5
16C
330
16A
100
AcDbEntity
  8
0
100
AcDbBlockEnd
  0
BLOCK
  5
174
330
173
100
AcDbEntity
  8
0
100
AcDbBlockBegin
  2
_D_8
 70
     0
 10
0.0
 20
0.0
 30
0.0
  3
_D_8
  1

  0
INSERT
  5
176
330
173
100
AcDbEntity
  8
0
  6
Continuous
 62
     7
370
    18
100
AcDbBlockReference
  2
_Closed
 10
83.16635
 20
47.4085
 30
0.0
 41
0.6604
 42
0.6604
 50
0.0
  0
INSERT
  5
177
330
173
100
AcDbEntity
  8
0
  6
Continuous
 62
     7
370
    18
100
AcDbBlockReference
  2
_Closed
 10
77.66635
 20
47.4085
 30
0.0
 41
0.6604
 42
0.6604
 50
180.0
  0
LINE
  5
178
330
173
100
AcDbEntity
  8
0
  6
Continuous
 62
     7
370
     0
100
AcDbLine
 10
83.16635
 20
45.1085
 30
0.0
 11
83.16635
 21
47.6085
 31
0.0
  0
LINE
  5
179
330
173
100
AcDbEntity
  8
0
  6
Continuous
 62
     7
370
     0
100
AcDbLine
 10
77.66635
 20
41.6085
 30
0.0
 11
77.66635
 21
47.6085
 31
0.0
  0
LINE
  5
17A
330
173
100
AcDbEntity
  8
0
  6
Continuous
 62
     7
370
     0
100
AcDbLine
 10
83.16635
 20
47.4085
 30
0.0
 11
89.2166649713
 21
47.4085
 31
0.0
  0
LINE
  5
17B
330
173
100
AcDbEntity
  8
0
  6
Continuous
 62
     7
370
     0
100
AcDbLine
 10
83.16635
 20
47.4085
 30
0.0
 11
77.66635
 21
47.4085
 31
0.0
  0
MTEXT
  5
17C
330
173
100
AcDbEntity
  8
0
  6
Continuous
 62
     7
370
    18
100
AcDbMText
 10
87.4063871591
 20
48.3108473829
 30
0.0
 40
0.7
 41
0.0
 71
     1
 72
     1
  1
5.50
  7
SLDTEXTSTYLE0
 73
     1
 44
1.0
  0
ENDBLK
  5
175
330
173
100
AcDbEntity
  8
0
100
AcDbBlockEnd
  0
BLOCK
  5
17E
330
17D
100
AcDbEntity
  8
0
100
AcDbBlockBegin
  2
SW_CENTERMARKSYMBOL_1
 70
     0
 10
0.0
 20
0.0
 30
0.0
  3
SW_CENTERMARKSYMBOL_1
  1

  0
LINE
  5
180
330
17D
100
AcDbEntity
  8
0
  6
Continuous
 62
     0
370
    18
100
AcDbLine
 10
0.0
 20
0.0
 30
0.0
 11
0.0
 21
2.5
 31
0.0
  0
LINE
  5
181
330
17D
100
AcDbEntity
  8
0
  6
Continuous
 62
     0
370
    18
100
AcDbLine
 10
0.0
 20
0.0
 30
0.0
 11
-2.5
 21
0.0
 31
0.0
  0
LINE
  5
182
330
17D
100
AcDbEntity
  8
0
  6
Continuous
 62
     0
370
    18
100
AcDbLine
 10
0.0
 20
0.0
 30
0.0
 11
0.0
 21
-2.5
 31
0.0
  0
LINE
  5
183
330
17D
100
AcDbEntity
  8
0
  6
Continuous
 62
     0
370
    18
100
AcDbLine
 10
0.0
 20
0.0
 30
0.0
 11
2.5
 21
0.0
 31
0.0
  0
LINE
  5
184
330
17D
100
AcDbEntity
  8
0
  6
Continuous
 62
     0
370
    18
100
AcDbLine
 10
0.0
 20
2.5
 30
0.0
 11
0.0
 21
3.5
 31
0.0
  0
LINE
  5
185
330
17D
100
AcDbEntity
  8
0
  6
Continuous
 62
     0
370
    18
100
AcDbLine
 10
-2.5
 20
0.0
 30
0.0
 11
-3.5
 21
0.0
 31
0.0
  0
LINE
  5
186
330
17D
100
AcDbEntity
  8
0
  6
Continuous
 62
     0
370
    18
100
AcDbLine
 10
0.0
 20
-2.5
 30
0.0
 11
0.0
 21
-3.5
 31
0.0
  0
LINE
  5
187
330
17D
100
AcDbEntity
  8
0
  6
Continuous
 62
     0
370
    18
100
AcDbLine
 10
2.5
 20
0.0
 30
0.0
 11
3.5
 21
0.0
 31
0.0
  0
ENDBLK
  5
17F
330
17D
100
AcDbEntity
  8
0
100
AcDbBlockEnd
  0
ENDSEC
  0
SECTION
  2
ENTITIES
  0
CIRCLE
  5
63
330
1F
100
AcDbEntity
  8
0
  6
Continuous
 62
     7
370
    25
100
AcDbCircle
 10
77.66635
 20
85.8915
 30
0.0
 40
5.0
  0
CIRCLE
  5
64
330
1F
100
AcDbEntity
  8
0
  6
Continuous
 62
     7
370
    25
100
AcDbCircle
 10
77.66635
 20
85.8915
 30
0.0
 40
5.5
  0
ARC
  5
65
330
1F
100
AcDbEntity
  8
0
  6
Continuous
 62
     7
370
    25
100
AcDbCircle
 10
77.66635
 20
85.8915
 30
0.0
 40
4.000000000000006
100
AcDbArc
 50
131.4096221093
 51
48.5903778907
  0
LINE
  5
66
330
1F
100
AcDbEntity
  8
0
  6
Continuous
 62
     7
370
    25
100
AcDbLine
 10
75.0205986889
 20
88.8915
 30
0.0
 11
80.3121013111
 21
88.8915
 31
0.0
  0
SPLINE
  5
67
330
1F
100
AcDbEntity
  8
0
  6
Continuous
 62
     7
370
    25
100
AcDbSpline
210
0.0
220
0.0
230
1.0
 70
     8
 71
     3
 72
    14
 73
    10
 74
     0
 42
0.00000001
 43
0.00000001
 40
0.0
 40
0.0
 40
0.0
 40
0.0
 40
0.2500000000000001
 40
0.2500000000000001
 40
0.5000000000000001
 40
0.5000000000000001
 40
0.7500000000000001
 40
0.7500000000000001
 40
1.0
 40
1.0
 40
1.0
 40
1.0
 10
71.73275625000008
 20
86.78170515049143
 30
0.0
 10
71.75534138756655
 20
86.63438926388024
 30
0.0
 10
71.76929062528477
 20
86.48601890623371
 30
0.0
 10
71.78734345329782
 20
86.18896316280443
 30
0.0
 10
71.7913503308562
 20
86.04029163549805
 30
0.0
 10
71.7913496691049
 20
85.74267305686331
 30
0.0
 10
71.78732671590573
 20
85.59364285525679
 30
0.0
 10
71.76926988794678
 20
85.29675868282195
 30
0.0
 10
71.75536016805056
 20
85.14873323542372
 30
0.0
 10
71.73275625000018
 20
85.00129484950818
 30
0.0
  0
ARC
  5
68
330
1F
100
AcDbEntity
  8
0
  6
Continuous
 62
     7
370
    25
100
AcDbCircle
 10
77.66635
 20
85.8915
 30
0.0
 40
5.999999999999999
100
AcDbArc
 50
98.5323340862
 51
171.4676659138
  0
SPLINE
  5
69
330
1F
100
AcDbEntity
  8
0
  6
Continuous
 62
     7
370
    25
100
AcDbSpline
210
0.0
220
0.0
230
1.0
 70
     8
 71
     3
 72
    14
 73
    10
 74
     0
 42
0.00000001
 43
0.00000001
 40
0.0
 40
0.0
 40
0.0
 40
0.0
 40
0.2500000000000001
 40
0.2500000000000001
 40
0.5000000000000001
 40
0.5000000000000001
 40
0.75
 40
0.75
 40
1.0
 40
1.0
 40
1.0
 40
1.0
 10
78.55655515049116
 20
91.82509375000002
 30
0.0
 10
78.40923926388005
 20
91.8025086124336
 30
0.0
 10
78.26086890623361
 20
91.78855937471539
 30
0.0
 10
77.96381316280448
 20
91.77050654670236
 30
0.0
 10
77.81514163549818
 20
91.766499669144
 30
0.0
 10
77.51752305686361
 20
91.76650033089531
 30
0.0
 10
77.36849285525719
 20
91.77052328409448
 30
0.0
 10
77.07160868282249
 20
91.78858011205342
 30
0.0
 10
76.92358323542436
 20
91.80248983194963
 30
0.0
 10
76.77614484950891
 20
91.82509374999998
 30
0.0
  0
ARC
  5
6A
330
1F
100
AcDbEntity
  8
0
  6
Continuous
 62
     7
370
    25
100
AcDbCircle
 10
77.66635
 20
85.8915
 30
0.0
 40
6.000000000000001
100
AcDbArc
 50
8.5323340862
 51
81.4676659138
  0
SPLINE
  5
6B
330
1F
100
AcDbEntity
  8
0
  6
Continuous
 62
     7
370
    25
100
AcDbSpline
210
0.0
220
0.0
230
1.0
 70
     8
 71
     3
 72
    14
 73
    10
 74
     0
 42
0.00000001
 43
0.00000001
 40
0.0
 40
0.0
 40
0.0
 40
0.0
 40
0.2499999999999999
 40
0.2499999999999999
 40
0.4999999999999998
 40
0.4999999999999998
 40
0.7499999999999999
 40
0.7499999999999999
 40
1.0
 40
1.0
 40
1.0
 40
1.0
 10
83.59994375000015
 20
85.00129484950959
 30
0.0
 10
83.57735861243376
 20
85.14861073612062
 30
0.0
 10
83.56340937471556
 20
85.29698109376699
 30
0.0
 10
83.54535654670252
 20
85.59403683719596
 30
0.0
 10
83.54134966914415
 20
85.74270836450216
 30
0.0
 10
83.54135033089545
 20
86.04032694313656
 30
0.0
 10
83.54537328409461
 20
86.18935714474291
 30
0.0
 10
83.56343011205355
 20
86.48624131717744
 30
0.0
 10
83.57733983194973
 20
86.6342667645755
 30
0.0
 10
83.59994375000004
 20
86.78170515049088
 30
0.0
  0
ARC
  5
6C
330
1F
100
AcDbEntity
  8
0
  6
Continuous
 62
     7
370
    25
100
AcDbCircle
 10
77.66635
 20
85.8915
 30
0.0
 40
6.000000000000008
100
AcDbArc
 50
278.5323340862
 51
351.4676659138
  0
SPLINE
  5
6D
330
1F
100
AcDbEntity
  8
0
  6
Continuous
 62
     7
370
    25
100
AcDbSpline
210
0.0
220
0.0
230
1.0
 70
     8
 71
     3
 72
    14
 73
    10
 74
     0
 42
0.00000001
 43
0.00000001
 40
0.0
 40
0.0
 40
0.0
 40
0.0
 40
0.2499999999999999
 40
0.2499999999999999
 40
0.4999999999999998
 40
0.4999999999999998
 40
0.7499999999999999
 40
0.7499999999999999
 40
1.0
 40
1.0
 40
1.0
 40
1.0
 10
76.77614484950934
 20
79.95790624999995
 30
0.0
 10
76.92346073612045
 20
79.98049138756639
 30
0.0
 10
77.07183109376689
 20
79.9944406252846
 30
0.0
 10
77.36888683719602
 20
80.01249345329767
 30
0.0
 10
77.51755836450232
 20
80.01650033085603
 30
0.0
 10
77.81517694313688
 20
80.01649966910475
 30
0.0
 10
77.96420714474331
 20
80.01247671590559
 30
0.0
 10
78.261091317178
 20
79.99441988794665
 30
0.0
 10
78.40911676457614
 20
79.98051016805046
 30
0.0
 10
78.55655515049159
 20
79.95790625000012
 30
0.0
  0
ARC
  5
6E
330
1F
100
AcDbEntity
  8
0
  6
Continuous
 62
     7
370
    25
100
AcDbCircle
 10
77.66635
 20
85.8915
 30
0.0
 40
6.000000000000006
100
AcDbArc
 50
188.5323340862
 51
261.4676659138
  0
SPLINE
  5
6F
330
1F
100
AcDbEntity
  8
0
  6
Continuous
 62
     7
370
    25
100
AcDbSpline
210
0.0
220
0.0
230
1.0
 70
     8
 71
     3
 72
    14
 73
    10
 74
     0
 42
0.00000001
 43
0.00000001
 40
0.0
 40
0.0
 40
0.0
 40
0.0
 40
0.25
 40
0.25
 40
0.5
 40
0.5
 40
0.75
 40
0.75
 40
1.0
 40
1.0
 40
1.0
 40
1.0
 10
71.2735548611113
 20
85.19911821628409
 30
0.0
 10
71.32102133407612
 20
85.30930070213671
 30
0.0
 10
71.35632425697797
 20
85.4220058938099
 30
0.0
 10
71.404070305109
 20
85.65324415808367
 30
0.0
 10
71.41636287164175
 20
85.77327981247439
 30
0.0
 10
71.41633710764683
 20
86.01010095581488
 30
0.0
 10
71.40443805740163
 20
86.12729394924284
 30
0.0
 10
71.35676937936068
 20
86.35950769615826
 30
0.0
 10
71.32092096696907
 20
86.4739322769881
 30
0.0
 10
71.27355486111125
 20
86.5838817837155
 30
0.0
  0
LINE
  5
70
330
1F
100
AcDbEntity
  8
0
  6
Continuous
 62
     7
370
    25
100
AcDbLine
 10
71.73275625
 20
86.7817051505
 30
0.0
 11
71.2735548611
 21
86.5838817837
 31
0.0
  0
LINE
  5
71
330
1F
100
AcDbEntity
  8
0
  6
Continuous
 62
     7
370
    25
100
AcDbLine
 10
71.2735548611
 20
85.1991182163
 30
0.0
 11
71.73275625
 21
85.0012948495
 31
0.0
  0
SPLINE
  5
72
330
1F
100
AcDbEntity
  8
0
  6
Continuous
 62
     7
370
    25
100
AcDbSpline
210
0.0
220
0.0
230
1.0
 70
     8
 71
     3
 72
    14
 73
    10
 74
     0
 42
0.00000001
 43
0.00000001
 40
0.0
 40
0.0
 40
0.0
 40
0.0
 40
0.2500000000000001
 40
0.2500000000000001
 40
0.5000000000000001
 40
0.5000000000000001
 40
0.75
 40
0.75
 40
1.0
 40
1.0
 40
1.0
 40
1.0
 10
76.97396821628472
 20
92.28429513888891
 30
0.0
 10
77.0841507021373
 20
92.23682866592414
 30
0.0
 10
77.19685589381041
 20
92.20152574302233
 30
0.0
 10
77.42809415808405
 20
92.15377969489134
 30
0.0
 10
77.54812981247468
 20
92.14148712835859
 30
0.0
 10
77.78495095581506
 20
92.14151289235352
 30
0.0
 10
77.90214394924294
 20
92.1534119425987
 30
0.0
 10
78.13435769615823
 20
92.20108062063956
 30
0.0
 10
78.24878227698801
 20
92.23692903303115
 30
0.0
 10
78.35873178371536
 20
92.28429513888891
 30
0.0
  0
LINE
  5
73
330
1F
100
AcDbEntity
  8
0
  6
Continuous
 62
     7
370
    25
100
AcDbLine
 10
78.5565551505
 20
91.82509375
 30
0.0
 11
78.3587317837
 21
92.2842951389
 31
0.0
  0
LINE
  5
74
330
1F
100
AcDbEntity
  8
0
  6
Continuous
 62
     7
370
    25
100
AcDbLine
 10
76.9739682163
 20
92.2842951389
 30
0.0
 11
76.7761448495
 21
91.82509375
 31
0.0
  0
SPLINE
  5
75
330
1F
100
AcDbEntity
  8
0
  6
Continuous
 62
     7
370
    25
100
AcDbSpline
210
0.0
220
0.0
230
1.0
 70
     8
 71
     3
 72
    14
 73
    10
 74
     0
 42
0.00000001
 43
0.00000001
 40
0.0
 40
0.0
 40
0.0
 40
0.0
 40
0.25
 40
0.25
 40
0.5
 40
0.5
 40
0.75
 40
0.75
 40
1.0
 40
1.0
 40
1.0
 40
1.0
 10
78.35873178371583
 20
79.49870486111118
 30
0.0
 10
78.24854929786325
 20
79.54617133407595
 30
0.0
 10
78.1358441061901
 20
79.58147425697774
 30
0.0
 10
77.90460584191648
 20
79.62922030510872
 30
0.0
 10
77.78457018752583
 20
79.64151287164145
 30
0.0
 10
77.54774904418547
 20
79.64148710764651
 30
0.0
 10
77.43055605075759
 20
79.62958805740132
 30
0.0
 10
77.1983423038423
 20
79.58191937936044
 30
0.0
 10
77.08391772301252
 20
79.54607096696886
 30
0.0
 10
76.97396821628517
 20
79.49870486111108
 30
0.0
  0
LINE
  5
76
330
1F
100
AcDbEntity
  8
0
  6
Continuous
 62
     7
370
    25
100
AcDbLine
 10
76.7761448495
 20
79.95790625
 30
0.0
 11
76.9739682163
 21
79.4987048611
 31
0.0
  0
LINE
  5
77
330
1F
100
AcDbEntity
  8
0
  6
Continuous
 62
     7
370
    25
100
AcDbLine
 10
78.3587317837
 20
79.4987048611
 30
0.0
 11
78.5565551505
 21
79.95790625
 31
0.0
  0
SPLINE
  5
78
330
1F
100
AcDbEntity
  8
0
  6
Continuous
 62
     7
370
    25
100
AcDbSpline
210
0.0
220
0.0
230
1.0
 70
     8
 71
     3
 72
    14
 73
    10
 74
     0
 42
0.00000001
 43
0.00000001
 40
0.0
 40
0.0
 40
0.0
 40
0.0
 40
0.25
 40
0.25
 40
0.5
 40
0.5
 40
0.75
 40
0.75
 40
1.0
 40
1.0
 40
1.0
 40
1.0
 10
84.05914513888902
 20
86.58388178371519
 30
0.0
 10
84.01167866592431
 20
86.47369929786267
 30
0.0
 10
83.97637574302254
 20
86.36099410618961
 30
0.0
 10
83.92862969489163
 20
86.1297558419161
 30
0.0
 10
83.91633712835889
 20
86.00972018752553
 30
0.0
 10
83.91636289235382
 20
85.7728990441853
 30
0.0
 10
83.928261942599
 20
85.65570605075747
 30
0.0
 10
83.97593062063982
 20
85.42349230384232
 30
0.0
 10
84.01177903303136
 20
85.3090677230126
 30
0.0
 10
84.05914513888908
 20
85.19911821628531
 30
0.0
  0
LINE
  5
79
330
1F
100
AcDbEntity
  8
0
  6
Continuous
 62
     7
370
    25
100
AcDbLine
 10
83.59994375
 20
85.0012948495
 30
0.0
 11
84.0591451389
 21
85.1991182163
 31
0.0
  0
LINE
  5
7A
330
1F
100
AcDbEntity
  8
0
  6
Continuous
 62
     7
370
    25
100
AcDbLine
 10
84.0591451389
 20
86.5838817837
 30
0.0
 11
83.59994375
 21
86.7817051505
 31
0.0
  0
ARC
  5
7B
330
1F
100
AcDbEntity
  8
0
  6
Continuous
 62
     7
370
    25
100
AcDbCircle
 10
69.66635
 20
85.8915
 30
0.0
 40
1.750000000000006
100
AcDbArc
 50
23.30631528
 51
336.69368472
  0
ARC
  5
7C
330
1F
100
AcDbEntity
  8
0
  6
Continuous
 62
     7
370
    25
100
AcDbCircle
 10
69.66635
 20
85.8915
 30
0.0
 40
2.250000000000001
100
AcDbArc
 50
23.30631528
 51
336.69368472
  0
ARC
  5
7D
330
1F
100
AcDbEntity
  8
0
  6
Continuous
 62
     7
370
    25
100
AcDbCircle
 10
85.66635
 20
85.8915
 30
0.0
 40
1.749999999999996
100
AcDbArc
 50
203.30631528
 51
156.69368472
  0
ARC
  5
7E
330
1F
100
AcDbEntity
  8
0
  6
Continuous
 62
     7
370
    25
100
AcDbCircle
 10
85.66635
 20
85.8915
 30
0.0
 40
2.250000000000001
100
AcDbArc
 50
203.30631528
 51
156.69368472
  0
ARC
  5
7F
330
1F
100
AcDbEntity
  8
0
  6
Continuous
 62
     7
370
    25
100
AcDbCircle
 10
77.66635
 20
77.8915
 30
0.0
 40
1.750000000000001
100
AcDbArc
 50
113.30631528
 51
66.69368472
  0
ARC
  5
80
330
1F
100
AcDbEntity
  8
0
  6
Continuous
 62
     7
370
    25
100
AcDbCircle
 10
77.66635
 20
77.8915
 30
0.0
 40
2.250000000000008
100
AcDbArc
 50
113.30631528
 51
66.69368472
  0
ARC
  5
81
330
1F
100
AcDbEntity
  8
0
  6
Continuous
 62
     7
370
    25
100
AcDbCircle
 10
77.66635
 20
93.8915
 30
0.0
 40
1.750000000000001
100
AcDbArc
 50
293.30631528
 51
246.69368472
  0
ARC
  5
82
330
1F
100
AcDbEntity
  8
0
  6
Continuous
 62
     7
370
    25
100
AcDbCircle
 10
77.66635
 20
93.8915
 30
0.0
 40
2.249999999999998
100
AcDbArc
 50
293.30631528
 51
246.69368472
  0
CIRCLE
  5
83
330
1F
100
AcDbEntity
  8
0
  6
Continuous
 62
     7
370
    25
100
AcDbCircle
 10
77.66635
 20
85.8915
 30
0.0
 40
15.5
  0
CIRCLE
  5
84
330
1F
100
AcDbEntity
  8
0
  6
Continuous
 62
     7
370
    25
100
AcDbCircle
 10
77.66635
 20
85.8915
 30
0.0
 40
16.0
  0
DIMENSION
  5
85
330
1F
100
AcDbEntity
  8
0
  6
Continuous
 62
     7
370
    18
100
AcDbDimension
  2
_D
 10
54.86635
 20
69.8915
 30
0.0
 11
54.86635
 21
86.0762794649
 31
0.0
 70
   160
  1
%%c<>
 71
     2
 42
-1.0
  3
SLDDIMSTYLE0
100
AcDbAlignedDimension
 13
77.66635
 23
101.8915
 33
0.0
 14
77.66635
 24
69.8915
 34
0.0
 50
90.0
100
AcDbRotatedDimension
  0
DIMENSION
  5
99
330
1F
100
AcDbEntity
  8
0
  6
Continuous
 62
     7
370
    18
100
AcDbDimension
  2
_D_1
 10
77.66635
 20
85.8915
 30
0.0
 11
95.5063365937
 21
75.5915820925
 31
0.0
 70
   164
  1
<>
 71
     1
 42
-1.0
  3
SLDDIMSTYLE1
100
AcDbRadialDimension
 15
81.1304516151
 25
83.8915
 35
0.0
 40
0.0
  0
DIMENSION
  5
A2
330
1F
100
AcDbEntity
  8
0
  6
Continuous
 62
     7
370
    18
100
AcDbDimension
  2
_D_2
 10
77.66635
 20
93.8915
 30
0.0
 11
92.4788720584
 21
97.8605047875
 31
0.0
 70
   164
  1
<>
 71
     1
 42
-1.0
  3
SLDDIMSTYLE2
100
AcDbRadialDimension
 15
79.356720196
 25
94.3444333289
 35
0.0
 40
0.0
  0
DIMENSION
  5
AB
330
1F
100
AcDbEntity
  8
0
  6
Continuous
 62
     7
370
    18
100
AcDbDimension
  2
_D_3
 10
77.66635
 20
91.5396796105
 30
0.0
 11
88.409256137
 21
91.5396796105
 31
0.0
 70
   160
  1
<>
 71
     2
 42
-1.0
  3
SLDDIMSTYLE0
100
AcDbAlignedDimension
 13
85.66635
 23
85.8915
 33
0.0
 14
77.66635
 24
104.3915
 34
0.0
100
AcDbRotatedDimension
  0
INSERT
  5
C0
330
1F
100
AcDbEntity
  8
0
  6
Continuous
 62
     7
370
    18
100
AcDbBlockReference
  2
SW_CENTERMARKSYMBOL_0
 10
77.66635
 20
85.8915
 30
0.0
  0
ARC
  5
C1
330
1F
100
AcDbEntity
  8
0
  6
Continuous
 62
     7
370
    25
100
AcDbCircle
 10
140.92925
 20
70.3915
 30
0.0
 40
0.5
100
AcDbArc
 50
270.0
 51
0.0
  0
ARC
  5
C2
330
1F
100
AcDbEntity
  8
0
  6
Continuous
 62
     7
370
    25
100
AcDbCircle
 10
140.92925
 20
101.3915
 30
0.0
 40
0.5000000000000142
100
AcDbArc
 50
0.0
 51
90.0
  0
LINE
  5
C3
330
1F
100
AcDbEntity
  8
0
  6
Continuous
 62
     7
370
    25
100
AcDbLine
 10
140.92925
 20
101.8915
 30
0.0
 11
136.92925
 21
101.8915
 31
0.0
  0
LINE
  5
C4
330
1F
100
AcDbEntity
  8
0
  6
Continuous
 62
     7
370
    25
100
AcDbLine
 10
136.92925
 20
69.8915
 30
0.0
 11
140.92925
 21
69.8915
 31
0.0
  0
ARC
  5
C5
330
1F
100
AcDbEntity
  8
0
  6
Continuous
 62
     7
370
    25
100
AcDbCircle
 10
136.92925
 20
70.3915
 30
0.0
 40
0.5
100
AcDbArc
 50
180.0
 51
270.0
  0
ARC
  5
C6
330
1F
100
AcDbEntity
  8
0
  6
Continuous
 62
     7
370
    25
100
AcDbCircle
 10
136.92925
 20
101.3915
 30
0.0
 40
0.5000000000000142
100
AcDbArc
 50
90.0
 51
180.0
  0
ARC
  5
C7
330
1F
100
AcDbEntity
  8
0
  6
Continuous
 62
     7
370
    25
100
AcDbCircle
 10
135.92925
 20
79.8915
 30
0.0
 40
0.500000000000004
100
AcDbArc
 50
13.6425776608
 51
90.0
  0
ARC
  5
C8
330
1F
100
AcDbEntity
  8
0
  6
Continuous
 62
     7
370
    25
100
AcDbCircle
 10
135.92925
 20
91.8915
 30
0.0
 40
0.4999999999999858
100
AcDbArc
 50
270.0
 51
346.3651217471
  0
LINE
  5
C9
330
1F
100
AcDbEntity
  8
0
  6
Continuous
 62
     7
370
    25
100
AcDbLine
 10
127.92925
 20
91.3915
 30
0.0
 11
121.92925
 21
91.3915
 31
0.0
  0
LINE
  5
CA
330
1F
100
AcDbEntity
  8
0
  6
Continuous
 62
     7
370
    25
100
AcDbLine
 10
135.92925
 20
91.3915
 30
0.0
 11
129.9163327133
 21
91.3915
 31
0.0
  0
LINE
  5
CB
330
1F
100
AcDbEntity
  8
0
  6
Continuous
 62
     7
370
    25
100
AcDbLine
 10
129.9169329868
 20
80.3915
 30
0.0
 11
135.92925
 21
80.3915
 31
0.0
  0
LINE
  5
CC
330
1F
100
AcDbEntity
  8
0
  6
Continuous
 62
     7
370
    25
100
AcDbLine
 10
121.92925
 20
80.3915
 30
0.0
 11
127.9316718876
 21
80.3915
 31
0.0
  0
ARC
  5
CD
330
1F
100
AcDbEntity
  8
0
  6
Continuous
 62
     7
370
    25
100
AcDbCircle
 10
121.92925
 20
80.8915
 30
0.0
 40
0.5000000000000142
100
AcDbArc
 50
180.0
 51
270.0
  0
ARC
  5
CE
330
1F
100
AcDbEntity
  8
0
  6
Continuous
 62
     7
370
    25
100
AcDbCircle
 10
121.92925
 20
90.8915
 30
0.0
 40
0.5000000000000142
100
AcDbArc
 50
90.0
 51
180.0
  0
ARC
  5
CF
330
1F
100
AcDbEntity
  8
0
  6
Continuous
 62
     7
370
    25
100
AcDbCircle
 10
141.92925
 20
81.3915
 30
0.0
 40
0.5
100
AcDbArc
 50
90.0
 51
180.0
  0
ARC
  5
D0
330
1F
100
AcDbEntity
  8
0
  6
Continuous
 62
     7
370
    25
100
AcDbCircle
 10
141.92925
 20
90.3915
 30
0.0
 40
0.5
100
AcDbArc
 50
180.0
 51
270.0
  0
ARC
  5
D1
330
1F
100
AcDbEntity
  8
0
  6
Continuous
 62
     7
370
    25
100
AcDbCircle
 10
145.92925
 20
89.3915
 30
0.0
 40
0.5
100
AcDbArc
 50
0.0
 51
90.0
  0
ARC
  5
D2
330
1F
100
AcDbEntity
  8
0
  6
Continuous
 62
     7
370
    25
100
AcDbCircle
 10
145.92925
 20
82.3915
 30
0.0
 40
0.5
100
AcDbArc
 50
270.0
 51
0.0
  0
LINE
  5
D3
330
1F
100
AcDbEntity
  8
0
  6
Continuous
 62
     7
370
    25
100
AcDbLine
 10
141.92925
 20
81.8915
 30
0.0
 11
145.92925
 21
81.8915
 31
0.0
  0
LINE
  5
D4
330
1F
100
AcDbEntity
  8
0
  6
Continuous
 62
     7
370
    25
100
AcDbLine
 10
145.92925
 20
89.8915
 30
0.0
 11
141.92925
 21
89.8915
 31
0.0
  0
LINE
  5
D5
330
1F
100
AcDbEntity
  8
0
  6
Continuous
 62
     7
370
    25
100
AcDbLine
 10
136.4289300714
 20
91.8241978149
 30
0.0
 11
136.4289549666
 21
91.8232143733
 31
0.0
  0
LINE
  5
D6
330
1F
100
AcDbEntity
  8
0
  6
Continuous
 62
     7
370
    25
100
AcDbLine
 10
141.42925
 20
101.3914999998
 30
0.0
 11
141.42925
 21
70.3915
 31
0.0
  0
LINE
  5
D7
330
1F
100
AcDbEntity
  8
0
  6
Continuous
 62
     7
370
    25
100
AcDbLine
 10
136.42925
 20
70.3915
 30
0.0
 11
136.42925
 21
101.3914999998
 31
0.0
  0
LINE
  5
D8
330
1F
100
AcDbEntity
  8
0
  6
Continuous
 62
     7
370
    25
100
AcDbLine
 10
136.4167911516
 20
80.0095741775
 30
0.0
 11
136.4157645468
 21
80.0118569166
 31
0.0
  0
SPLINE
  5
D9
330
1F
100
AcDbEntity
  8
0
  6
Continuous
 62
     7
370
    25
100
AcDbSpline
210
0.0
220
0.0
230
1.0
 70
     8
 71
     3
 72
    12
 73
     8
 74
     0
 42
0.00000001
 43
0.00000001
 40
0.0
 40
0.0
 40
0.0
 40
0.0
 40
0.2124139623122769
 40
0.4247421584753177
 40
0.6392892767786672
 40
0.8553394034904981
 40
1.0
 40
1.0
 40
1.0
 40
1.0
 10
128.9292500000001
 20
80.48317308680404
 30
0.0
 10
129.0405987365448
 20
80.48111565794814
 30
0.0
 10
129.2632512504788
 20
80.47700163096212
 30
0.0
 10
129.5613333987084
 20
80.44819253475679
 30
0.0
 10
129.7863584881293
 20
80.41677717456939
 30
0.0
 10
129.9162901629149
 20
80.39388322867293
 30
0.0
 10
129.9167489809095
 20
80.39376555964577
 30
0.0
 10
129.9169329867639
 20
80.39371836927808
 30
0.0
  0
SPLINE
  5
DA
330
1F
100
AcDbEntity
  8
0
  6
Continuous
 62
     7
370
    25
100
AcDbSpline
210
0.0
220
0.0
230
1.0
 70
     8
 71
     3
 72
    12
 73
     8
 74
     0
 42
0.00000001
 43
0.00000001
 40
0.0
 40
0.0
 40
0.0
 40
0.0
 40
0.2018913567074081
 40
0.4132464606943271
 40
0.6274804250303994
 40
0.8434520648584966
 40
1.0
 40
1.0
 40
1.0
 40
1.0
 10
127.931671887633
 20
80.39193013672715
 30
0.0
 10
127.9405264981275
 20
80.39358362266002
 30
0.0
 10
127.9586507829277
 20
80.39696810241541
 30
0.0
 10
128.1206151208307
 20
80.42437816808206
 30
0.0
 10
128.3665053174057
 20
80.45620190526273
 30
0.0
 10
128.6523890952221
 20
80.47941109357654
 30
0.0
 10
128.8473285020134
 20
80.48205993534316
 30
0.0
 10
128.9292500000001
 20
80.48317308680404
 30
0.0
  0
ARC
  5
DB
330
1F
100
AcDbEntity
  8
0
  6
Continuous
 62
     7
370
    25
100
AcDbCircle
 10
128.9291826998
 20
96.8429894823
 30
0.0
 40
5.542436556174192
100
AcDbArc
 50
259.6061296635
 51
280.2595515935
  0
LINE
  5
DC
330
1F
100
AcDbEntity
  8
0
  6
Continuous
 62
     7
370
    25
100
AcDbLine
 10
121.42925
 20
80.8915
 30
0.0
 11
121.42925
 21
90.8915
 31
0.0
  0
LINE
  5
DD
330
1F
100
AcDbEntity
  8
0
  6
Continuous
 62
     7
370
    25
100
AcDbLine
 10
146.42925
 20
89.3915
 30
0.0
 11
146.42925
 21
82.3915
 31
0.0
  0
LINE
  5
DE
330
1F
100
AcDbEntity
  8
0
  6
Continuous
 62
     7
370
    25
100
AcDbLine
 10
140.92925
 20
69.8915
 30
0.0
 11
140.92925
 21
101.8915
 31
0.0
  0
LINE
  5
DF
330
1F
100
AcDbEntity
  8
0
  6
Continuous
 62
     7
370
    25
100
AcDbLine
 10
136.92925
 20
101.8915
 30
0.0
 11
136.92925
 21
69.8915
 31
0.0
  0
SPLINE
  5
E0
330
1F
100
AcDbEntity
  8
0
  6
Continuous
 62
     7
370
    25
100
AcDbSpline
210
0.0
220
0.0
230
1.0
 70
     8
 71
     3
 72
    11
 73
     7
 74
     0
 42
0.00000001
 43
0.00000001
 40
0.0
 40
0.0
 40
0.0
 40
0.0
 40
0.1554376431621262
 40
0.6022687108778341
 40
0.8122941370782729
 40
1.0
 40
1.0
 40
1.0
 40
1.0
 10
136.4281583013016
 20
85.0619080773908
 30
0.0
 10
136.4266778265487
 20
85.14858735565437
 30
0.0
 10
136.420941483648
 20
85.48444047409859
 30
0.0
 10
136.4082151979804
 20
85.94227653140145
 30
0.0
 10
136.4231371007008
 20
86.4165518650668
 30
0.0
 10
136.4267952361162
 20
86.63839022181419
 30
0.0
 10
136.4285216616794
 20
86.74308492731325
 30
0.0
  0
LINE
  5
E1
330
1F
100
AcDbEntity
  8
0
  6
Continuous
 62
     7
370
    25
100
AcDbLine
 10
135.92925
 20
80.3915
 30
0.0
 11
135.92925
 21
91.3915
 31
0.0
  0
LINE
  5
E2
330
1F
100
AcDbEntity
  8
0
  6
Continuous
 62
     7
370
    25
100
AcDbLine
 10
136.4234704606
 20
91.7882778075
 30
0.0
 11
136.4167909506
 21
91.7734253755
 31
0.0
  0
LINE
  5
E3
330
1F
100
AcDbEntity
  8
0
  6
Continuous
 62
     7
370
    25
100
AcDbLine
 10
121.92925
 20
91.3915
 30
0.0
 11
121.92925
 21
80.3915
 31
0.0
  0
LINE
  5
E4
330
1F
100
AcDbEntity
  8
0
  6
Continuous
 62
     7
370
    25
100
AcDbLine
 10
141.92925
 20
89.8915
 30
0.0
 11
141.92925
 21
81.8915
 31
0.0
  0
LINE
  5
E5
330
1F
100
AcDbEntity
  8
0
  6
Continuous
 62
     7
370
    25
100
AcDbLine
 10
145.92925
 20
81.8915
 30
0.0
 11
145.92925
 21
89.8915
 31
0.0
  0
DIMENSION
  5
E6
330
1F
100
AcDbEntity
  8
0
  6
Continuous
 62
     7
370
    18
100
AcDbDimension
  2
_D_4
 10
117.9257196711
 20
80.3915
 30
0.0
 11
117.9257196711
 21
86.0511514446
 31
0.0
 70
   160
  1
%%c<>
 71
     2
 42
-1.0
  3
SLDDIMSTYLE0
100
AcDbAlignedDimension
 13
121.92925
 23
91.3915
 33
0.0
 14
121.92925
 24
80.3915
 34
0.0
 50
90.0
100
AcDbRotatedDimension
  0
DIMENSION
  5
F1
330
1F
100
AcDbEntity
  8
0
  6
Continuous
 62
     7
370
    18
100
AcDbDimension
  2
_D_5
 10
136.42925
 20
97.7528285466
 30
0.0
 11
131.2909705403
 21
97.7528285466
 31
0.0
 70
   160
  1
<>
 71
     2
 42
-1.0
  3
SLDDIMSTYLE0
100
AcDbAlignedDimension
 13
121.42925
 23
90.8915
 33
0.0
 14
136.42925
 24
101.3915
 34
0.0
100
AcDbRotatedDimension
  0
DIMENSION
  5
FA
330
1F
100
AcDbEntity
  8
0
  6
Continuous
 62
     7
370
    18
100
AcDbDimension
  2
_D_6
 10
146.42925
 20
96.5516708658
 30
0.0
 11
144.8468929376
 21
96.5516708658
 31
0.0
 70
   160
  1
<>
 71
     2
 42
-1.0
  3
SLDDIMSTYLE0
100
AcDbAlignedDimension
 13
141.42925
 23
95.6415
 33
0.0
 14
146.42925
 24
89.3915
 34
0.0
100
AcDbRotatedDimension
  0
SPLINE
  5
104
330
1F
100
AcDbEntity
  8
0
  6
Continuous
 62
     7
370
    25
100
AcDbSpline
210
0.0
220
0.0
230
1.0
 70
     8
 71
     3
 72
    35
 73
    31
 74
     0
 42
0.00000001
 43
0.00000001
 40
0.0
 40
0.0
 40
0.0
 40
0.0
 40
0.0016355960873704
 40
0.0389385961616936
 40
0.0762729699796546
 40
0.1136741255398768
 40
0.151171607629145
 40
0.1887870709724886
 40
0.2265332560390183
 40
0.2644140184917524
 40
0.302425293112344
 40
0.3405567327196692
 40
0.3787936861335739
 40
0.4171191828105861
 40
0.4555156643662829
 40
0.4939663125055083
 40
0.532455931712871
 40
0.5709714267883871
 40
0.6095019602550594
 40
0.6480388870901634
 40
0.6865738204338426
 40
0.7251022722640991
 40
0.7636211901316522
 40
0.8021286136064802
 40
0.8406234451784516
 40
0.8791052568679374
 40
0.9175741317496916
 40
0.9560305370660545
 40
0.9944752245630347
 40
1.0
 40
1.0
 40
1.0
 40
1.0
 10
132.2938521381183
 20
41.96678991130104
 30
0.0
 10
132.2883394050826
 20
41.96965325956442
 30
0.0
 10
132.1570979041514
 20
42.0378209218369
 30
0.0
 10
131.8861532543557
 20
42.14539462225234
 30
0.0
 10
131.480941801072
 20
42.2868432343168
 30
0.0
 10
131.0606280394293
 20
42.3963921679117
 30
0.0
 10
130.6281107892932
 20
42.47790344905142
 30
0.0
 10
130.1835255885761
 20
42.53006266095574
 30
0.0
 10
129.7278200653257
 20
42.55297414468419
 30
0.0
 10
129.261807745375
 20
42.54641002951335
 30
0.0
 10
128.7864268108493
 20
42.51030516742442
 30
0.0
 10
128.3026638632709
 20
42.44464452761649
 30
0.0
 10
127.8115596353688
 20
42.34950797290431
 30
0.0
 10
127.3141880009597
 20
42.22506507280229
 30
0.0
 10
126.8116413154286
 20
42.07157621106216
 30
0.0
 10
126.3050162041465
 20
41.88938649399056
 30
0.0
 10
125.7954031671098
 20
41.67891827510199
 30
0.0
 10
125.2838796495207
 20
41.44066279184374
 30
0.0
 10
124.7715062713931
 20
41.17517239094567
 30
0.0
 10
124.2593331591824
 20
40.8830581341367
 30
0.0
 10
123.7483901913931
 20
40.5649810101333
 30
0.0
 10
123.2396885280659
 20
40.2216459563453
 30
0.0
 10
122.7342119042005
 20
39.85379745066645
 30
0.0
 10
122.2329378241633
 20
39.46220496149712
 30
0.0
 10
121.7368009062444
 20
39.04773020867741
 30
0.0
 10
121.246833732024
 20
38.61107093977627
 30
0.0
 10
120.7636421894104
 20
38.15371163168538
 30
0.0
 10
120.2893613744689
 20
37.67437253476187
 30
0.0
 10
119.9541802677296
 20
37.32267066568025
 30
0.0
 10
119.7803890296002
 20
37.12575692655778
 30
0.0
 10
119.7585521114413
 20
37.10101465961812
 30
0.0
  0
SPLINE
  5
105
330
1F
100
AcDbEntity
  8
0
  6
Continuous
 62
     7
370
    25
100
AcDbSpline
210
0.0
220
0.0
230
1.0
 70
     8
 71
     3
 72
    34
 73
    30
 74
     0
 42
0.00000001
 43
0.00000001
 40
0.0
 40
0.0
 40
0.0
 40
0.0
 40
0.004684952868519
 40
0.0432389478760478
 40
0.0818048265915516
 40
0.1203837743449643
 40
0.158976834555676
 40
0.1975848490925742
 40
0.2362083795994406
 40
0.2748476053099564
 40
0.3135021924778815
 40
0.3521711305825942
 40
0.3908525313416637
 40
0.4295433888798619
 40
0.4682392638671707
 40
0.5069316646381338
 40
0.5456117888676292
 40
0.5842685136167203
 40
0.6228882889279652
 40
0.6614552555703541
 40
0.6999516938988116
 40
0.7383589037357141
 40
0.776658571572252
 40
0.8148345937926674
 40
0.8528752004335869
 40
0.8907750927995027
 40
0.9285372171412419
 40
0.9661737908178518
 40
1.0
 40
1.0
 40
1.0
 40
1.0
 10
114.2588581971838
 20
27.57455850447089
 30
0.0
 10
114.249963552804
 20
27.54810943450782
 30
0.0
 10
114.1678719980951
 20
27.30400239872787
 30
0.0
 10
114.0321874753678
 20
26.84272678727121
 30
0.0
 10
113.8537505675535
 20
26.19232563067249
 30
0.0
 10
113.6988643376847
 20
25.54515925388493
 30
0.0
 10
113.5652555207964
 20
24.9024275811732
 30
0.0
 10
113.4539335532235
 20
24.26538523016917
 30
0.0
 10
113.3649815001757
 20
23.63526023987134
 30
0.0
 10
113.2986843194164
 20
23.01327445817895
 30
0.0
 10
113.2552260994145
 20
22.40063716459369
 30
0.0
 10
113.2347707025544
 20
21.79854641622203
 30
0.0
 10
113.237439168901
 20
21.20818890004492
 30
0.0
 10
113.2633141066749
 20
20.63074094026398
 30
0.0
 10
113.3124348460992
 20
20.06738090637366
 30
0.0
 10
113.3847929673845
 20
19.51928067266077
 30
0.0
 10
113.4803268382943
 20
18.98760573070557
 30
0.0
 10
113.598917998761
 20
18.47350444867106
 30
0.0
 10
113.7403832275175
 20
17.97811418772276
 30
0.0
 10
113.9044666978349
 20
17.5025559509275
 30
0.0
 10
114.0908329811102
 20
17.04792627340401
 30
0.0
 10
114.29906038827
 20
16.61528295484348
 30
0.0
 10
114.5286437254107
 20
16.20563653302769
 30
0.0
 10
114.7789809708435
 20
15.8199062859416
 30
0.0
 10
115.0494459948769
 20
15.45900164957259
 30
0.0
 10
115.3391721578509
 20
15.12344393595507
 30
0.0
 10
115.6479376256991
 20
14.81471500516117
 30
0.0
 10
115.9623125286455
 20
14.53956488451479
 30
0.0
 10
116.1823488365698
 20
14.3809697807159
 30
0.0
 10
116.2865008704225
 20
14.3059003397879
 30
0.0
  0
LINE
  5
106
330
1F
100
AcDbEntity
  8
0
  6
Continuous
 62
     7
370
    25
100
AcDbLine
 10
135.5248473294
 20
40.1233534067
 30
0.0
 11
132.6964202046
 21
41.7561696304
 31
0.0
  0
LINE
  5
107
330
1F
100
AcDbEntity
  8
0
  6
Continuous
 62
     7
370
    25
100
AcDbLine
 10
116.6977204825
 20
14.0426060342
 30
0.0
 11
119.5261476072
 21
12.4097898105
 31
0.0
  0
SPLINE
  5
108
330
1F
100
AcDbEntity
  8
0
  6
Continuous
 62
     7
370
    25
100
AcDbSpline
210
0.0
220
0.0
230
1.0
 70
     8
 71
     3
 72
    24
 73
    20
 74
     0
 42
0.00000001
 43
0.00000001
 40
0.0
 40
0.0
 40
0.0
 40
0.0
 40
0.0469325844802071
 40
0.1061250638937
 40
0.1654149013769605
 40
0.2248507062385194
 40
0.2844689932946832
 40
0.3442922891872944
 40
0.4043289151979053
 40
0.4645742994925177
 40
0.5250134376111963
 40
0.5856239796202736
 40
0.6463794075543758
 40
0.7072518670592943
 40
0.7682143852178162
 40
0.829242382755984
 40
0.8903145271284034
 40
0.9514130536679158
 40
1.0
 40
1.0
 40
1.0
 40
1.0
 10
119.9638229840395
 20
12.1847721875648
 30
0.0
 10
120.0662406852323
 20
12.1379185510538
 30
0.0
 10
120.2978300000616
 20
12.03197200616497
 30
0.0
 10
120.6756035961735
 20
11.90069164795718
 30
0.0
 10
121.0930826359347
 20
11.78513083614394
 30
0.0
 10
121.5237956782291
 20
11.69930316262358
 30
0.0
 10
121.966451389546
 20
11.6423281809862
 30
0.0
 10
122.4204255611216
 20
11.61469781413512
 30
0.0
 10
122.8848318064643
 20
11.61648904854329
 30
0.0
 10
123.3587656878344
 20
11.64782098073725
 30
0.0
 10
123.8412439236372
 20
11.70871064378701
 30
0.0
 10
124.3312345203772
 20
11.79909508959265
 30
0.0
 10
124.8276674607506
 20
11.91882165946393
 30
0.0
 10
125.3294528472453
 20
12.06763361890301
 30
0.0
 10
125.8354923690823
 20
12.24523971360432
 30
0.0
 10
126.3446997777863
 20
12.45107739394565
 30
0.0
 10
126.8559735360202
 20
12.6852344400165
 30
0.0
 10
127.3333213806177
 20
12.9272917285491
 30
0.0
 10
127.6397428345406
 20
13.10045786485399
 30
0.0
 10
127.7754771514649
 20
13.17716459320105
 30
0.0
  0
SPLINE
  5
109
330
1F
100
AcDbEntity
  8
0
  6
Continuous
 62
     7
370
    25
100
AcDbSpline
210
0.0
220
0.0
230
1.0
 70
     8
 71
     3
 72
    59
 73
    55
 74
     0
 42
0.00000001
 43
0.00000001
 40
0.0
 40
0.0
 40
0.0
 40
0.0
 40
0.0103259327435492
 40
0.0298825674623267
 40
0.0494348730967776
 40
0.0689821453308691
 40
0.0885234673956678
 40
0.1080583433582735
 40
0.1275866029128849
 40
0.1471083236796219
 40
0.1666237691978271
 40
0.1861333403607924
 40
0.2056375380044796
 40
0.2251369345402583
 40
0.2446321527900929
 40
0.2641238504716741
 40
0.2836127090532523
 40
0.3030994259355194
 40
0.3225847091148342
 40
0.3420692736379043
 40
0.3615538392753156
 40
0.3810389722456656
 40
0.4005253133557751
 40
0.4200135884231783
 40
0.4395045223622279
 40
0.4589988365122967
 40
0.4784972445790956
 40
0.4980004465583873
 40
0.5175091198907186
 40
0.5370239069204739
 40
0.5565453975131577
 40
0.5760741054221747
 40
0.5956104366979648
 40
0.6151546481186847
 40
0.6347067933364107
 40
0.6542666542561723
 40
0.6738336552347617
 40
0.6934067582215417
 40
0.7129843382914326
 40
0.7325638445621708
 40
0.7521409487051842
 40
0.7717110140449217
 40
0.7912682154783237
 40
0.8108055004529016
 40
0.8303146718452526
 40
0.8497866472050754
 40
0.8692119427468219
 40
0.8885814049464285
 40
0.9078871647606603
 40
0.9271237247612476
 40
0.9462890246299757
 40
0.9653852899934846
 40
0.9844194749978061
 40
1.0
 40
1.0
 40
1.0
 40
1.0
 10
127.7754771514649
 20
13.17716459320105
 30
0.0
 10
127.8655526361492
 20
13.22991272959138
 30
0.0
 10
128.126225140477
 20
13.38256235295646
 30
0.0
 10
128.5565082212208
 20
13.65496020542382
 30
0.0
 10
129.0647675717512
 20
14.00202722966677
 30
0.0
 10
129.5696290500457
 20
14.37384090692745
 30
0.0
 10
130.0701392602169
 20
14.76916375459028
 30
0.0
 10
130.5653397719723
 20
15.18729230868211
 30
0.0
 10
131.0542881950153
 20
15.62733162114763
 30
0.0
 10
131.5360544549968
 20
16.08839201870074
 30
0.0
 10
132.0097224477661
 20
16.56953765514354
 30
0.0
 10
132.4743906474711
 20
17.06980162311672
 30
0.0
 10
132.9291733089003
 20
17.58818338422178
 30
0.0
 10
133.3732017481052
 20
18.12365111112947
 30
0.0
 10
133.805625770662
 20
18.67514290428359
 30
0.0
 10
134.2256151694725
 20
19.24156850095698
 30
0.0
 10
134.6323612627372
 20
19.8218110358759
 30
0.0
 10
135.02507843804
 20
20.41472895874303
 30
0.0
 10
135.4030056769667
 20
21.01915806462359
 30
0.0
 10
135.7654080382182
 20
21.63391363099458
 30
0.0
 10
136.1115771537128
 20
22.25779097273961
 30
0.0
 10
136.440833235825
 20
22.88956841136074
 30
0.0
 10
136.7525269537584
 20
23.52801055338104
 30
0.0
 10
137.0460413394348
 20
24.17187250478712
 30
0.0
 10
137.3207922749955
 20
24.81990158918659
 30
0.0
 10
137.5762289536574
 20
25.47083887231434
 30
0.0
 10
137.8118346919215
 20
26.12342157810961
 30
0.0
 10
138.027127614816
 20
26.77638546194491
 30
0.0
 10
138.2216612123623
 20
27.42846711149577
 30
0.0
 10
138.3950247696647
 20
28.07840614144989
 30
0.0
 10
138.5468436788079
 20
28.72494724299294
 30
0.0
 10
138.6767796489683
 20
29.36684204331526
 30
0.0
 10
138.7845308426116
 20
30.00285072474023
 30
0.0
 10
138.8698319813554
 20
30.63174334847768
 30
0.0
 10
138.9324544860178
 20
31.25230082612055
 30
0.0
 10
138.9722067423702
 20
31.86331548553179
 30
0.0
 10
138.9889346173512
 20
32.46359119071253
 30
0.0
 10
138.9825223886651
 20
33.05194300346334
 30
0.0
 10
138.9528943896236
 20
33.62719449508585
 30
0.0
 10
138.9000186391451
 20
34.18816840235638
 30
0.0
 10
138.8239117714317
 20
34.73369385900769
 30
0.0
 10
138.724644209082
 20
35.26260793061984
 30
0.0
 10
138.6023443660423
 20
35.77376380069744
 30
0.0
 10
138.4572066476952
 20
36.26602629295262
 30
0.0
 10
138.2894993233147
 20
36.7382777572095
 30
0.0
 10
138.0995712661358
 20
37.18942667721811
 30
0.0
 10
137.8878583703543
 20
37.61842288746745
 30
0.0
 10
137.6548792045128
 20
38.02426517714296
 30
0.0
 10
137.4012504377673
 20
38.40605039413818
 30
0.0
 10
137.1276015591836
 20
38.76287304260714
 30
0.0
 10
136.8348329942051
 20
39.09427171355786
 30
0.0
 10
136.5230719860207
 20
39.39862278023296
 30
0.0
 10
136.2149675281051
 20
39.66240638339823
 30
0.0
 10
136.0027364206209
 20
39.81173585961429
 30
0.0
 10
135.9072084766982
 20
39.8789509724178
 30
0.0
  0
SPLINE
  5
10A
330
1F
100
AcDbEntity
  8
0
  6
Continuous
 62
     7
370
    25
100
AcDbSpline
210
0.0
220
0.0
230
1.0
 70
     8
 71
     3
 72
    49
 73
    45
 74
     0
 42
0.00000001
 43
0.00000001
 40
0.0
 40
0.0
 40
0.0
 40
0.0
 40
0.0071289985196582
 40
0.030058485457575
 40
0.052983592630723
 40
0.0760255363646151
 40
0.0992958197025556
 40
0.1228705421127125
 40
0.1467810825666691
 40
0.1710132379339009
 40
0.1955163500298457
 40
0.2202198150822501
 40
0.2450507205065289
 40
0.269946625681746
 40
0.2948569696043162
 40
0.3197490890573746
 40
0.3446096533831388
 40
0.3694337202637996
 40
0.394221823615481
 40
0.4189778781173948
 40
0.4437077920472178
 40
0.4684186035983394
 40
0.4931179725172044
 40
0.5178138980678858
 40
0.5425140527405271
 40
0.5672245096116463
 40
0.5919536222869684
 40
0.6167097014117008
 40
0.6415008261818634
 40
0.6663344896434489
 40
0.6912169644235822
 40
0.7161522310814757
 40
0.7411402620767639
 40
0.7661744340489934
 40
0.7912379320232401
 40
0.8162855736845598
 40
0.8412605019397518
 40
0.8660874960235109
 40
0.8906806957264187
 40
0.9149609848213615
 40
0.9388784845495458
 40
0.9624308023561321
 40
0.9856687724945767
 40
1.0
 40
1.0
 40
1.0
 40
1.0
 10
116.8491436347698
 20
38.77657638219804
 30
0.0
 10
116.8261438641767
 20
38.79115961541445
 30
0.0
 10
116.7291683538026
 20
38.852647901932
 30
0.0
 10
116.5421492140674
 20
38.93287753708582
 30
0.0
 10
116.2906228129179
 20
39.01572343016915
 30
0.0
 10
116.0263547342702
 20
39.06752860014516
 30
0.0
 10
115.7518505690278
 20
39.09067026231769
 30
0.0
 10
115.4676864528591
 20
39.08419580622111
 30
0.0
 10
115.1751636688399
 20
39.04800663146777
 30
0.0
 10
114.8757546830403
 20
38.98189825036644
 30
0.0
 10
114.5712880214547
 20
38.88601198766788
 30
0.0
 10
114.2638050826404
 20
38.76083824303429
 30
0.0
 10
113.9554312209408
 20
38.60723872443691
 30
0.0
 10
113.6482609961379
 20
38.42638394465906
 30
0.0
 10
113.3442746412775
 20
38.21966867084956
 30
0.0
 10
113.0452896152013
 20
37.98861993311521
 30
0.0
 10
112.7529625111046
 20
37.73482862065687
 30
0.0
 10
112.4688286746792
 20
37.45992585708101
 30
0.0
 10
112.1943539317926
 20
37.16559947608326
 30
0.0
 10
111.9309478035134
 20
36.85359445387413
 30
0.0
 10
111.6799690909005
 20
36.52571332718046
 30
0.0
 10
111.4427259747096
 20
36.18381459893414
 30
0.0
 10
111.2204727849032
 20
35.82980857158356
 30
0.0
 10
111.0144066093524
 20
35.46565330552585
 30
0.0
 10
110.8256658136852
 20
35.09335496792988
 30
0.0
 10
110.6553171546716
 20
34.71494730343399
 30
0.0
 10
110.5043510221561
 20
34.33247711933106
 30
0.0
 10
110.3736779699141
 20
33.94798394649728
 30
0.0
 10
110.2641347745625
 20
33.56350169578614
 30
0.0
 10
110.1764868749704
 20
33.1810515552343
 30
0.0
 10
110.1114324901778
 20
32.80263908020877
 30
0.0
 10
110.0696072731346
 20
32.43025782935538
 30
0.0
 10
110.0515869313806
 20
32.06590221140623
 30
0.0
 10
110.0578831166116
 20
31.71159201565501
 30
0.0
 10
110.0889189797017
 20
31.36947096844674
 30
0.0
 10
110.1449664793822
 20
31.04180499150561
 30
0.0
 10
110.2260560539014
 20
30.73099049676941
 30
0.0
 10
110.3318984004419
 20
30.43948206259387
 30
0.0
 10
110.4617580794176
 20
30.16966987839361
 30
0.0
 10
110.6145247387657
 20
29.92389914098023
 30
0.0
 10
110.7883669850441
 20
29.70360027062199
 30
0.0
 10
110.9823568280276
 20
29.51168214730085
 30
0.0
 10
111.1652858996917
 20
29.36429701904226
 30
0.0
 10
111.2897398961462
 20
29.29281784065811
 30
0.0
 10
111.3372143871922
 20
29.26555123845291
 30
0.0
  0
LINE
  5
10B
330
1F
100
AcDbEntity
  8
0
  6
Continuous
 62
     7
370
    25
100
AcDbLine
 10
126.7397400771
 20
33.0708606313
 30
0.0
 11
116.8402451405
 21
38.785717414
 31
0.0
  0
LINE
  5
10C
330
1F
100
AcDbEntity
  8
0
  6
Continuous
 62
     7
370
    25
100
AcDbLine
 10
111.340692111
 20
29.2591799278
 30
0.0
 11
121.2401870476
 21
23.5443231451
 31
0.0
  0
SPLINE
  5
10D
330
1F
100
AcDbEntity
  8
0
  6
Continuous
 62
     7
370
    25
100
AcDbSpline
210
0.0
220
0.0
230
1.0
 70
     8
 71
     3
 72
    33
 73
    29
 74
     0
 42
0.00000001
 43
0.00000001
 40
0.0
 40
0.0
 40
0.0
 40
0.0
 40
0.0332728934463452
 40
0.0755675187587289
 40
0.1139482669606426
 40
0.1504738374352677
 40
0.1892724855995574
 40
0.2273568502929756
 40
0.2653775261244933
 40
0.30358708135143
 40
0.342125115611929
 40
0.3810055168000105
 40
0.4201828775281037
 40
0.4595849513149631
 40
0.4991284712052599
 40
0.5387263207769049
 40
0.5782758395557395
 40
0.617674011690448
 40
0.6568343886331399
 40
0.6956766147267066
 40
0.7341367133124101
 40
0.7721881773347363
 40
0.8098815256901907
 40
0.8474150620218158
 40
0.8851130354897399
 40
0.923715144126163
 40
0.9647964726908506
 40
1.0
 40
1.0
 40
1.0
 40
1.0
 10
131.2289090800529
 20
32.67787531613892
 30
0.0
 10
131.2421306070954
 20
32.67035284360335
 30
0.0
 10
131.2721585935229
 20
32.65326822830347
 30
0.0
 10
131.3145528900997
 20
32.60643940947331
 30
0.0
 10
131.3595053514312
 20
32.53491975380055
 30
0.0
 10
131.3988779786285
 20
32.43828139194059
 30
0.0
 10
131.4291086214461
 20
32.31514056032098
 30
0.0
 10
131.4457075693474
 20
32.16547316219062
 30
0.0
 10
131.4455571792699
 20
31.99621176809865
 30
0.0
 10
131.4270994303796
 20
31.81026478509578
 30
0.0
 10
131.3893831191664
 20
31.61116884622416
 30
0.0
 10
131.3320824866269
 20
31.40282905017608
 30
0.0
 10
131.2555338607707
 20
31.18949217376871
 30
0.0
 10
131.1607058254651
 20
30.97555040238077
 30
0.0
 10
131.0491486862738
 20
30.7653923526254
 30
0.0
 10
130.9229557068349
 20
30.56330852642735
 30
0.0
 10
130.7847226868523
 20
30.37338229291963
 30
0.0
 10
130.6374886483196
 20
30.19935458320592
 30
0.0
 10
130.4846661301922
 20
30.04449533062204
 30
0.0
 10
130.3299858539711
 20
29.91149226868108
 30
0.0
 10
130.1774485098842
 20
29.80232855702081
 30
0.0
 10
130.0312221162788
 20
29.71811157689327
 30
0.0
 10
129.8954528937419
 20
29.65886221015936
 30
0.0
 10
129.7741459380074
 20
29.62342725859134
 30
0.0
 10
129.6704646152564
 20
29.60906845171505
 30
0.0
 10
129.5861020742673
 20
29.61231516888137
 30
0.0
 10
129.5239651225109
 20
29.62598241703033
 30
0.0
 10
129.4935757722946
 20
29.64309509592481
 30
0.0
 10
129.4795518574822
 20
29.65099216346061
 30
0.0
  0
SPLINE
  5
10E
330
1F
100
AcDbEntity
  8
0
  6
Continuous
 62
     7
370
    25
100
AcDbSpline
210
0.0
220
0.0
230
1.0
 70
     8
 71
     3
 72
    33
 73
    29
 74
     0
 42
0.00000001
 43
0.00000001
 40
0.0
 40
0.0
 40
0.0
 40
0.0
 40
0.0359087893048378
 40
0.0780135592509272
 40
0.1163117320967671
 40
0.1528068513338763
 40
0.1915716866832581
 40
0.2296550820068594
 40
0.2676851589251358
 40
0.3059114019875908
 40
0.3444680205225655
 40
0.3833663381151229
 40
0.4225597463574625
 40
0.4619754693823592
 40
0.5015300292811395
 40
0.5411362322364551
 40
0.5806904837039728
 40
0.6200906661099054
 40
0.6592504148352346
 40
0.6980896664083192
 40
0.7365451959144494
 40
0.7745921458146472
 40
0.8122843232225582
 40
0.849826225203617
 40
0.8875453668478619
 40
0.9262023100316504
 40
0.9674082360324
 40
0.9999999999999999
 40
0.9999999999999999
 40
0.9999999999999999
 40
0.9999999999999999
 10
125.5708321939301
 20
22.88077830410773
 30
0.0
 10
125.5850464669971
 20
22.8725980762967
 30
0.0
 10
125.6159276539038
 20
22.85482614080745
 30
0.0
 10
125.6593083250764
 20
22.80641668804384
 30
0.0
 10
125.7040640195426
 20
22.73414353404029
 30
0.0
 10
125.7431602793548
 20
22.63675858936537
 30
0.0
 10
125.7729952564759
 20
22.51289462493396
 30
0.0
 10
125.789107177076
 20
22.36259679838171
 30
0.0
 10
125.7884151173915
 20
22.19277760133448
 30
0.0
 10
125.7693777236701
 20
22.0063742575725
 30
0.0
 10
125.7310619999456
 20
21.80693430906335
 30
0.0
 10
125.6731624904642
 20
21.59837687812138
 30
0.0
 10
125.5960355301764
 20
21.38495581264016
 30
0.0
 10
125.5006683556074
 20
21.17106522233761
 30
0.0
 10
125.3886282513525
 20
20.96109160916883
 30
0.0
 10
125.2620248635016
 20
20.75932153401659
 30
0.0
 10
125.1234683454487
 20
20.56982949112117
 30
0.0
 10
124.9760105220592
 20
20.39634414692958
 30
0.0
 10
124.8230739554506
 20
20.24211868817867
 30
0.0
 10
124.6683987868437
 20
20.10982158406442
 30
0.0
 10
124.5159925569217
 20
20.00141170691553
 30
0.0
 10
124.3700262612881
 20
19.91796671647264
 30
0.0
 10
124.2346406816341
 20
19.85947027964482
 30
0.0
 10
124.1138354257454
 20
19.82473390731516
 30
0.0
 10
124.0107234485459
 20
19.81095869946594
 30
0.0
 10
123.9269676845086
 20
19.81470324611524
 30
0.0
 10
123.8666201883354
 20
19.82822199501608
 30
0.0
 10
123.8373171210889
 20
19.84495871737843
 30
0.0
 10
123.8243758128767
 20
19.85235026723669
 30
0.0
  0
SPLINE
  5
10F
330
1F
100
AcDbEntity
  8
0
  6
Continuous
 62
     7
370
    25
100
AcDbSpline
210
0.0
220
0.0
230
1.0
 70
     8
 71
     3
 72
    22
 73
    18
 74
     0
 42
0.00000001
 43
0.00000001
 40
0.0
 40
0.0
 40
0.0
 40
0.0
 40
0.0278760814919541
 40
0.1156865288859932
 40
0.1908316234226387
 40
0.2611582303265557
 40
0.3359295670584228
 40
0.4084555943261413
 40
0.4805516635116377
 40
0.552835428249883
 40
0.6256839264521303
 40
0.6991898760599177
 40
0.773298206890663
 40
0.8478855764485137
 40
0.922799399974597
 40
0.9978761824466247
 40
1.0
 40
1.0
 40
1.0
 40
1.0
 10
125.5697648742431
 20
35.9464253972954
 30
0.0
 10
125.5759835851948
 20
35.9434926491776
 30
0.0
 10
125.6017914120356
 20
35.93132166130243
 30
0.0
 10
125.6376475673359
 20
35.89667688887136
 30
0.0
 10
125.6854090386488
 20
35.83303786230571
 30
0.0
 10
125.7277984905483
 20
35.74525824617307
 30
0.0
 10
125.7625167958236
 20
35.63067899457516
 30
0.0
 10
125.7847018565896
 20
35.48851718748161
 30
0.0
 10
125.7907990242578
 20
35.32600048574692
 30
0.0
 10
125.7790793009385
 20
35.14566397174183
 30
0.0
 10
125.7483690629954
 20
34.95088663734678
 30
0.0
 10
125.6981420395819
 20
34.74538067843287
 30
0.0
 10
125.6283691989494
 20
34.5334200048282
 30
0.0
 10
125.540280887892
 20
34.31889459464826
 30
0.0
 10
125.4334025900578
 20
34.10797251847694
 30
0.0
 10
125.3543612046227
 20
33.9663062794117
 30
0.0
 10
125.3083921957171
 20
33.89972198620189
 30
0.0
 10
125.3071275709863
 20
33.89789022724339
 30
0.0
  0
SPLINE
  5
110
330
1F
100
AcDbEntity
  8
0
  6
Continuous
 62
     7
370
    25
100
AcDbSpline
210
0.0
220
0.0
230
1.0
 70
     8
 71
     3
 72
    22
 73
    18
 74
     0
 42
0.00000001
 43
0.00000001
 40
0.0
 40
0.0
 40
0.0
 40
0.0
 40
0.0037011109969599
 40
0.0787852595154912
 40
0.1539060177511961
 40
0.2288462673676947
 40
0.3034334163848555
 40
0.3775066077043679
 40
0.4509225196317845
 40
0.5235817143998489
 40
0.5954804447851116
 40
0.6668055755030127
 40
0.7380616804883006
 40
0.8100291875949616
 40
0.8846521974603121
 40
0.9659555178345832
 40
1.0
 40
1.0
 40
1.0
 40
1.0
 10
119.8070126262128
 20
24.3716771278395
 30
0.0
 10
119.8053462376988
 20
24.36817478786161
 30
0.0
 10
119.7698739560952
 20
24.29362075143944
 30
0.0
 10
119.6856947069649
 20
24.15285326762923
 30
0.0
 10
119.5558327639706
 20
23.95470562173192
 30
0.0
 10
119.4132378171753
 20
23.77079068315535
 30
0.0
 10
119.2634572361373
 20
23.60399990319212
 30
0.0
 10
119.1094041085831
 20
23.4575596111412
 30
0.0
 10
118.9550925489269
 20
23.33384838407346
 30
0.0
 10
118.8045605633415
 20
23.23453418076488
 30
0.0
 10
118.6620103336074
 20
23.16032037319447
 30
0.0
 10
118.5315237184806
 20
23.11074372061519
 30
0.0
 10
118.4169419641799
 20
23.0841579855886
 30
0.0
 10
118.3208024123726
 20
23.07707393737826
 30
0.0
 10
118.2438334305874
 20
23.08644199160254
 30
0.0
 10
118.1954630729452
 20
23.09994222162823
 30
0.0
 10
118.1721231496926
 20
23.11612285930508
 30
0.0
 10
118.165234456684
 20
23.12089851535302
 30
0.0
  0
ARC
  5
111
330
1F
100
AcDbEntity
  8
0
  6
Continuous
 62
     7
370
    25
100
AcDbCircle
 10
119.3685169332
 20
18.6690655778
 30
0.0
 40
5.342023944783582
100
AcDbArc
 50
235.0711161617
 51
244.8984537901
  0
ARC
  5
112
330
1F
100
AcDbEntity
  8
0
  6
Continuous
 62
     7
370
    25
100
AcDbCircle
 10
130.0255632277
 20
37.1296014182
 30
0.0
 40
5.342146253587668
100
AcDbArc
 50
55.2993965118
 51
64.5914083383
  0
LWPOLYLINE
  5
113
330
1F
100
AcDbEntity
  8
0
  6
Continuous
 62
     7
370
    25
100
AcDbPolyline
 90
        3
 70
   128
 43
0.0
 10
135.8859579055
 20
39.8951591157
 10
135.8492633294
 20
39.9202280684
 10
135.5248473294
 20
40.1233534067
  0
LWPOLYLINE
  5
114
330
1F
100
AcDbEntity
  8
0
  6
Continuous
 62
     7
370
    25
100
AcDbPolyline
 90
        3
 70
   128
 43
0.0
 10
119.5261476072
 20
12.4097898105
 10
119.7651600661
 20
12.279819127
 10
119.937090724
 20
12.1957649893
  0
LWPOLYLINE
  5
115
330
1F
100
AcDbEntity
  8
0
  6
Continuous
 62
     7
370
    25
100
AcDbPolyline
 90
       44
 70
   128
 43
0.0
 10
128.5392013304
 20
31.2524957314
 10
128.6308597834
 20
31.5135849076
 10
128.7446471862
 20
31.7723398165
 10
128.87872493
 20
32.0245794238
 10
129.030926549
 20
32.2662279711
 10
129.1987927269
 20
32.4933808333
 10
129.3796110346
 20
32.7023676107
 10
129.5704597593
 20
32.8898114364
 10
129.7682551138
 20
33.0526835405
 10
129.9698010652
 20
33.1883521896
 10
130.1718409774
 20
33.2946252119
 10
130.3711102329
 20
33.3697854179
 10
130.5643889831
 20
33.4126183479
 10
130.7485541757
 20
33.4224318955
 10
130.9206300179
 20
33.3990674906
 10
131.0778360599
 20
33.3429026617
 10
131.2176321224
 20
33.254844936
 10
131.3377593414
 20
33.1363171749
 10
131.4362766675
 20
32.9892345833
 10
131.5115922302
 20
32.8159737628
 10
131.5624890594
 20
32.6193343105
 10
131.5881447499
 20
32.4024935819
 10
131.5881447499
 20
32.1689553502
 10
131.5624890594
 20
31.9224931918
 10
131.5115922302
 20
31.6670895113
 10
131.4362766675
 20
31.4068711931
 10
131.3377593414
 20
31.1460429179
 10
131.2176321224
 20
30.888819222
 10
131.0778360599
 20
30.6393563982
 10
130.9206300179
 20
30.4016853367
 10
130.7485541757
 20
30.1796463933
 10
130.5643889831
 20
29.9768273354
 10
130.3711102329
 20
29.7965053705
 10
130.1718409774
 20
29.6415941913
 10
129.9698010652
 20
29.5145968962
 10
129.7682551138
 20
29.4175655431
 10
129.5704597593
 20
29.3520679918
 10
129.3796110346
 20
29.3191625702
 10
129.1987927269
 20
29.3193809733
 10
129.030926549
 20
29.3527196721
 10
128.87872493
 20
29.4186399704
 10
128.7446471862
 20
29.5160767097
 10
128.6308597834
 20
29.6434554798
 10
128.5392013304
 20
29.7987180588
  0
LWPOLYLINE
  5
116
330
1F
100
AcDbEntity
  8
0
  6
Continuous
 62
     7
370
    25
100
AcDbPolyline
 90
       44
 70
   128
 43
0.0
 10
124.9729870515
 20
23.6218537552
 10
125.1532628841
 20
23.6200809797
 10
125.3204546147
 20
23.5852012185
 10
125.4718607124
 20
23.5177780684
 10
125.605034715
 20
23.4189009717
 10
125.7178247596
 20
23.2901676122
 10
125.808408353
 20
23.1336580998
 10
125.8753218201
 20
22.9519013589
 10
125.9174839543
 20
22.7478342661
 10
125.934213488
 20
22.5247541947
 10
125.9252401008
 20
22.286265735
 10
125.890708787
 20
22.0362224506
 10
125.8311775134
 20
21.778664611
 10
125.747608203
 20
21.517753908
 10
125.6413511922
 20
21.2577062101
 10
125.5141234116
 20
21.0027234407
 10
125.3679806433
 20
20.7569256833
 10
125.2052843032
 20
20.5242846067
 10
125.0286632844
 20
20.3085592909
 10
124.8409714789
 20
20.1132354861
 10
124.6452416637
 20
19.941469289
 10
124.4446364959
 20
19.7960361462
 10
124.2423974101
 20
19.679286007
 10
124.0417922423
 20
19.5931053532
 10
123.846062427
 20
19.5388867157
 10
123.6583706215
 20
19.5175061747
 10
123.4817496028
 20
19.5293092028
 10
123.3190532627
 20
19.5741050835
 10
123.1729104944
 20
19.6511699923
 10
123.0456827137
 20
19.7592586928
 10
122.9394257029
 20
19.8966246574
 10
122.8558563925
 20
20.0610482884
 10
122.7963251189
 20
20.2498727826
 10
122.7617938052
 20
20.4600470607
 10
122.7528204179
 20
20.688175068
 10
122.7695499516
 20
20.9305706479
 10
122.8117120858
 20
21.1833171047
 10
122.8786255529
 20
21.4423304902
 10
122.9692091463
 20
21.7034255934
 10
123.0819991909
 20
21.9623835665
 10
123.2151731935
 20
22.2150200937
 10
123.3665792912
 20
22.4572530033
 10
123.5337710218
 20
22.6851682278
 10
123.7140468544
 20
22.8950830492
  0
ARC
  5
117
330
1F
100
AcDbEntity
  8
0
  6
Continuous
 62
     7
370
    25
100
AcDbCircle
 10
119.0318096888
 20
31.1699036567
 30
0.0
 40
9.605761071930468
100
AcDbArc
 50
308.2067864109
 51
351.7932134435
  0
LWPOLYLINE
  5
118
330
1F
100
AcDbEntity
  8
0
  6
Continuous
 62
     7
370
    25
100
AcDbPolyline
 90
       75
 70
   128
 43
0.0
 10
113.7369152352
 20
30.1438466395
 10
114.0367494566
 20
30.3316452393
 10
114.3344233655
 20
30.5475067222
 10
114.6277922147
 20
30.7898758013
 10
114.9147422749
 20
31.0570062018
 10
115.1932060642
 20
31.346973243
 10
115.4611772448
 20
31.6576877057
 10
115.716725078
 20
31.9869108852
 10
115.958008336
 20
32.3322707209
 10
116.1832885673
 20
32.6912788872
 10
116.3909426226
 20
33.0613487221
 10
116.5794743499
 20
33.4398138639
 10
116.7475253735
 20
33.8239474627
 10
116.8938848821
 20
34.210981827
 10
117.0174983521
 20
34.5981283654
 10
117.1174751456
 20
34.9825976781
 10
117.1930949274
 20
35.3616196551
 10
117.2438128553
 20
35.7324634343
 10
117.2692635056
 20
36.0924570776
 10
117.2692635056
 20
36.4390068228
 10
117.2438128553
 20
36.7696157709
 10
117.1930949274
 20
37.0819018768
 10
117.1174751456
 20
37.3736151121
 10
117.0174983521
 20
37.6426536762
 10
116.8938848821
 20
37.8870791401
 10
116.7475253735
 20
38.1051304126
 10
116.5794743499
 20
38.2952364294
 10
116.3909426226
 20
38.4560274724
 10
116.1832885673
 20
38.5863450382
 10
115.958008336
 20
38.6852501859
 10
115.716725078
 20
38.7520303017
 10
115.4611772448
 20
38.7862042332
 10
115.1932060642
 20
38.7875257565
 10
114.9147422749
 20
38.75598535
 10
114.6277922147
 20
38.6918102631
 10
114.3344233655
 20
38.5954628786
 10
114.0367494566
 20
38.4676373819
 10
113.7369152352
 20
38.3092547583
 10
113.4370810138
 20
38.1214561585
 10
113.1394071048
 20
37.9055946756
 10
112.8460382556
 20
37.6632255965
 10
112.5590881954
 20
37.396095196
 10
112.2806244061
 20
37.1061281548
 10
112.0126532256
 20
36.7954136921
 10
111.7571053923
 20
36.4661905126
 10
111.5158221343
 20
36.1208306769
 10
111.2905419031
 20
35.7618225106
 10
111.0828878477
 20
35.3917526757
 10
110.8943561205
 20
35.0132875339
 10
110.7263050968
 20
34.6291539351
 10
110.5799455882
 20
34.2421195708
 10
110.4563321182
 20
33.8549730324
 10
110.3563553248
 20
33.4705037196
 10
110.2807355429
 20
33.0914817427
 10
110.230017615
 20
32.7206379635
 10
110.2045669648
 20
32.3606443202
 10
110.2045669648
 20
32.014094575
 10
110.230017615
 20
31.6834856269
 10
110.2807355429
 20
31.371199521
 10
110.3563553248
 20
31.0794862857
 10
110.4563321182
 20
30.8104477216
 10
110.5799455882
 20
30.5660222577
 10
110.7263050968
 20
30.3479709852
 10
110.8943561205
 20
30.1578649683
 10
111.0828878477
 20
29.9970739254
 10
111.2905419031
 20
29.8667563596
 10
111.5158221343
 20
29.7678512119
 10
111.7571053923
 20
29.7010710961
 10
112.0126532256
 20
29.6668971646
 10
112.2806244061
 20
29.6655756413
 10
112.5590881954
 20
29.6971160478
 10
112.8460382556
 20
29.7612911347
 10
113.1394071048
 20
29.8576385191
 10
113.4370810138
 20
29.9854640159
 10
113.7369152352
 20
30.1438466395
  0
LINE
  5
119
330
1F
100
AcDbEntity
  8
0
  6
Continuous
 62
     7
370
    25
100
AcDbLine
 10
116.8402451405
 20
38.785717414
 30
0.0
 11
116.8492528004
 21
38.7804832279
 31
0.0
  0
SPLINE
  5
11A
330
1F
100
AcDbEntity
  8
0
  6
Continuous
 62
     7
370
    25
100
AcDbSpline
210
0.0
220
0.0
230
1.0
 70
    11
 71
     3
 72
    38
 73
    34
 74
     0
 42
0.00000001
 43
0.00000001
 40
0.0
 40
0.0
 40
0.0
 40
0.0
 40
0.0625
 40
0.0625
 40
0.125
 40
0.125
 40
0.1875
 40
0.1875
 40
0.25
 40
0.25
 40
0.3125
 40
0.3125
 40
0.375
 40
0.375
 40
0.4375
 40
0.4375
 40
0.5
 40
0.5
 40
0.5625
 40
0.5625
 40
0.625
 40
0.625
 40
0.6875
 40
0.6875
 40
0.75
 40
0.75
 40
0.8125
 40
0.8125
 40
0.875
 40
0.875
 40
0.9375
 40
0.9375
 40
1.0
 40
1.0
 40
1.0
 40
1.0
 10
119.7473228752538
 20
27.15710468682351
 30
0.0
 10
119.840961600109
 20
27.10304820158924
 30
0.0
 10
119.9143260021131
 20
27.03523734831215
 30
0.0
 10
120.0144395844459
 20
26.88143678279072
 30
0.0
 10
120.0402311353911
 20
26.79612127044748
 30
0.0
 10
120.0402010393769
 20
26.62635984889409
 30
0.0
 10
120.0141207399382
 20
26.54077753844216
 30
0.0
 10
119.9146359635715
 20
26.38811209729394
 30
0.0
 10
119.8401241728297
 20
26.31948837064483
 30
0.0
 10
119.6553442460364
 20
26.21267038893119
 30
0.0
 10
119.5442324567738
 20
26.17369882334276
 30
0.0
 10
119.3017694077089
 20
26.12950928581604
 30
0.0
 10
119.1720385603329
 20
26.12417970605924
 30
0.0
 10
118.9088834053416
 20
26.14384015595401
 30
0.0
 10
118.7791231249407
 20
26.16848007866562
 30
0.0
 10
118.5371770778107
 20
26.24018369108333
 30
0.0
 10
118.4258194258275
 20
26.28721087550797
 30
0.0
 10
118.2409630184076
 20
26.39385689474195
 30
0.0
 10
118.1662954526016
 20
26.45429468565338
 30
0.0
 10
118.0665166014047
 20
26.57941275896738
 30
0.0
 10
118.040336515599
 20
26.64535507538366
 30
0.0
 10
118.0400965198496
 20
26.77635185765521
 30
0.0
 10
118.0656856737519
 20
26.84196313122812
 30
0.0
 10
118.1658201728675
 20
26.96826419995749
 30
0.0
 10
118.2392266620895
 20
27.02798544555772
 30
0.0
 10
118.4259197088792
 20
27.13589491084872
 30
0.0
 10
118.5365672006224
 20
27.18245403508732
 30
0.0
 10
118.7783515339854
 20
27.25405092162427
 30
0.0
 10
118.9094046994311
 20
27.27875682843267
 30
0.0
 10
119.169554739675
 20
27.29833995735278
 30
0.0
 10
119.3010008060469
 20
27.29317691708771
 30
0.0
 10
119.5418166164477
 20
27.24976955680172
 30
0.0
 10
119.6536841503986
 20
27.21116117205778
 30
0.0
 10
119.7473228752538
 20
27.15710468682351
 30
0.0
  0
LINE
  5
11B
330
1F
100
AcDbEntity
  8
0
  6
Continuous
 62
     7
370
    25
100
AcDbLine
 10
111.8660865418
 20
35.5961667184
 30
0.0
 11
115.6077439286
 21
37.7561795507
 31
0.0
  0
LWPOLYLINE
  5
11C
330
1F
100
AcDbEntity
  8
0
  6
Continuous
 62
     7
370
    25
100
AcDbPolyline
 90
       52
 70
   128
 43
0.0
 10
111.8660865418
 20
35.5961667184
 10
111.6735761203
 20
35.2694014883
 10
111.4996174742
 20
34.9332598385
 10
111.3457746901
 20
34.5907640664
 10
111.2134309907
 20
34.2449936001
 10
111.1037762967
 20
33.899057311
 10
111.0177965292
 20
33.5560655616
 10
110.9562647445
 20
33.2191022393
 10
110.9197341836
 20
32.8911970293
 10
110.9085332979
 20
32.575298174
 10
110.9227627963
 20
32.2742459649
 10
110.9622947393
 20
31.9907472051
 10
111.0267736895
 20
31.7273508723
 10
111.1156199076
 20
31.4864252003
 10
111.2280345645
 20
31.2701363863
 10
111.3630069242
 20
31.0804291135
 10
111.5193234309
 20
30.9190090671
 10
111.6955786207
 20
30.7873275976
 10
111.8901877582
 20
30.6865686719
 10
112.101401085
 20
30.6176382278
 10
112.3273195519
 20
30.5811560286
 10
112.565911894
 20
30.5774500911
 10
112.8150328935
 20
30.6065537359
 10
113.0724426683
 20
30.6682052878
 10
113.3358268103
 20
30.7618504292
 10
113.6028171954
 20
30.8866471831
 10
113.871013275
 20
31.0414734843
 10
114.13800366
 20
31.2249372675
 10
114.4013878021
 20
31.4353889836
 10
114.6587975768
 20
31.6709364315
 10
114.9079185764
 20
31.9294617705
 10
115.1465109184
 20
32.2086405626
 10
115.3724293854
 20
32.5059626715
 10
115.5836427121
 20
32.8187548319
 10
115.7782518496
 20
33.1442046851
 10
115.9545070394
 20
33.4793860651
 10
116.1108235462
 20
33.8212853086
 10
116.2457959058
 20
34.1668283508
 10
116.3582105628
 20
34.5129083651
 10
116.4470567809
 20
34.8564136969
 10
116.5115357311
 20
35.194255841
 10
116.551067674
 20
35.5233972106
 10
116.5652971724
 20
35.8408784489
 10
116.5540962868
 20
36.1438450369
 10
116.5175657258
 20
36.4295729591
 10
116.4560339411
 20
36.6954931949
 10
116.3700541736
 20
36.9392148178
 10
116.2603994797
 20
37.1585464921
 10
116.1280557802
 20
37.3515161754
 10
115.9742129962
 20
37.5163888499
 10
115.80025435
 20
37.651682122
 10
115.6077439286
 20
37.7561795507
  0
LINE
  5
11D
330
1F
100
AcDbEntity
  8
0
  6
Continuous
 62
     7
370
    25
100
AcDbLine
 10
115.8579314884
 20
37.6117493466
 30
0.0
 11
115.6077439286
 21
37.7561795507
 31
0.0
  0
LINE
  5
11E
330
1F
100
AcDbEntity
  8
0
  6
Continuous
 62
     7
370
    25
100
AcDbLine
 10
111.8660865418
 20
35.5961667184
 30
0.0
 11
115.858539613
 21
33.2913726194
 31
0.0
  0
ARC
  5
11F
330
1F
100
AcDbEntity
  8
0
  6
Continuous
 62
     7
370
    25
100
AcDbCircle
 10
128.5436324726
 20
29.8893826562
 30
0.0
 40
1.363120277483462
100
AcDbArc
 50
60.3746420978
 51
90.1862537009
  0
ARC
  5
120
330
1F
100
AcDbEntity
  8
0
  6
Continuous
 62
     7
370
    25
100
AcDbCircle
 10
128.9758920927
 20
29.4144087351
 30
0.0
 40
0.5817151176743777
100
AcDbArc
 50
65.463873273
 51
138.650636535
  0
ARC
  5
121
330
1F
100
AcDbEntity
  8
0
  6
Continuous
 62
     7
370
    25
100
AcDbCircle
 10
125.5240938723
 20
23.4358196747
 30
0.0
 40
0.5816591846447471
100
AcDbArc
 50
161.347145305
 51
234.5405876658
  0
ARC
  5
122
330
1F
100
AcDbEntity
  8
0
  6
Continuous
 62
     7
370
    25
100
AcDbCircle
 10
124.8963865469
 20
23.5724063528
 30
0.0
 40
1.362605594460366
100
AcDbArc
 50
209.8069684535
 51
239.6302396818
  0
SPLINE
  5
123
330
1F
100
AcDbEntity
  8
0
  6
Continuous
 62
     7
370
    25
100
AcDbSpline
210
0.0
220
0.0
230
1.0
 70
     8
 71
     3
 72
    14
 73
    10
 74
     0
 42
0.00000001
 43
0.00000001
 40
0.0
 40
0.0
 40
0.0
 40
0.0
 40
0.2499999999999999
 40
0.2499999999999999
 40
0.4999999999999998
 40
0.4999999999999998
 40
0.7499999999999999
 40
0.7499999999999999
 40
1.0
 40
1.0
 40
1.0
 40
1.0
 10
128.5392013303976
 20
29.79871805877558
 30
0.0
 10
128.5232312264704
 20
29.9097881476747
 30
0.0
 10
128.5096834242064
 20
30.02737130891293
 30
0.0
 10
128.4913784840846
 20
30.26575818859934
 30
0.0
 10
128.486542124294
 20
30.38667528194685
 30
0.0
 10
128.4865428763205
 20
30.62969310390074
 30
0.0
 10
128.4913969046496
 20
30.75186454643266
 30
0.0
 10
128.509702998703
 20
30.99845644729453
 30
0.0
 10
128.5232179466629
 20
31.1228792610624
 30
0.0
 10
128.5392013303976
 20
31.25249573142849
 30
0.0
  0
SPLINE
  5
124
330
1F
100
AcDbEntity
  8
0
  6
Continuous
 62
     7
370
    25
100
AcDbSpline
210
0.0
220
0.0
230
1.0
 70
     8
 71
     3
 72
    14
 73
    10
 74
     0
 42
0.00000001
 43
0.00000001
 40
0.0
 40
0.0
 40
0.0
 40
0.0
 40
0.2499999999999999
 40
0.2499999999999999
 40
0.4999999999999998
 40
0.4999999999999998
 40
0.7499999999999999
 40
0.7499999999999999
 40
1.0
 40
1.0
 40
1.0
 40
1.0
 10
123.7140468544072
 20
22.89508304917286
 30
0.0
 10
123.8182149168064
 20
22.97365967815274
 30
0.0
 10
123.9194444011443
 20
23.04774202617197
 30
0.0
 10
124.1239548686992
 20
23.18694023570132
 30
0.0
 10
124.2270784443292
 20
23.25205668260839
 30
0.0
 10
124.4375268435864
 20
23.37354508916857
 30
0.0
 10
124.5449164805855
 20
23.42993493135032
 30
0.0
 10
124.760383280698
 20
23.53318310496879
 30
0.0
 10
124.8687323690383
 20
23.58012582968916
 30
0.0
 10
124.9729870515263
 20
23.62185375522025
 30
0.0
  0
SPLINE
  5
125
330
1F
100
AcDbEntity
  8
0
  6
Continuous
 62
     7
370
    25
100
AcDbSpline
210
0.0
220
0.0
230
1.0
 70
     8
 71
     3
 72
    14
 73
    10
 74
     0
 42
0.00000001
 43
0.00000001
 40
0.0
 40
0.0
 40
0.0
 40
0.0
 40
0.25
 40
0.25
 40
0.5
 40
0.5
 40
0.75
 40
0.75
 40
1.0
 40
1.0
 40
1.0
 40
1.0
 10
129.2174591370045
 20
31.0743107203805
 30
0.0
 10
129.1838952720921
 20
30.96496621714289
 30
0.0
 10
129.1522780559821
 20
30.86236846615302
 30
0.0
 10
129.1072298759604
 20
30.66057848588088
 30
0.0
 10
129.0940208362668
 20
30.5601541404607
 30
0.0
 10
129.0940474684848
 20
30.3667856712882
 30
0.0
 10
129.1068594039498
 20
30.27341111751849
 30
0.0
 10
129.151881187135
 20
30.09672568930475
 30
0.0
 10
129.1839662423541
 20
30.0140379757272
 30
0.0
 10
129.2174591370045
 20
29.94359475276151
 30
0.0
  0
SPLINE
  5
126
330
1F
100
AcDbEntity
  8
0
  6
Continuous
 62
     7
370
    25
100
AcDbSpline
210
0.0
220
0.0
230
1.0
 70
     8
 71
     3
 72
    14
 73
    10
 74
     0
 42
0.00000001
 43
0.00000001
 40
0.0
 40
0.0
 40
0.0
 40
0.0
 40
0.25
 40
0.25
 40
0.5
 40
0.5
 40
0.75
 40
0.75
 40
1.0
 40
1.0
 40
1.0
 40
1.0
 10
125.1866581979951
 20
22.96204275169028
 30
0.0
 10
125.1087474150808
 20
22.95582412644687
 30
0.0
 10
125.0223985298433
 20
22.94248512144843
 30
0.0
 10
124.8476017594921
 20
22.89359495127284
 30
0.0
 10
124.7582068517482
 20
22.85724083334076
 30
0.0
 10
124.5907574296863
 20
22.76054358726533
 30
0.0
 10
124.5122875056729
 20
22.70044993953539
 30
0.0
 10
124.3594025282368
 20
22.56020395064434
 30
0.0
 10
124.2852285309199
 20
22.48033484011125
 30
0.0
 10
124.2074824891249
 20
22.39677664698673
 30
0.0
  0
LWPOLYLINE
  5
127
330
1F
100
AcDbEntity
  8
0
  6
Continuous
 62
     7
370
    25
100
AcDbPolyline
 90
       76
 70
   128
 43
0.0
 10
124.343516953
 20
15.447107276
 10
124.8690000447
 20
15.7650172505
 10
125.3932745085
 20
16.1113061075
 10
125.9151344963
 20
16.4851773713
 10
126.4333797134
 20
16.8857711262
 10
126.9468181791
 20
17.3121659937
 10
127.4542689686
 20
17.7633812519
 10
127.9545649288
 20
18.2383790912
 10
128.446555363
 20
18.7360670014
 10
128.9291086773
 20
19.2553002844
 10
129.4011149836
 20
19.7948846869
 10
129.8614886525
 20
20.3535791476
 10
130.3091708096
 20
20.9300986513
 10
130.7431317717
 20
21.5231171847
 10
131.1623734146
 20
22.131270786
 10
131.5659314691
 20
22.7531606827
 10
131.9528777388
 20
23.3873565078
 10
132.3223222348
 20
24.0323995909
 10
132.673415223
 20
24.686806312
 10
133.0053491783
 20
25.3490715147
 10
133.3173606419
 20
26.0176719679
 10
133.6087319774
 20
26.6910698691
 10
133.8787930214
 20
27.3677163816
 10
134.1269226249
 20
28.0460551966
 10
134.3525500819
 20
28.7245261132
 10
134.5551564419
 20
29.4015686265
 10
134.7342757039
 20
30.0756255171
 10
134.8894958878
 20
30.7451464324
 10
135.0204599821
 20
31.408591453
 10
135.1268667654
 20
32.064434634
 10
135.2084714985
 20
32.7111675151
 10
135.265086488
 20
33.3473025899
 10
135.2965815176
 20
33.9713767274
 10
135.3028841476
 20
34.5819545371
 10
135.283979882
 20
35.1776316704
 10
135.239912201
 20
35.7570380509
 10
135.1707824617
 20
36.3188410252
 10
135.0767496649
 20
36.8617484286
 10
134.9580300888
 20
37.3845115567
 10
134.8148967924
 20
37.8859280374
 10
134.6476789868
 20
38.3648445968
 10
134.4567612783
 20
38.8201597115
 10
134.2425827837
 20
39.2508261422
 10
134.0056361206
 20
39.6558533421
 10
133.7464662737
 20
40.0343097359
 10
133.4656693421
 20
40.3853248616
 10
133.1638911676
 20
40.7080913732
 10
132.8418258498
 20
41.0018668975
 10
132.5002141493
 20
41.2659757412
 10
132.1398417837
 20
41.4998104456
 10
131.7615376213
 20
41.7028331833
 10
131.3661717735
 20
41.8745769956
 10
130.9546535947
 20
42.0146468662
 10
130.5279295897
 20
42.1227206299
 10
130.0869812375
 20
42.1985497136
 10
129.6328227333
 20
42.2419597079
 10
129.1664986564
 20
42.2528507685
 10
128.689081567
 20
42.2311978456
 10
128.2016695397
 20
42.1770507416
 10
127.7053836379
 20
42.0905339966
 10
127.2013653349
 20
41.9718466018
 10
126.6907738891
 20
41.8212615422
 10
126.1747836771
 20
41.639125168
 10
125.6545814929
 20
41.4258563989
 10
125.1313638183
 20
41.1819457599
 10
124.6063340707
 20
40.9079542531
 10
124.0806998353
 20
40.6045120679
 10
123.5556700876
 20
40.2723171311
 10
123.032452413
 20
39.9121335016
 10
122.5122502289
 20
39.5247896133
 10
121.9962600169
 20
39.1111763695
 10
121.485668571
 20
38.6722450941
 10
120.9816502681
 20
38.2090053429
 10
120.4853643662
 20
37.7225225823
 10
119.9979523389
 20
37.2139157381
 10
119.8470163045
 20
37.049945368
  0
LWPOLYLINE
  5
128
330
1F
100
AcDbEntity
  8
0
  6
Continuous
 62
     7
370
    25
100
AcDbPolyline
 90
       43
 70
   128
 43
0.0
 10
114.347463275
 20
27.5234078818
 10
114.2302726277
 20
27.1436563549
 10
114.0393549192
 20
26.4679123459
 10
113.8721371136
 20
25.7959302177
 10
113.7290038171
 20
25.1292555505
 10
113.6102842411
 20
24.4694217176
 10
113.5162514442
 20
23.8179463578
 10
113.447121705
 20
23.1763278854
 10
113.403054024
 20
22.5460420435
 10
113.3841497583
 20
21.9285385097
 10
113.3904523884
 20
21.3252375618
 10
113.421947418
 20
20.7375268114
 10
113.4785624074
 20
20.1667580121
 10
113.5601671406
 20
19.6142439504
 10
113.6665739238
 20
19.0812554263
 10
113.7975380182
 20
18.5690183305
 10
113.952758202
 20
18.0787108248
 10
114.131877464
 20
17.6114606321
 10
114.334483824
 20
17.1683424428
 10
114.560111281
 20
16.7503754431
 10
114.8082408845
 20
16.3585209703
 10
115.0783019286
 20
15.9936803023
 10
115.3696732641
 20
15.6566925844
 10
115.6816847276
 20
15.3483328991
 10
116.0136186829
 20
15.0693104835
 10
116.3647116711
 20
14.8202670982
 10
116.7341561671
 20
14.6017755509
 10
117.1211024368
 20
14.4143383792
 10
117.5246604914
 20
14.2583866945
 10
117.9439021343
 20
14.1342791908
 10
118.3778630963
 20
14.0423013193
 10
118.8255452534
 20
13.9826646321
 10
119.2859189223
 20
13.9555062954
 10
119.7579252287
 20
13.9608887742
 10
120.240478543
 20
13.9987996888
 10
120.7324689771
 20
14.0691518427
 10
121.2327649373
 20
14.1717834239
 10
121.7402157268
 20
14.3064583762
 10
122.2536541926
 20
14.4728669432
 10
122.7718994096
 20
14.6706263796
 10
123.2937593974
 20
14.8992818325
 10
123.8180338612
 20
15.158307387
 10
124.343516953
 20
15.447107276
  0
ARC
  5
129
330
1F
100
AcDbEntity
  8
0
  6
Continuous
 62
     7
370
    25
100
AcDbCircle
 10
119.9373151903
 20
21.6189762539
 30
0.0
 40
8.287412180668383
100
AcDbArc
 50
249.9959506647
 51
305.0531112644
  0
LWPOLYLINE
  5
12A
330
1F
100
AcDbEntity
  8
0
  6
Continuous
 62
     7
370
    25
100
AcDbPolyline
 90
       50
 70
   128
 43
0.0
 10
133.0667839614
 20
41.5215830944
 10
133.373409697
 20
41.2927883547
 10
133.7066228836
 20
41.0026465036
 10
134.0197322356
 20
40.6832661588
 10
134.3120390835
 20
40.3353599826
 10
134.5828911765
 20
39.9597042898
 10
134.8316841376
 20
39.5571373151
 10
135.0578628125
 20
39.1285573429
 10
135.2609225081
 20
38.6749207026
 10
135.4404101187
 20
38.197239635
 10
135.5959251375
 20
37.6965800334
 10
135.7271205495
 20
37.174059065
 10
135.8337036065
 20
36.6308426785
 10
135.91543648
 20
36.0681430021
 10
135.972136792
 20
35.4872156387
 10
136.003678022
 20
34.8893568644
 10
136.0099897891
 20
34.275900736
 10
135.9910580093
 20
33.648216114
 10
135.9469249268
 20
33.0077036081
 10
135.8776890198
 20
32.3557924522
 10
135.7835047807
 20
31.6939373151
 10
135.6645823712
 20
31.0236150544
 10
135.5211871539
 20
30.346321421
 10
135.3536390995
 20
29.6635677221
 10
135.1623120733
 20
28.9768774479
 10
134.9476330006
 20
28.2877828731
 10
134.7100809144
 20
27.5978216371
 10
134.4501858863
 20
26.9085333132
 10
134.1685278437
 20
26.2214559732
 10
133.8657352759
 20
25.5381227552
 10
133.5424838315
 20
24.860058443
 10
133.1994948109
 20
24.1887760631
 10
132.8375335566
 20
23.5257735089
 10
132.4574077457
 20
22.8725301985
 10
132.0599655877
 20
22.2305037731
 10
131.6460939313
 20
21.6011268447
 10
131.2167162861
 20
20.9858037993
 10
130.7727907614
 20
20.3859076633
 10
130.3153079287
 20
19.8027770395
 10
129.8452886111
 20
19.2377131203
 10
129.3637816055
 20
18.6919767843
 10
128.8718613423
 20
18.1667857826
 10
128.3706254879
 20
17.6633120218
 10
127.8611924956
 20
17.1826789487
 10
127.3446991094
 20
16.7259590436
 10
126.8222978283
 20
16.2941714271
 10
126.2951543336
 20
15.8882795864
 10
125.7644448886
 20
15.5091892248
 10
125.2313537136
 20
15.1577462411
 10
124.6970703436
 20
14.8347348421
  0
LWPOLYLINE
  5
12B
330
1F
100
AcDbEntity
  8
0
  6
Continuous
 62
     7
370
    25
100
AcDbPolyline
 90
       50
 70
   128
 43
0.0
 10
127.5254974683
 20
13.2019186184
 10
128.0597808384
 20
13.5249300175
 10
128.5928720133
 20
13.8763730011
 10
129.1235814583
 20
14.2554633628
 10
129.650724953
 20
14.6613552035
 10
130.1731262342
 20
15.0931428199
 10
130.6896196203
 20
15.5498627251
 10
131.1990526127
 20
16.0304957982
 10
131.700288467
 20
16.533969559
 10
132.1922087303
 20
17.0591605606
 10
132.6737157359
 20
17.6048968966
 10
133.1437350535
 20
18.1699608158
 10
133.6012178861
 20
18.7530914397
 10
134.0451434108
 20
19.3529875757
 10
134.474521056
 20
19.9683106211
 10
134.8883927124
 20
20.5976875495
 10
135.2858348705
 20
21.2397139749
 10
135.6659606813
 20
21.8929572853
 10
136.0279219356
 20
22.5559598394
 10
136.3709109563
 20
23.2272422193
 10
136.6941624007
 20
23.9053065316
 10
136.9969549685
 20
24.5886397495
 10
137.278613011
 20
25.2757170896
 10
137.5385080391
 20
25.9650054135
 10
137.7760601253
 20
26.6549666495
 10
137.990739198
 20
27.3440612243
 10
138.1820662243
 20
28.0307514984
 10
138.3496142787
 20
28.7135051974
 10
138.493009496
 20
29.3907988307
 10
138.6119319054
 20
30.0611210915
 10
138.7061161446
 20
30.7229762286
 10
138.7753520516
 20
31.3748873844
 10
138.8194851341
 20
32.0153998903
 10
138.8384169139
 20
32.6430845124
 10
138.8321051468
 20
33.2565406408
 10
138.8005639168
 20
33.854399415
 10
138.7438636048
 20
34.4353267784
 10
138.6621307313
 20
34.9980264549
 10
138.5555476743
 20
35.5412428414
 10
138.4243522622
 20
36.0637638098
 10
138.2688372435
 20
36.5644234114
 10
138.0893496328
 20
37.042104479
 10
137.8862899372
 20
37.4957411192
 10
137.6601112623
 20
37.9243210914
 10
137.4113183012
 20
38.3268880661
 10
137.1404662083
 20
38.7025437589
 10
136.8481593603
 20
39.0504499351
 10
136.5350500084
 20
39.36983028
 10
136.2018368218
 20
39.659972131
 10
135.8859579055
 20
39.8951591157
  0
ARC
  5
12C
330
1F
100
AcDbEntity
  8
0
  6
Continuous
 62
     7
370
    25
100
AcDbCircle
 10
122.7646754723
 20
19.9890756929
 30
0.0
 40
8.29041176487066
100
AcDbArc
 50
250.0581134366
 51
305.0475738932
  0
ARC
  5
12D
330
1F
100
AcDbEntity
  8
0
  6
Continuous
 62
     7
370
    25
100
AcDbCircle
 10
126.1742937994
 20
31.2103129632
 30
0.0
 40
2.36528370733726
100
AcDbArc
 50
1.0218743378
 51
96.7999186078
  0
LWPOLYLINE
  5
12E
330
1F
100
AcDbEntity
  8
0
  6
Continuous
 62
     7
370
    25
100
AcDbPolyline
 90
       28
 70
   128
 43
0.0
 10
123.1425282958
 20
35.1474867904
 10
123.1729104944
 20
35.2042562797
 10
123.3190532627
 20
35.4500540372
 10
123.4817496028
 20
35.6826951137
 10
123.6583706215
 20
35.8984204295
 10
123.846062427
 20
36.0937442344
 10
124.0417922423
 20
36.2655104314
 10
124.2423974101
 20
36.4109435743
 10
124.4446364959
 20
36.5276937134
 10
124.6452416637
 20
36.6138743673
 10
124.8409714789
 20
36.6680930047
 10
125.0286632844
 20
36.6894735458
 10
125.2052843032
 20
36.6776705176
 10
125.3679806433
 20
36.632874637
 10
125.5141234116
 20
36.5558097282
 10
125.6413511922
 20
36.4477210277
 10
125.747608203
 20
36.310355063
 10
125.8311775134
 20
36.145931432
 10
125.890708787
 20
35.9571069379
 10
125.9252401008
 20
35.7469326597
 10
125.934213488
 20
35.5188046525
 10
125.9174839543
 20
35.2764090726
 10
125.8753218201
 20
35.0236626158
 10
125.808408353
 20
34.7646492303
 10
125.7178247596
 20
34.503554127
 10
125.605034715
 20
34.244596154
 10
125.4718607124
 20
33.9919596267
 10
125.3872044649
 20
33.8516628204
  0
LWPOLYLINE
  5
12F
330
1F
100
AcDbEntity
  8
0
  6
Continuous
 62
     7
370
    25
100
AcDbPolyline
 90
       28
 70
   128
 43
0.0
 10
119.8872238268
 20
24.3253721874
 10
119.8083089759
 20
24.1824002966
 10
119.6561073569
 20
23.9407517494
 10
119.4882411791
 20
23.7135988872
 10
119.3074228713
 20
23.5046121097
 10
119.1165741466
 20
23.317168284
 10
118.9187787921
 20
23.15429618
 10
118.7172328407
 20
23.0186275308
 10
118.5151929285
 20
22.9123545085
 10
118.315923673
 20
22.8371943025
 10
118.1226449228
 20
22.7943613725
 10
117.9384797302
 20
22.7845478249
 10
117.766403888
 20
22.8079122299
 10
117.609197846
 20
22.8640770587
 10
117.4694017835
 20
22.9521347844
 10
117.3492745646
 20
23.0706625455
 10
117.2507572384
 20
23.2177451372
 10
117.1754416758
 20
23.3910059576
 10
117.1245448465
 20
23.5876454099
 10
117.098889156
 20
23.8044861386
 10
117.098889156
 20
24.0380243702
 10
117.1245448465
 20
24.2844865287
 10
117.1754416758
 20
24.5398902091
 10
117.2507572384
 20
24.8001085273
 10
117.3492745646
 20
25.0609368026
 10
117.4694017835
 20
25.3181604984
 10
117.609197846
 20
25.5676233223
 10
117.6424834022
 20
25.6212332513
  0
ARC
  5
130
330
1F
100
AcDbEntity
  8
0
  6
Continuous
 62
     7
370
    25
100
AcDbCircle
 10
122.5684919315
 20
24.9642470645
 30
0.0
 40
2.365107989865618
100
AcDbArc
 50
203.2029228242
 51
298.9703066531
  0
ARC
  5
131
330
1F
100
AcDbEntity
  8
0
  6
Continuous
 62
     7
370
    25
100
AcDbCircle
 10
112.4805880638
 20
31.7735745462
 30
0.0
 40
2.760204586864063
100
AcDbArc
 50
245.5057703091
 51
305.679232563
  0
LWPOLYLINE
  5
132
330
1F
100
AcDbEntity
  8
0
  6
Continuous
 62
     7
370
    25
100
AcDbPolyline
 90
       31
 70
   128
 43
0.0
 10
116.8492528004
 20
38.7804832279
 10
116.8952879019
 20
38.7526437569
 10
117.1029749426
 20
38.6018275828
 10
117.2911247239
 20
38.4213123792
 10
117.4585170221
 20
38.2122688565
 10
117.604066234
 20
37.9760527422
 10
117.7268284172
 20
37.7141959883
 10
117.8260074118
 20
37.4283968364
 10
117.9009600039
 20
37.1205088037
 10
117.9512000972
 20
36.7925286622
 10
117.9764018654
 20
36.446583489
 10
117.9764018654
 20
36.0849168713
 10
117.9512000972
 20
35.7098743559
 10
117.9009600039
 20
35.3238882374
 10
117.8260074118
 20
34.9294617839
 10
117.7268284172
 20
34.5291530023
 10
117.604066234
 20
34.1255580487
 10
117.4585170221
 20
33.7212943912
 10
117.2911247239
 20
33.3189838347
 10
117.1029749426
 20
32.9212355177
 10
116.8952879019
 20
32.5306289905
 10
116.669410532
 20
32.1496974865
 10
116.4268077341
 20
31.7809114925
 10
116.1690528806
 20
31.4266627272
 10
115.8978176106
 20
31.0892486299
 10
115.6148609888
 20
30.7708574604
 10
115.3220180977
 20
30.4735541076
 10
115.0211881356
 20
30.1992666979
 10
114.7143221004
 20
29.9497740904
 10
114.403410136
 20
29.7266943404
 10
114.0904686258
 20
29.5314742056
  0
LWPOLYLINE
  5
133
330
1F
100
AcDbEntity
  8
0
  6
Continuous
 62
     7
370
    25
100
AcDbPolyline
 90
       31
 70
   128
 43
0.0
 10
123.9899635624
 20
23.8166174228
 10
124.3029050726
 20
24.0118375576
 10
124.613817037
 20
24.2349173077
 10
124.9206830722
 20
24.4844099152
 10
125.2215130343
 20
24.7586973249
 10
125.5143559254
 20
25.0560006776
 10
125.7973125472
 20
25.3743918471
 10
126.0685478172
 20
25.7118059445
 10
126.3263026707
 20
26.0660547097
 10
126.5689054686
 20
26.4348407037
 10
126.7947828386
 20
26.8157722078
 10
127.0024698792
 20
27.2063787349
 10
127.1906196605
 20
27.604127052
 10
127.3580119587
 20
28.0064376084
 10
127.5035611707
 20
28.4107012659
 10
127.6263233538
 20
28.8142962195
 10
127.7255023484
 20
29.2146050011
 10
127.8004549405
 20
29.6090314546
 10
127.8506950338
 20
29.9950175731
 10
127.875896802
 20
30.3700600885
 10
127.875896802
 20
30.7317267062
 10
127.8506950338
 20
31.0776718794
 10
127.8004549405
 20
31.4056520209
 10
127.7255023484
 20
31.7135400536
 10
127.6263233538
 20
31.9993392055
 10
127.5035611707
 20
32.2611959594
 10
127.3580119587
 20
32.4974120738
 10
127.1906196605
 20
32.7064555965
 10
127.0024698792
 20
32.8869708
 10
126.7947828386
 20
33.0377869741
 10
126.7397400771
 20
33.0708606313
  0
ARC
  5
134
330
1F
100
AcDbEntity
  8
0
  6
Continuous
 62
     7
370
    25
100
AcDbCircle
 10
122.3793767383
 20
26.0606832967
 30
0.0
 40
2.762213164140016
100
AcDbArc
 50
245.6431051707
 51
305.6673532584
  0
ARC
  5
135
330
1F
100
AcDbEntity
  8
0
  6
Continuous
 62
     7
370
    25
100
AcDbCircle
 10
129.8122287468
 20
30.2090179932
 30
0.0
 40
0.6513066753052524
100
AcDbArc
 50
204.0494043457
 51
239.1118280765
  0
LWPOLYLINE
  5
136
330
1F
100
AcDbEntity
  8
0
  6
Continuous
 62
     7
370
    25
100
AcDbPolyline
 90
       15
 70
   128
 43
0.0
 10
131.2312562829
 20
32.679211044
 10
131.1578675711
 20
32.7154179667
 10
131.0146177918
 20
32.7546538932
 10
130.8577033028
 20
32.7610124085
 10
130.6903694696
 20
32.7343620033
 10
130.5160771545
 20
32.6752538714
 10
130.3384311381
 20
32.5849105101
 10
130.1611055632
 20
32.4652004351
 10
129.9877679454
 20
32.3185995362
 10
129.8220033196
 20
32.1481398693
 10
129.6672400933
 20
31.9573469465
 10
129.5266791388
 20
31.7501668201
 10
129.4032275917
 20
31.5308844688
 10
129.299438724
 20
31.3040351742
 10
129.217459137
 20
31.0743107204
  0
LWPOLYLINE
  5
137
330
1F
100
AcDbEntity
  8
0
  6
Continuous
 62
     7
370
    25
100
AcDbPolyline
 90
       15
 70
   128
 43
0.0
 10
124.2074824891
 20
22.396776647
 10
124.049529185
 20
22.2109251442
 10
123.9049685751
 20
22.0076205269
 10
123.7767905174
 20
21.7910676191
 10
123.6676460395
 20
21.565745251
 10
123.5797925093
 20
21.3363136261
 10
123.5150469473
 20
21.1075179371
 10
123.4747484458
 20
20.8840902241
 10
123.459730474
 20
20.6706515047
 10
123.4703036392
 20
20.4716162002
 10
123.5062492634
 20
20.2911008349
 10
123.5668239051
 20
20.1328388969
 10
123.6507747366
 20
20.0001036201
 10
123.7563654546
 20
19.8956402863
 10
123.8247501717
 20
19.8499787989
  0
ARC
  5
138
330
1F
100
AcDbEntity
  8
0
  6
Continuous
 62
     7
370
    25
100
AcDbCircle
 10
125.2540843734
 20
22.314399077
 30
0.0
 40
0.651144084284966
100
AcDbArc
 50
60.8412077422
 51
95.9436504644
  0
LWPOLYLINE
  5
139
330
1F
100
AcDbEntity
  8
0
  6
Continuous
 62
     7
370
    25
100
AcDbPolyline
 90
       14
 70
   128
 43
0.0
 10
125.5693905154
 20
35.9487968656
 10
125.5127284957
 20
35.9771662183
 10
125.3708120046
 20
36.0192334304
 10
125.2149609304
 20
36.0284669644
 10
125.0483986448
 20
36.0046758488
 10
124.8745700527
 20
35.9483521405
 10
124.6970703436
 20
35.8606607482
 10
124.5195706345
 20
35.7434153386
 10
124.3457420423
 20
35.5990408264
 10
124.1791797567
 20
35.4305232204
 10
124.0233286825
 20
35.2413478663
 10
123.8814121914
 20
35.0354273613
 10
123.7563654546
 20
34.8170206321
 10
123.7468915087
 20
34.798595334
  0
LWPOLYLINE
  5
13A
330
1F
100
AcDbEntity
  8
0
  6
Continuous
 62
     7
370
    25
100
AcDbPolyline
 90
       14
 70
   128
 43
0.0
 10
118.2468373697
 20
25.2723471321
 10
118.236273116
 20
25.2559402673
 10
118.1096507934
 20
25.0384434001
 10
118.0022747787
 20
24.8125766204
 10
117.9163658638
 20
24.5830113914
 10
117.8537008499
 20
24.3544956692
 10
117.8155757986
 20
24.1317557033
 10
117.802779227
 20
23.9193982871
 10
117.8155757986
 20
23.7218154781
 10
117.8537008499
 20
23.5430937594
 10
117.9163658638
 20
23.3869295222
 10
118.0022747787
 20
23.2565526151
 10
118.1096507934
 20
23.1546595431
 10
118.1628844042
 20
23.1195646205
  0
LINE
  5
13B
330
1F
100
AcDbEntity
  8
0
  6
Continuous
 62
     7
370
    25
100
AcDbLine
 10
93.66635
 20
25.9085
 30
0.0
 11
93.66635
 21
29.9085
 31
0.0
  0
LINE
  5
13C
330
1F
100
AcDbEntity
  8
0
  6
Continuous
 62
     7
370
    25
100
AcDbLine
 10
61.66635
 20
29.9085
 30
0.0
 11
61.66635
 21
25.9085
 31
0.0
  0
ARC
  5
13D
330
1F
100
AcDbEntity
  8
0
  6
Continuous
 62
     7
370
    25
100
AcDbCircle
 10
62.16635
 20
25.9085
 30
0.0
 40
0.5
100
AcDbArc
 50
180.0
 51
270.0
  0
ARC
  5
13E
330
1F
100
AcDbEntity
  8
0
  6
Continuous
 62
     7
370
    25
100
AcDbCircle
 10
93.16635
 20
25.9085
 30
0.0
 40
0.5
100
AcDbArc
 50
270.0
 51
0.0
  0
ARC
  5
13F
330
1F
100
AcDbEntity
  8
0
  6
Continuous
 62
     7
370
    25
100
AcDbCircle
 10
62.16635
 20
29.9085
 30
0.0
 40
0.5000000000000036
100
AcDbArc
 50
90.0
 51
180.0
  0
ARC
  5
140
330
1F
100
AcDbEntity
  8
0
  6
Continuous
 62
     7
370
    25
100
AcDbCircle
 10
93.16635
 20
29.9085
 30
0.0
 40
0.5000000000000036
100
AcDbArc
 50
0.0
 51
90.0
  0
ARC
  5
141
330
1F
100
AcDbEntity
  8
0
  6
Continuous
 62
     7
370
    25
100
AcDbCircle
 10
71.66635
 20
30.9085
 30
0.0
 40
0.5000000000000142
100
AcDbArc
 50
283.6425776608
 51
0.0
  0
ARC
  5
142
330
1F
100
AcDbEntity
  8
0
  6
Continuous
 62
     7
370
    25
100
AcDbCircle
 10
83.66635
 20
30.9085
 30
0.0
 40
0.5000000000000142
100
AcDbArc
 50
180.0
 51
256.3651217471
  0
ARC
  5
143
330
1F
100
AcDbEntity
  8
0
  6
Continuous
 62
     7
370
    25
100
AcDbCircle
 10
72.66635
 20
44.9085
 30
0.0
 40
0.5
100
AcDbArc
 50
90.0
 51
180.0
  0
ARC
  5
144
330
1F
100
AcDbEntity
  8
0
  6
Continuous
 62
     7
370
    25
100
AcDbCircle
 10
82.66635
 20
44.9085
 30
0.0
 40
0.5
100
AcDbArc
 50
0.0
 51
90.0
  0
LINE
  5
145
330
1F
100
AcDbEntity
  8
0
  6
Continuous
 62
     7
370
    25
100
AcDbLine
 10
83.16635
 20
30.9085
 30
0.0
 11
83.16635
 21
44.9085
 31
0.0
  0
LINE
  5
146
330
1F
100
AcDbEntity
  8
0
  6
Continuous
 62
     7
370
    25
100
AcDbLine
 10
72.16635
 20
44.9085
 30
0.0
 11
72.16635
 21
30.9085
 31
0.0
  0
ARC
  5
147
330
1F
100
AcDbEntity
  8
0
  6
Continuous
 62
     7
370
    25
100
AcDbCircle
 10
73.16635
 20
24.9085
 30
0.0
 40
0.5
100
AcDbArc
 50
0.0
 51
90.0
  0
ARC
  5
148
330
1F
100
AcDbEntity
  8
0
  6
Continuous
 62
     7
370
    25
100
AcDbCircle
 10
82.16635
 20
24.9085
 30
0.0
 40
0.5
100
AcDbArc
 50
90.0
 51
180.0
  0
ARC
  5
149
330
1F
100
AcDbEntity
  8
0
  6
Continuous
 62
     7
370
    25
100
AcDbCircle
 10
81.16635
 20
20.9085
 30
0.0
 40
0.5
100
AcDbArc
 50
270.0
 51
0.0
  0
ARC
  5
14A
330
1F
100
AcDbEntity
  8
0
  6
Continuous
 62
     7
370
    25
100
AcDbCircle
 10
74.16635
 20
20.9085
 30
0.0
 40
0.5
100
AcDbArc
 50
180.0
 51
270.0
  0
LINE
  5
14B
330
1F
100
AcDbEntity
  8
0
  6
Continuous
 62
     7
370
    25
100
AcDbLine
 10
73.66635
 20
24.9085
 30
0.0
 11
73.66635
 21
20.9085
 31
0.0
  0
LINE
  5
14C
330
1F
100
AcDbEntity
  8
0
  6
Continuous
 62
     7
370
    25
100
AcDbLine
 10
81.66635
 20
20.9085
 30
0.0
 11
81.66635
 21
24.9085
 31
0.0
  0
LINE
  5
14D
330
1F
100
AcDbEntity
  8
0
  6
Continuous
 62
     7
370
    25
100
AcDbLine
 10
83.5990478149
 20
30.4088199286
 30
0.0
 11
83.5980643733
 21
30.4087950334
 31
0.0
  0
LINE
  5
14E
330
1F
100
AcDbEntity
  8
0
  6
Continuous
 62
     7
370
    25
100
AcDbLine
 10
77.66635
 20
25.4085
 30
0.0
 11
62.16635
 21
25.4085
 31
0.0
  0
LINE
  5
14F
330
1F
100
AcDbEntity
  8
0
  6
Continuous
 62
     7
370
    25
100
AcDbLine
 10
93.16635
 20
25.4085
 30
0.0
 11
77.66635
 21
25.4085
 31
0.0
  0
LINE
  5
150
330
1F
100
AcDbEntity
  8
0
  6
Continuous
 62
     7
370
    25
100
AcDbLine
 10
77.66635
 20
30.4085
 30
0.0
 11
93.16635
 21
30.4085
 31
0.0
  0
LINE
  5
151
330
1F
100
AcDbEntity
  8
0
  6
Continuous
 62
     7
370
    25
100
AcDbLine
 10
62.16635
 20
30.4085
 30
0.0
 11
77.66635
 21
30.4085
 31
0.0
  0
LINE
  5
152
330
1F
100
AcDbEntity
  8
0
  6
Continuous
 62
     7
370
    25
100
AcDbLine
 10
71.7844241775
 20
30.4209588484
 30
0.0
 11
71.7867069166
 21
30.4219854532
 31
0.0
  0
LINE
  5
153
330
1F
100
AcDbEntity
  8
0
  6
Continuous
 62
     7
370
    25
100
AcDbLine
 10
83.5482753755
 20
30.4209590494
 30
0.0
 11
83.5460053111
 21
30.4219799541
 31
0.0
  0
LINE
  5
154
330
1F
100
AcDbEntity
  8
0
  6
Continuous
 62
     7
370
    25
100
AcDbLine
 10
77.66635
 20
45.4085
 30
0.0
 11
82.66635
 21
45.4085
 31
0.0
  0
LINE
  5
155
330
1F
100
AcDbEntity
  8
0
  6
Continuous
 62
     7
370
    25
100
AcDbLine
 10
72.66635
 20
45.4085
 30
0.0
 11
77.66635
 21
45.4085
 31
0.0
  0
SPLINE
  5
156
330
1F
100
AcDbEntity
  8
0
  6
Continuous
 62
     7
370
    25
100
AcDbSpline
210
0.0
220
0.0
230
1.0
 70
    11
 71
     3
 72
    38
 73
    34
 74
     0
 42
0.00000001
 43
0.00000001
 40
0.0
 40
0.0
 40
0.0
 40
0.0
 40
0.0625
 40
0.0625
 40
0.125
 40
0.125
 40
0.1875
 40
0.1875
 40
0.25
 40
0.25
 40
0.3125
 40
0.3125
 40
0.375
 40
0.375
 40
0.4375
 40
0.4375
 40
0.5
 40
0.5
 40
0.5625
 40
0.5625
 40
0.625
 40
0.625
 40
0.6875
 40
0.6875
 40
0.75
 40
0.75
 40
0.8125
 40
0.8125
 40
0.875
 40
0.875
 40
0.9375
 40
0.9375
 40
1.0
 40
1.0
 40
1.0
 40
1.0
 10
78.66635000000004
 20
37.90849999999998
 30
0.0
 10
78.66635000000004
 20
37.77607484534642
 30
0.0
 10
78.64018049921656
 20
37.64615241225334
 30
0.0
 10
78.53970319003392
 20
37.40409311715795
 30
0.0
 10
78.46542073504382
 20
37.29333590102653
 30
0.0
 10
78.28132931490977
 20
37.10928704308399
 30
0.0
 10
78.16998316315869
 20
37.03482400450983
 30
0.0
 10
77.92944982982876
 20
36.93498339116734
 30
0.0
 10
77.79766709562965
 20
36.908576241992
 30
0.0
 10
77.53619667170882
 20
36.90842409659658
 30
0.0
 10
77.40501052678445
 20
36.93437375098691
 30
0.0
 10
77.16252542932449
 20
37.03478318588886
 30
0.0
 10
77.05247858412967
 20
37.10820346451128
 30
0.0
 10
76.86635422092264
 20
37.29423669050134
 30
0.0
 10
76.79290200594447
 20
37.40429322392355
 30
0.0
 10
76.69255077455591
 20
37.64610537374879
 30
0.0
 10
76.6664021610303
 20
37.77744026193178
 30
0.0
 10
76.66629799785207
 20
38.03876253721833
 30
0.0
 10
76.69255530451345
 20
38.1706157281119
 30
0.0
 10
76.79224676042712
 20
38.41141578862627
 30
0.0
 10
76.86649758669833
 20
38.52269084730795
 30
0.0
 10
77.0506876713511
 20
38.70722033720445
 30
0.0
 10
77.16101160937123
 20
38.7813557467264
 30
0.0
 10
77.4034991573864
 20
38.88223172803082
 30
0.0
 10
77.53347938906523
 20
38.90839950708565
 30
0.0
 10
77.7977036383631
 20
38.90859991761278
 30
0.0
 10
77.92806002322877
 20
38.88247711901271
 30
0.0
 10
78.16986024788768
 20
38.7823426602603
 30
0.0
 10
78.28089123578481
 20
38.70803648419216
 30
0.0
 10
78.46498055233646
 20
38.52421808557902
 30
0.0
 10
78.53957563456316
 20
38.41292035802192
 30
0.0
 10
78.63964640714694
 20
38.17242614550301
 30
0.0
 10
78.66635000000004
 20
38.04092515465353
 30
0.0
 10
78.66635000000004
 20
37.90849999999998
 30
0.0
  0
LINE
  5
157
330
1F
100
AcDbEntity
  8
0
  6
Continuous
 62
     7
370
    25
100
AcDbLine
 10
81.16635
 20
20.4085
 30
0.0
 11
74.16635
 21
20.4085
 31
0.0
  0
LINE
  5
158
330
1F
100
AcDbEntity
  8
0
  6
Continuous
 62
     7
370
    25
100
AcDbLine
 10
77.66635
 20
29.9085
 30
0.0
 11
61.66635
 21
29.9085
 31
0.0
  0
LINE
  5
159
330
1F
100
AcDbEntity
  8
0
  6
Continuous
 62
     7
370
    25
100
AcDbLine
 10
93.66635
 20
29.9085
 30
0.0
 11
77.66635
 21
29.9085
 31
0.0
  0
LINE
  5
15A
330
1F
100
AcDbEntity
  8
0
  6
Continuous
 62
     7
370
    25
100
AcDbLine
 10
77.66635
 20
25.9085
 30
0.0
 11
93.66635
 21
25.9085
 31
0.0
  0
LINE
  5
15B
330
1F
100
AcDbEntity
  8
0
  6
Continuous
 62
     7
370
    25
100
AcDbLine
 10
61.66635
 20
25.9085
 30
0.0
 11
77.66635
 21
25.9085
 31
0.0
  0
SPLINE
  5
15C
330
1F
100
AcDbEntity
  8
0
  6
Continuous
 62
     7
370
    25
100
AcDbSpline
210
0.0
220
0.0
230
1.0
 70
     8
 71
     3
 72
    11
 73
     7
 74
     0
 42
0.00000001
 43
0.00000001
 40
0.0
 40
0.0
 40
0.0
 40
0.0
 40
0.1554376431627189
 40
0.6022687108781891
 40
0.8122941370784722
 40
1.0
 40
1.0
 40
1.0
 40
1.0
 10
76.8367580773905
 20
30.40959169869855
 30
0.0
 10
76.92343735565444
 20
30.41107217345137
 30
0.0
 10
77.25929047409905
 20
30.41680851635214
 30
0.0
 10
77.71712653140227
 20
30.42953480201977
 30
0.0
 10
78.19140186506755
 20
30.41461289929928
 30
0.0
 10
78.41324022181486
 20
30.41095476388389
 30
0.0
 10
78.51793492731387
 20
30.40922833832068
 30
0.0
  0
LINE
  5
15D
330
1F
100
AcDbEntity
  8
0
  6
Continuous
 62
     7
370
    25
100
AcDbLine
 10
77.66635
 20
30.9085
 30
0.0
 11
83.16635
 21
30.9085
 31
0.0
  0
LINE
  5
15E
330
1F
100
AcDbEntity
  8
0
  6
Continuous
 62
     7
370
    25
100
AcDbLine
 10
72.16635
 20
30.9085
 30
0.0
 11
77.66635
 21
30.9085
 31
0.0
  0
LINE
  5
15F
330
1F
100
AcDbEntity
  8
0
  6
Continuous
 62
     7
370
    25
100
AcDbLine
 10
83.5631278075
 20
30.4142795394
 30
0.0
 11
83.5482753755
 21
30.4209590494
 31
0.0
  0
LINE
  5
160
330
1F
100
AcDbEntity
  8
0
  6
Continuous
 62
     7
370
    25
100
AcDbLine
 10
77.66635
 20
44.9085
 30
0.0
 11
72.16635
 21
44.9085
 31
0.0
  0
LINE
  5
161
330
1F
100
AcDbEntity
  8
0
  6
Continuous
 62
     7
370
    25
100
AcDbLine
 10
83.16635
 20
44.9085
 30
0.0
 11
77.66635
 21
44.9085
 31
0.0
  0
LINE
  5
162
330
1F
100
AcDbEntity
  8
0
  6
Continuous
 62
     7
370
    25
100
AcDbLine
 10
77.66635
 20
24.9085
 30
0.0
 11
73.66635
 21
24.9085
 31
0.0
  0
LINE
  5
163
330
1F
100
AcDbEntity
  8
0
  6
Continuous
 62
     7
370
    25
100
AcDbLine
 10
81.66635
 20
24.9085
 30
0.0
 11
77.66635
 21
24.9085
 31
0.0
  0
LINE
  5
164
330
1F
100
AcDbEntity
  8
0
  6
Continuous
 62
     7
370
    25
100
AcDbLine
 10
73.66635
 20
20.9085
 30
0.0
 11
81.66635
 21
20.9085
 31
0.0
  0
DIMENSION
  5
165
330
1F
100
AcDbEntity
  8
0
  6
Continuous
 62
     7
370
    18
100
AcDbDimension
  2
_D_7
 10
76.7004241737
 20
37.6496809549
 30
0.0
 11
88.3115280652
 21
40.76086833
 31
0.0
 70
   163
  1
<>
 71
     1
 42
-1.0
  3
SLDDIMSTYLE3
100
AcDbDiametricDimension
 15
78.6322758263
 25
38.1673190451
 35
0.0
 40
0.0
  0
DIMENSION
  5
172
330
1F
100
AcDbEntity
  8
0
  6
Continuous
 62
     7
370
    18
100
AcDbDimension
  2
_D_8
 10
77.66635
 20
47.4085
 30
0.0
 11
88.3115260652
 21
47.4085
 31
0.0
 70
   160
  1
<>
 71
     2
 42
-1.0
  3
SLDDIMSTYLE0
100
AcDbAlignedDimension
 13
83.16635
 23
44.9085
 33
0.0
 14
77.66635
 24
41.4085
 34
0.0
100
AcDbRotatedDimension
  0
INSERT
  5
188
330
1F
100
AcDbEntity
  8
0
  6
Continuous
 62
     7
370
    18
100
AcDbBlockReference
  2
SW_CENTERMARKSYMBOL_1
 10
77.66635
 20
37.9085
 30
0.0
  0
SPLINE
  5
189
330
1F
100
AcDbEntity
  8
0
  6
Continuous
 62
     7
370
    25
100
AcDbSpline
210
0.0
220
0.0
230
1.0
 70
     8
 71
     3
 72
    34
 73
    30
 74
     0
 42
0.00000001
 43
0.00000001
 40
0.0
 40
0.0
 40
0.0
 40
0.0
 40
0.0268514640847049
 40
0.0642881413670137
 40
0.1017835181298644
 40
0.1393688987399873
 40
0.1770680859084633
 40
0.2148960946232977
 40
0.2528589265505503
 40
0.2909543259809842
 40
0.3291732868643191
 40
0.3675019855604519
 40
0.4059237977405383
 40
0.4444211160742715
 40
0.4829767895012508
 40
0.5215751172387206
 40
0.560202420905049
 40
0.5988472723215206
 40
0.6375004741459699
 40
0.676153541930013
 40
0.7148010585434592
 40
0.7534396539262382
 40
0.7920671149950337
 40
0.830682147447655
 40
0.8692841729112356
 40
0.9078731616154435
 40
0.9464494977131539
 40
0.9850138730247123
 40
1.0
 40
1.0
 40
1.0
 40
1.0
 10
36.64852206880146
 20
40.6728616493881
 30
0.0
 10
36.73185369014166
 20
40.73141331525806
 30
0.0
 10
36.93136739398147
 20
40.87159851189566
 30
0.0
 10
37.22690903135239
 20
41.12435113478454
 30
0.0
 10
37.53736641442021
 20
41.42581091677526
 30
0.0
 10
37.82865607006591
 20
41.75377326904609
 30
0.0
 10
38.10100145953933
 20
42.10651650605544
 30
0.0
 10
38.35363646947455
 20
42.4837968333562
 30
0.0
 10
38.58605824724618
 20
42.88488026219316
 30
0.0
 10
38.79770727908441
 20
43.30905428318943
 30
0.0
 10
38.98807442899817
 20
43.75548275184586
 30
0.0
 10
39.15669266804944
 20
44.22324822598884
 30
0.0
 10
39.30315622576774
 20
44.71135235546081
 30
0.0
 10
39.42712681788447
 20
45.21873278285445
 30
0.0
 10
39.52833740968344
 20
45.74427728153996
 30
0.0
 10
39.60659148266037
 20
46.28683743774631
 30
0.0
 10
39.66175978320602
 20
46.84523946105374
 30
0.0
 10
39.69377562978639
 20
47.41829207768661
 30
0.0
 10
39.70262963839615
 20
48.00478487949681
 30
0.0
 10
39.68836649711155
 20
48.60349704676378
 30
0.0
 10
39.65107973520914
 20
49.21320178600495
 30
0.0
 10
39.59091054183015
 20
49.83267405796754
 30
0.0
 10
39.50803084147896
 20
50.46068449866752
 30
0.0
 10
39.40269339624189
 20
51.0959947089956
 30
0.0
 10
39.27503788184437
 20
51.73736333862507
 30
0.0
 10
39.12580908902394
 20
52.38352495699896
 30
0.0
 10
38.95367418938847
 20
53.03327184255514
 30
0.0
 10
38.8036144114686
 20
53.55236324541822
 30
0.0
 10
38.70379676076889
 20
53.85465911402247
 30
0.0
 10
38.67586275597192
 20
53.93925671960126
 30
0.0
  0
SPLINE
  5
18A
330
1F
100
AcDbEntity
  8
0
  6
Continuous
 62
     7
370
    25
100
AcDbSpline
210
0.0
220
0.0
230
1.0
 70
     8
 71
     3
 72
    34
 73
    30
 74
     0
 42
0.00000001
 43
0.00000001
 40
0.0
 40
0.0
 40
0.0
 40
0.0
 40
0.0336571030246137
 40
0.072108214522217
 40
0.1105720777525241
 40
0.1490497727771063
 40
0.1875421949133958
 40
0.2260499813481319
 40
0.2645734154530211
 40
0.3031123040118524
 40
0.3416658224659679
 40
0.3802323239011756
 40
0.4188091093865342
 40
0.4573921612214317
 40
0.4959740366055899
 40
0.5345460364111863
 40
0.5730976550284695
 40
0.6116159762838403
 40
0.6500857261604226
 40
0.688489629133158
 40
0.7268091722247287
 40
0.7650258475472745
 40
0.8031228676181991
 40
0.8410872310289595
 40
0.8789118830474584
 40
0.91659761036965
 40
0.9541542794433674
 40
0.9916011003650816
 40
1.0
 40
1.0
 40
1.0
 40
1.0
 10
33.17741943377368
 20
63.46643482617711
 30
0.0
 10
33.04268857194318
 20
63.6140473832245
 30
0.0
 10
32.75403622178304
 20
63.93029795065934
 30
0.0
 10
32.300242425474
 20
64.39210696815886
 30
0.0
 10
31.81955136143297
 20
64.85568095520338
 30
0.0
 10
31.3313184668913
 20
65.29787791768771
 30
0.0
 10
30.83677831249309
 20
65.71840125840676
 30
0.0
 10
30.33677473763101
 20
66.11623046660551
 30
0.0
 10
29.83226828027127
 20
66.49058582103633
 30
0.0
 10
29.3241993529214
 20
66.84067047400393
 30
0.0
 10
28.81352471619991
 20
67.16574024202495
 30
0.0
 10
28.30120818399906
 20
67.46508559085413
 30
0.0
 10
27.78822440103322
 20
67.73803741584453
 30
0.0
 10
27.27556799664046
 20
67.98396312979096
 30
0.0
 10
26.76425323483909
 20
68.20227268571348
 30
0.0
 10
26.25531489564881
 20
68.39242395397562
 30
0.0
 10
25.74980325916882
 20
68.55393043735826
 30
0.0
 10
25.24878920275627
 20
68.68636612441905
 30
0.0
 10
24.75336626892814
 20
68.78937339487004
 30
0.0
 10
24.26464747606567
 20
68.8626739225348
 30
0.0
 10
23.78375943097258
 20
68.9060777880376
 30
0.0
 10
23.31182714193162
 20
68.9195003103994
 30
0.0
 10
22.84997171235493
 20
68.90294322713444
 30
0.0
 10
22.39924028855783
 20
68.85659126664451
 30
0.0
 10
21.96077488140485
 20
68.78045316660244
 30
0.0
 10
21.53509431378423
 20
68.675659685861
 30
0.0
 10
21.12468401809831
 20
68.53957550574926
 30
0.0
 10
20.82753275038113
 20
68.42399763040773
 30
0.0
 10
20.67226192562704
 20
68.34511749827993
 30
0.0
 10
20.64381643371402
 20
68.33066672065256
 30
0.0
  0
LINE
  5
18B
330
1F
100
AcDbEntity
  8
0
  6
Continuous
 62
     7
370
    25
100
AcDbLine
 10
33.4097023928
 20
38.7751398105
 30
0.0
 11
36.2381295175
 21
40.4079560342
 31
0.0
  0
LINE
  5
18C
330
1F
100
AcDbEntity
  8
0
  6
Continuous
 62
     7
370
    25
100
AcDbLine
 10
20.2394297954
 20
68.1215196304
 30
0.0
 11
17.4110026706
 21
66.4887034067
 31
0.0
  0
SPLINE
  5
18D
330
1F
100
AcDbEntity
  8
0
  6
Continuous
 62
     7
370
    25
100
AcDbSpline
210
0.0
220
0.0
230
1.0
 70
     8
 71
     3
 72
    59
 73
    55
 74
     0
 42
0.00000001
 43
0.00000001
 40
0.0
 40
0.0
 40
0.0
 40
0.0
 40
0.0113230249909155
 40
0.0302755911565317
 40
0.0492550340312187
 40
0.0682777221185613
 40
0.0873563791069136
 40
0.106499348108202
 40
0.1257103911535044
 40
0.1449889978367306
 40
0.1643310973102491
 40
0.1837300140961007
 40
0.2031774933069718
 40
0.222664644980162
 40
0.2421827074941397
 40
0.2617235874780594
 40
0.2812801818315798
 40
0.3008465179756358
 40
0.3204177609248119
 40
0.3399895953693858
 40
0.3595589585781414
 40
0.3791240371467551
 40
0.398683624498985
 40
0.4182369975774367
 40
0.4377838111771887
 40
0.4573240103872616
 40
0.4768577598617909
 40
0.496385387850329
 40
0.515907342681222
 40
0.5354241594679636
 40
0.5549364350366368
 40
0.5744448093564108
 40
0.5939499520403382
 40
0.6134525527425146
 40
0.6329533144982423
 40
0.65245294923301
 40
0.671952174804997
 40
0.6914516933535884
 40
0.7109520080199077
 40
0.7304538448378742
 40
0.7499579300512449
 40
0.7694649879761652
 40
0.7889757378055411
 40
0.8084908887595561
 40
0.8280111329117055
 40
0.8475371348680611
 40
0.8670695172831164
 40
0.886608840957095
 40
0.9061555779797293
 40
0.9257100760767398
 40
0.9452725120065075
 40
0.9648428316031146
 40
0.9844206739703665
 40
1.0
 40
1.0
 40
1.0
 40
1.0
 10
17.01543396150554
 20
66.23338201125958
 30
0.0
 10
16.94554780210055
 20
66.1853899980757
 30
0.0
 10
16.75868565251215
 20
66.05706858475196
 30
0.0
 10
16.47408325999659
 20
65.81854118804446
 30
0.0
 10
16.16056291172788
 20
65.52144087887075
 30
0.0
 10
15.86627015178472
 20
65.19752103458262
 30
0.0
 10
15.59079263350471
 20
64.8487983398286
 30
0.0
 10
15.33494561314483
 20
64.47542462341855
 30
0.0
 10
15.09921924992504
 20
64.07814219801094
 30
0.0
 10
14.88418013947505
 20
63.65764269855055
 30
0.0
 10
14.69034262886901
 20
63.21474881572902
 30
0.0
 10
14.51818260792591
 20
62.75036371751838
 30
0.0
 10
14.36811611448376
 20
62.2654740535488
 30
0.0
 10
14.24049275166339
 20
61.7611327364984
 30
0.0
 10
14.13559108748038
 20
61.23844494160262
 30
0.0
 10
14.05361886807041
 20
60.6985540416394
 30
0.0
 10
13.99471591179151
 20
60.14263034227113
 30
0.0
 10
13.9589586708431
 20
59.57186270674999
 30
0.0
 10
13.94636543811353
 20
58.98745837654232
 30
0.0
 10
13.95690012601331
 20
58.39063708402434
 30
0.0
 10
13.99047631978974
 20
57.78262472606481
 30
0.0
 10
14.04696206178593
 20
57.16464692163107
 30
0.0
 10
14.12618342707648
 20
56.53793202456314
 30
0.0
 10
14.22792617403402
 20
55.90371621519103
 30
0.0
 10
14.3519369771159
 20
55.26324327249112
 30
0.0
 10
14.49792429962208
 20
54.61776406289513
 30
0.0
 10
14.66555903525406
 20
53.96853571193212
 30
0.0
 10
14.85447502265882
 20
53.31682046364284
 30
0.0
 10
15.06426951294341
 20
52.66388425506101
 30
0.0
 10
15.29450364892713
 20
52.01099504386219
 30
0.0
 10
15.54470299751956
 20
51.35942093097282
 30
0.0
 10
15.81435816301659
 20
50.71042811942345
 30
0.0
 10
16.10292549880951
 20
50.06527874804642
 30
0.0
 10
16.40982792738911
 20
49.4252286350148
 30
0.0
 10
16.73445587295843
 20
48.79152496248951
 30
0.0
 10
17.07616830698749
 20
48.16540393007811
 30
0.0
 10
17.43429378329829
 20
47.5480886099181
 30
0.0
 10
17.80813038236924
 20
46.94078868296624
 30
0.0
 10
18.19694823425968
 20
46.34469564319092
 30
0.0
 10
18.59999116074554
 20
45.76098028698558
 30
0.0
 10
19.01647977323059
 20
45.19078862109453
 30
0.0
 10
19.44561166609182
 20
44.63524207599832
 30
0.0
 10
19.88656307829617
 20
44.09543552083126
 30
0.0
 10
20.33849059435992
 20
43.57243543058509
 30
0.0
 10
20.80053285826082
 20
43.06727807677466
 30
0.0
 10
21.2718122892587
 20
42.58096830262907
 30
0.0
 10
21.75143670704785
 20
42.11447686014166
 30
0.0
 10
22.23850104516694
 20
41.66874392447969
 30
0.0
 10
22.73208827781836
 20
41.24466039561842
 30
0.0
 10
23.23127257253888
 20
40.84313301718032
 30
0.0
 10
23.73511311121423
 20
40.46483734338718
 30
0.0
 10
24.242681373091
 20
40.11113711306884
 30
0.0
 10
24.7181631245435
 20
39.80318615193051
 30
0.0
 10
25.02458637882709
 20
39.62255731680661
 30
0.0
 10
25.16037284853516
 20
39.54251459320099
 30
0.0
  0
SPLINE
  5
18E
330
1F
100
AcDbEntity
  8
0
  6
Continuous
 62
     7
370
    25
100
AcDbSpline
210
0.0
220
0.0
230
1.0
 70
     8
 71
     3
 72
    25
 73
    21
 74
     0
 42
0.00000001
 43
0.00000001
 40
0.0
 40
0.0
 40
0.0
 40
0.0
 40
0.0322134748410727
 40
0.0932609725697414
 40
0.1543253595474664
 40
0.2153854968859301
 40
0.2764275704343829
 40
0.3374343466363927
 40
0.3983847647772344
 40
0.4592540865100004
 40
0.5200145535137615
 40
0.5806367137679924
 40
0.6410915137128371
 40
0.7013531211860433
 40
0.761402251619775
 40
0.8212295612546355
 40
0.8808385189340734
 40
0.9402471456103122
 40
0.9994881516491309
 40
1.0
 40
1.0
 40
1.0
 40
1.0
 10
25.16037284853516
 20
39.54251459320099
 30
0.0
 10
25.25052262898739
 20
39.49122134754113
 30
0.0
 10
25.51151453511991
 20
39.34272268354729
 30
0.0
 10
25.94379334626256
 20
39.1172636475652
 30
0.0
 10
26.45626658812138
 20
38.87549111302372
 30
0.0
 10
26.96727221214526
 20
38.66176891247674
 30
0.0
 10
27.47572768651719
 20
38.47619292381521
 30
0.0
 10
27.98058624119801
 20
38.31936018377685
 30
0.0
 10
28.48077177218268
 20
38.1916540783883
 30
0.0
 10
28.97518765260209
 20
38.09342887455805
 30
0.0
 10
29.46271818199054
 20
38.02494667460355
 30
0.0
 10
29.94223538058108
 20
37.98638303476798
 30
0.0
 10
30.41261648510195
 20
37.97780365370016
 30
0.0
 10
30.87274054282022
 20
37.99919653671632
 30
0.0
 10
31.32158252164328
 20
38.05033302025689
 30
0.0
 10
31.75795613141408
 20
38.13128840512303
 30
0.0
 10
32.18155845144845
 20
38.24054992554021
 30
0.0
 10
32.58916356733558
 20
38.38211555149459
 30
0.0
 10
32.85704739970967
 20
38.48742904442064
 30
0.0
 10
32.9844734748199
 20
38.55317946683897
 30
0.0
 10
32.98556501809544
 20
38.5537426908996
 30
0.0
  0
SPLINE
  5
18F
330
1F
100
AcDbEntity
  8
0
  6
Continuous
 62
     7
370
    25
100
AcDbSpline
210
0.0
220
0.0
230
1.0
 70
     8
 71
     3
 72
    49
 73
    45
 74
     0
 42
0.00000001
 43
0.00000001
 40
0.0
 40
0.0
 40
0.0
 40
0.0
 40
0.0029964337570077
 40
0.0259907705870246
 40
0.0489683466346
 40
0.0720459938707401
 40
0.0953392459457556
 40
0.1189298891243573
 40
0.1428557092683859
 40
0.1671083243405154
 40
0.1916410282072908
 40
0.216384658348432
 40
0.2412655295925744
 40
0.2662191359848338
 40
0.2911937697905597
 40
0.3161527745952801
 40
0.3410813847616738
 40
0.3659736972312899
 40
0.3908296457960165
 40
0.4156527921613011
 40
0.440448849857985
 40
0.4652247580686417
 40
0.4899881322800931
 40
0.5147469570181386
 40
0.5395092761779079
 40
0.5642807947171172
 40
0.589069884435292
 40
0.6138848914406592
 40
0.6387339629522946
 40
0.6636247200711825
 40
0.6885636678989435
 40
0.7135551915338953
 40
0.7385999364786575
 40
0.7636923443494993
 40
0.7888171833426179
 40
0.813933693158668
 40
0.8389861286948498
 40
0.8639013483508358
 40
0.8885938884518295
 40
0.9129822302428754
 40
0.9370111348137644
 40
0.9606711063896992
 40
0.9840060919409862
 40
1.0
 40
1.0
 40
1.0
 40
1.0
 10
41.59390053027892
 20
55.625900096966
 30
0.0
 10
41.60406929979815
 20
55.63109048310356
 30
0.0
 10
41.69227220270175
 20
55.67611138004286
 30
0.0
 10
41.84340657481468
 20
55.78742738015697
 30
0.0
 10
42.04380140840473
 20
55.95983686665652
 30
0.0
 10
42.22339240617877
 20
56.1596734704837
 30
0.0
 10
42.38347296691087
 20
56.38260426991025
 30
0.0
 10
42.52281438589375
 20
56.62886771600918
 30
0.0
 10
42.64073001340661
 20
56.89735122220054
 30
0.0
 10
42.73629537695459
 20
57.1869533792653
 30
0.0
 10
42.80870195855196
 20
57.49607127084083
 30
0.0
 10
42.85731942586457
 20
57.82273826925896
 30
0.0
 10
42.88179221522502
 20
58.16470813223618
 30
0.0
 10
42.88204956976918
 20
58.51959494908117
 30
0.0
 10
42.8582777162027
 20
58.88497936716177
 30
0.0
 10
42.81086718194622
 20
59.25851230218284
 30
0.0
 10
42.74035251647567
 20
59.63794600405465
 30
0.0
 10
42.6473662466384
 20
60.02112967813093
 30
0.0
 10
42.53262612560756
 20
60.40594641839657
 30
0.0
 10
42.39692808833112
 20
60.79030069064469
 30
0.0
 10
42.24114350276378
 20
61.17211241224864
 30
0.0
 10
42.06621771863585
 20
61.54931697228414
 30
0.0
 10
41.87316820749062
 20
61.91986964599769
 30
0.0
 10
41.66308188969583
 20
62.28175208632243
 30
0.0
 10
41.43711816622437
 20
62.63296947392949
 30
0.0
 10
41.19649716121994
 20
62.97157386787578
 30
0.0
 10
40.94249103416275
 20
63.29567429454678
 30
0.0
 10
40.67640565710425
 20
63.60345357005595
 30
0.0
 10
40.39958003709337
 20
63.89316077329168
 30
0.0
 10
40.11337871770712
 20
64.16311312434202
 30
0.0
 10
39.81918669140728
 20
64.41169437858095
 30
0.0
 10
39.51840930285302
 20
64.637349464233
 30
0.0
 10
39.21248060107322
 20
64.83857606206477
 30
0.0
 10
38.9028845551352
 20
65.01391560772754
 30
0.0
 10
38.59124065187343
 20
65.16192748891427
 30
0.0
 10
38.2793471790615
 20
65.28123045994356
 30
0.0
 10
37.9692299366864
 20
65.37057471071168
 30
0.0
 10
37.66313337545629
 20
65.4289415906605
 30
0.0
 10
37.36347722114154
 20
65.45571010500221
 30
0.0
 10
37.07284053515995
 20
65.45061060520645
 30
0.0
 10
36.79343713335185
 20
65.4143940035474
 30
0.0
 10
36.52818477202106
 20
65.34653221962866
 30
0.0
 10
36.30157594034284
 20
65.26271060671911
 30
0.0
 10
36.17081720931401
 20
65.18947325159084
 30
0.0
 10
36.11764146674899
 20
65.15968976629848
 30
0.0
  0
LINE
  5
190
330
1F
100
AcDbEntity
  8
0
  6
Continuous
 62
     7
370
    25
100
AcDbLine
 10
31.6956629524
 20
49.9096731451
 30
0.0
 11
41.595157889
 21
55.6245299278
 31
0.0
  0
LINE
  5
191
330
1F
100
AcDbEntity
  8
0
  6
Continuous
 62
     7
370
    25
100
AcDbLine
 10
36.0956048595
 20
65.151067414
 30
0.0
 11
26.1961099229
 21
59.4362106313
 31
0.0
  0
SPLINE
  5
192
330
1F
100
AcDbEntity
  8
0
  6
Continuous
 62
     7
370
    25
100
AcDbSpline
210
0.0
220
0.0
230
1.0
 70
     8
 71
     3
 72
    33
 73
    29
 74
     0
 42
0.00000001
 43
0.00000001
 40
0.0
 40
0.0
 40
0.0
 40
0.0
 40
0.0358336952546645
 40
0.0779484651532173
 40
0.1162512407332914
 40
0.1527482963867128
 40
0.191515259443058
 40
0.2295991152103124
 40
0.2676291281281145
 40
0.3058549418136499
 40
0.3444110402191773
 40
0.3833088770099158
 40
0.42250190408957
 40
0.4619173715564272
 40
0.5014718112208943
 40
0.5410780321962234
 40
0.5806324866159491
 40
0.6200330097019755
 40
0.6591932314708803
 40
0.6980330723520177
 40
0.736489267729705
 40
0.774536874376409
 40
0.8122295299338349
 40
0.8497714135944567
 40
0.8874898761881371
 40
0.9261444080997592
 40
0.9673443366242516
 40
1.0
 40
1.0
 40
1.0
 40
1.0
 10
23.45582388308585
 20
56.01673595377695
 30
0.0
 10
23.44166363879028
 20
56.0085302393535
 30
0.0
 10
23.41086108546192
 20
55.99068047978369
 30
0.0
 10
23.34731274450791
 20
55.97731582169663
 30
0.0
 10
23.26237184164063
 20
55.97467342115683
 30
0.0
 10
23.1585134783387
 20
55.989485678975
 30
0.0
 10
23.03635186451831
 20
56.02555521984689
 30
0.0
 10
22.8981553676097
 20
56.08672598397513
 30
0.0
 10
22.75145247792696
 20
56.17221037671416
 30
0.0
 10
22.59955675701765
 20
56.28187578373185
 30
0.0
 10
22.44600685229438
 20
56.41475719335419
 30
0.0
 10
22.29434929737976
 20
56.56916049996731
 30
0.0
 10
22.14808983835526
 20
56.74265092176923
 30
0.0
 10
22.01054037611454
 20
56.93217699514457
 30
0.0
 10
21.88471628772832
 20
57.13418857455881
 30
0.0
 10
21.77327524432041
 20
57.34471574682092
 30
0.0
 10
21.67844114431142
 20
57.55946100432151
 30
0.0
 10
21.60191764585025
 20
57.7739171477216
 30
0.0
 10
21.54481138075192
 20
57.98349346766555
 30
0.0
 10
21.50756390949203
 20
58.18361655160469
 30
0.0
 10
21.48986873231839
 20
58.36983604053708
 30
0.0
 10
21.49057464021654
 20
58.53800037956189
 30
0.0
 10
21.50759827025237
 20
58.68453074221165
 30
0.0
 10
21.53791172300567
 20
58.80655660373922
 30
0.0
 10
21.57753581949102
 20
58.90277858646203
 30
0.0
 10
21.62265683420721
 20
58.97347504962992
 30
0.0
 10
21.66456811783824
 20
59.01902520090083
 30
0.0
 10
21.69373218336301
 20
59.0360553190986
 30
0.0
 10
21.70662723818474
 20
59.04358528118823
 30
0.0
  0
SPLINE
  5
193
330
1F
100
AcDbEntity
  8
0
  6
Continuous
 62
     7
370
    25
100
AcDbSpline
210
0.0
220
0.0
230
1.0
 70
     8
 71
     3
 72
    33
 73
    29
 74
     0
 42
0.00000001
 43
0.00000001
 40
0.0
 40
0.0
 40
0.0
 40
0.0
 40
0.033194947733009
 40
0.0754997755612338
 40
0.1138851155805287
 40
0.1504126003077499
 40
0.1892133608071075
 40
0.2272981462884261
 40
0.2653187101043609
 40
0.3035277805708287
 40
0.3420652343280363
 40
0.3809450905314354
 40
0.420122002822264
 40
0.4595237511706096
 40
0.4990670786743281
 40
0.5386648720751698
 40
0.5782145171575872
 40
0.6176129517671506
 40
0.6567737224158946
 40
0.6956164581879508
 40
0.7340771443655161
 40
0.7721291912795871
 40
0.8098229539023376
 40
0.8473564278907065
 40
0.8850537010634262
 40
0.9236534361734811
 40
0.9647289333175373
 40
1.0
 40
1.0
 40
1.0
 40
1.0
 10
29.11131728199409
 20
46.21814629839034
 30
0.0
 10
29.09822380539851
 20
46.21047248609428
 30
0.0
 10
29.06844353424901
 20
46.19301889313455
 30
0.0
 10
29.00675672383777
 20
46.17971947699437
 30
0.0
 10
28.92236948801377
 20
46.17653022260406
 30
0.0
 10
28.81901917171359
 20
46.19073035928469
 30
0.0
 10
28.69728573332349
 20
46.22609618078231
 30
0.0
 10
28.55939151396049
 20
46.28653047693555
 30
0.0
 10
28.41290078952544
 20
46.37126736688945
 30
0.0
 10
28.26111048586786
 20
46.48020306326893
 30
0.0
 10
28.10755890304903
 20
46.61239376045673
 30
0.0
 10
27.95579057364521
 20
46.76616993638116
 30
0.0
 10
27.80931511555907
 20
46.93911766234746
 30
0.0
 10
27.67145208090329
 20
47.12820258370819
 30
0.0
 10
27.54522715816286
 20
47.32988819650622
 30
0.0
 10
27.43330961245008
 20
47.54021679939844
 30
0.0
 10
27.33793819221529
 20
47.75489887547866
 30
0.0
 10
27.26083356380308
 20
47.96943218016386
 30
0.0
 10
27.20312185661238
 20
48.1792263138852
 30
0.0
 10
27.16526600489688
 20
48.37970639480906
 30
0.0
 10
27.14698394499792
 20
48.56641586332886
 30
0.0
 10
27.14715167253515
 20
48.73519090073727
 30
0.0
 10
27.16371530892526
 20
48.88242939191202
 30
0.0
 10
27.19367476330696
 20
49.00523845242068
 30
0.0
 10
27.23307813156831
 20
49.10224479885446
 30
0.0
 10
27.27807151151527
 20
49.17371536715461
 30
0.0
 10
27.32100758150401
 20
49.22074321694866
 30
0.0
 10
27.35104212993213
 20
49.23852737987154
 30
0.0
 10
27.36491767988868
 20
49.24674341953209
 30
0.0
  0
SPLINE
  5
194
330
1F
100
AcDbEntity
  8
0
  6
Continuous
 62
     7
370
    25
100
AcDbSpline
210
0.0
220
0.0
230
1.0
 70
     8
 71
     3
 72
    22
 73
    18
 74
     0
 42
0.00000001
 43
0.00000001
 40
0.0
 40
0.0
 40
0.0
 40
0.0
 40
0.0038914832786943
 40
0.078953579262453
 40
0.1540524995258604
 40
0.2289712642464219
 40
0.3035372534334461
 40
0.3775896435117931
 40
0.4509851174942289
 40
0.5236241799788174
 40
0.5955029044221495
 40
0.6668077523820388
 40
0.7380429200641573
 40
0.809987483160848
 40
0.884583132386697
 40
0.9658493420084507
 40
1.0
 40
1.0
 40
1.0
 40
1.0
 10
27.62887804850468
 20
60.26333006446324
 30
0.0
 10
27.62656411160933
 20
60.26668938038134
 30
0.0
 10
27.5796170770233
 20
60.33484591520683
 30
0.0
 10
27.49968570297674
 20
60.47829797926671
 30
0.0
 10
27.39301902023984
 20
60.68984322155168
 30
0.0
 10
27.30503582779208
 20
60.90529822091367
 30
0.0
 10
27.23547540091307
 20
61.11841997869454
 30
0.0
 10
27.1856734701841
 20
61.32507057279641
 30
0.0
 10
27.15568405191586
 20
61.52058472337232
 30
0.0
 10
27.14493319597848
 20
61.70063099461769
 30
0.0
 10
27.151929844717
 20
61.86121799333601
 30
0.0
 10
27.17423293397064
 20
61.99904162466731
 30
0.0
 10
27.20849698219626
 20
62.11159704668617
 30
0.0
 10
27.25043269964698
 20
62.19842840567051
 30
0.0
 10
27.29703021692612
 20
62.26042811388972
 30
0.0
 10
27.33293578459429
 20
62.29559931793954
 30
0.0
 10
27.3586349264458
 20
62.30773654349171
 30
0.0
 10
27.3662390368518
 20
62.31132782306261
 30
0.0
  0
SPLINE
  5
195
330
1F
100
AcDbEntity
  8
0
  6
Continuous
 62
     7
370
    25
100
AcDbSpline
210
0.0
220
0.0
230
1.0
 70
     8
 71
     3
 72
    22
 73
    18
 74
     0
 42
0.00000001
 43
0.00000001
 40
0.0
 40
0.0
 40
0.0
 40
0.0
 40
0.0277397965605932
 40
0.1156188252661344
 40
0.1907944533878998
 40
0.2611452821791097
 40
0.3359427660612435
 40
0.4084905691450255
 40
0.4806067150183211
 40
0.5529101695353302
 40
0.6257782466239113
 40
0.699303958370895
 40
0.7734323453594502
 40
0.8480400869487789
 40
0.9229745781981944
 40
0.9980722858328175
 40
1.0
 40
1.0
 40
1.0
 40
1.0
 10
34.77093469449679
 20
49.48589209786979
 30
0.0
 10
34.76531465215989
 20
49.481991418401
 30
0.0
 10
34.74189044674007
 20
49.46573347732573
 30
0.0
 10
34.69400380194987
 20
49.45201081183632
 30
0.0
 10
34.61502344738411
 20
49.4424512790513
 30
0.0
 10
34.51783228453274
 20
49.44961568021107
 30
0.0
 10
34.40126588055303
 20
49.47682071248632
 30
0.0
 10
34.26707613929268
 20
49.52867121758813
 30
0.0
 10
34.12330155914906
 20
49.60463163432593
 30
0.0
 10
33.97300106749853
 20
49.70493268396169
 30
0.0
 10
33.819687364097
 20
49.82890210052555
 30
0.0
 10
33.6668381726433
 20
49.97514003487903
 30
0.0
 10
33.51816998292877
 20
50.14153556067789
 30
0.0
 10
33.37643350223304
 20
50.32507752654772
 30
0.0
 10
33.24721883668344
 20
50.52309731178152
 30
0.0
 10
33.1641436620169
 20
50.66219593950597
 30
0.0
 10
33.12954623393513
 20
50.73511162841488
 30
0.0
 10
33.12868036458055
 20
50.73693648835373
 30
0.0
  0
ARC
  5
196
330
1F
100
AcDbEntity
  8
0
  6
Continuous
 62
     7
370
    25
100
AcDbCircle
 10
22.9102525754
 20
63.4950138798
 30
0.0
 40
5.34207520231528
100
AcDbArc
 50
115.3995507343
 51
124.6566619515
  0
ARC
  5
197
330
1F
100
AcDbEntity
  8
0
  6
Continuous
 62
     7
370
    25
100
AcDbCircle
 10
33.5672827753
 20
45.0344987628
 30
0.0
 40
5.342121024713603
100
AcDbArc
 50
295.0452027754
 51
304.9400882327
  0
LWPOLYLINE
  5
198
330
1F
100
AcDbEntity
  8
0
  6
Continuous
 62
     7
370
    25
100
AcDbPolyline
 90
        3
 70
   128
 43
0.0
 10
33.0105169964
 20
38.566622801
 10
33.1706899339
 20
38.645169127
 10
33.4097023928
 20
38.7751398105
  0
LWPOLYLINE
  5
199
330
1F
100
AcDbEntity
  8
0
  6
Continuous
 62
     7
370
    25
100
AcDbPolyline
 90
        3
 70
   128
 43
0.0
 10
17.4110026706
 20
66.4887034067
 10
17.0865866706
 20
66.2855780684
 10
17.0367064112
 20
66.2513915543
  0
LWPOLYLINE
  5
19A
330
1F
100
AcDbEntity
  8
0
  6
Continuous
 62
     7
370
    25
100
AcDbPolyline
 90
       44
 70
   128
 43
0.0
 10
24.3966486696
 20
56.1640680588
 10
24.3049902166
 20
56.0088054798
 10
24.1912028138
 20
55.8814267097
 10
24.05712507
 20
55.7839899704
 10
23.904923451
 20
55.718069672
 10
23.7370572731
 20
55.6847309733
 10
23.5562389654
 20
55.6845125702
 10
23.3653902407
 20
55.7174179918
 10
23.1675948862
 20
55.7829155431
 10
22.9660489348
 20
55.8799468962
 10
22.7640090226
 20
56.0069441913
 10
22.5647397671
 20
56.1618553705
 10
22.3714610169
 20
56.3421773354
 10
22.1872958243
 20
56.5449963933
 10
22.0152199821
 20
56.7670353367
 10
21.8580139401
 20
57.0047063982
 10
21.7182178776
 20
57.254169222
 10
21.5980906586
 20
57.5113929179
 10
21.4995733325
 20
57.7722211931
 10
21.4242577698
 20
58.0324395113
 10
21.3733609406
 20
58.2878431918
 10
21.3477052501
 20
58.5343053502
 10
21.3477052501
 20
58.7678435819
 10
21.3733609406
 20
58.9846843105
 10
21.4242577698
 20
59.1813237628
 10
21.4995733325
 20
59.3545845833
 10
21.5980906586
 20
59.5016671749
 10
21.7182178776
 20
59.620194936
 10
21.8580139401
 20
59.7082526617
 10
22.0152199821
 20
59.7644174906
 10
22.1872958243
 20
59.7877818955
 10
22.3714610169
 20
59.7779683479
 10
22.5647397671
 20
59.7351354179
 10
22.7640090226
 20
59.6599752119
 10
22.9660489348
 20
59.5537021896
 10
23.1675948862
 20
59.4180335405
 10
23.3653902407
 20
59.2551614364
 10
23.5562389654
 20
59.0677176107
 10
23.7370572731
 20
58.8587308333
 10
23.904923451
 20
58.6315779711
 10
24.05712507
 20
58.3899294238
 10
24.1912028138
 20
58.1376898165
 10
24.3049902166
 20
57.8789349076
 10
24.3966486696
 20
57.6178457314
  0
ARC
  5
19B
330
1F
100
AcDbEntity
  8
0
  6
Continuous
 62
     7
370
    25
100
AcDbCircle
 10
33.9040403112
 20
57.5352536567
 30
0.0
 40
9.605761071930477
100
AcDbArc
 50
188.2067865565
 51
231.7932135891
  0
LWPOLYLINE
  5
19C
330
1F
100
AcDbEntity
  8
0
  6
Continuous
 62
     7
370
    25
100
AcDbPolyline
 90
       44
 70
   128
 43
0.0
 10
29.2218031456
 20
49.2604330492
 10
29.4020789782
 20
49.0505182278
 10
29.5692707088
 20
48.8226030033
 10
29.7206768065
 20
48.5803700937
 10
29.8538508091
 20
48.3277335665
 10
29.9666408537
 20
48.0687755934
 10
30.0572244471
 20
47.8076804902
 10
30.1241379142
 20
47.5486671047
 10
30.1663000484
 20
47.2959206479
 10
30.1830295821
 20
47.053525068
 10
30.1740561948
 20
46.8253970607
 10
30.1395248811
 20
46.6152227826
 10
30.0799936075
 20
46.4263982884
 10
29.9964242971
 20
46.2619746574
 10
29.8901672863
 20
46.1246086928
 10
29.7629395056
 20
46.0165199923
 10
29.6167967373
 20
45.9394550835
 10
29.4541003972
 20
45.8946592028
 10
29.2774793785
 20
45.8828561747
 10
29.089787573
 20
45.9042367157
 10
28.8940577577
 20
45.9584553532
 10
28.6934525899
 20
46.044636007
 10
28.4912135041
 20
46.1613861462
 10
28.2906083363
 20
46.306819289
 10
28.0948785211
 20
46.4785854861
 10
27.9071867156
 20
46.6739092909
 10
27.7305656968
 20
46.8896346067
 10
27.5678693567
 20
47.1222756833
 10
27.4217265884
 20
47.3680734407
 10
27.2944988078
 20
47.6230562101
 10
27.188241797
 20
47.883103908
 10
27.1046724866
 20
48.144014611
 10
27.045141213
 20
48.4015724506
 10
27.0106098992
 20
48.651615735
 10
27.001636512
 20
48.8901041947
 10
27.0183660457
 20
49.1131842661
 10
27.0605281799
 20
49.3172513589
 10
27.127441647
 20
49.4990080998
 10
27.2180252404
 20
49.6555176122
 10
27.330815285
 20
49.7842509717
 10
27.4639892876
 20
49.8831280684
 10
27.6153953853
 20
49.9505512185
 10
27.7825871159
 20
49.9854309797
 10
27.9628629485
 20
49.9872037552
  0
LWPOLYLINE
  5
19D
330
1F
100
AcDbEntity
  8
0
  6
Continuous
 62
     7
370
    25
100
AcDbPolyline
 90
       75
 70
   128
 43
0.0
 10
39.1989347648
 20
56.5091966395
 10
39.4987689862
 20
56.3508140159
 10
39.7964428952
 20
56.2229885191
 10
40.0898117444
 20
56.1266411347
 10
40.3767618046
 20
56.0624660478
 10
40.6552255939
 20
56.0309256413
 10
40.9231967744
 20
56.0322471646
 10
41.1787446077
 20
56.0664210961
 10
41.4200278657
 20
56.1332012119
 10
41.6453080969
 20
56.2321063596
 10
41.8529621523
 20
56.3624239254
 10
42.0414938795
 20
56.5232149683
 10
42.2095449032
 20
56.7133209852
 10
42.3559044118
 20
56.9313722577
 10
42.4795178818
 20
57.1757977216
 10
42.5794946752
 20
57.4448362857
 10
42.6551144571
 20
57.736549521
 10
42.705832385
 20
58.0488356269
 10
42.7312830352
 20
58.379444575
 10
42.7312830352
 20
58.7259943202
 10
42.705832385
 20
59.0859879635
 10
42.6551144571
 20
59.4568317427
 10
42.5794946752
 20
59.8358537196
 10
42.4795178818
 20
60.2203230324
 10
42.3559044118
 20
60.6074695708
 10
42.2095449032
 20
60.9945039351
 10
42.0414938795
 20
61.3786375339
 10
41.8529621523
 20
61.7571026757
 10
41.6453080969
 20
62.1271725106
 10
41.4200278657
 20
62.4861806769
 10
41.1787446077
 20
62.8315405126
 10
40.9231967744
 20
63.1607636921
 10
40.6552255939
 20
63.4714781548
 10
40.3767618046
 20
63.761445196
 10
40.0898117444
 20
64.0285755965
 10
39.7964428952
 20
64.2709446756
 10
39.4987689862
 20
64.4868061585
 10
39.1989347648
 20
64.6746047583
 10
38.8991005434
 20
64.8329873819
 10
38.6014266345
 20
64.9608128786
 10
38.3080577853
 20
65.0571602631
 10
38.0211077251
 20
65.12133535
 10
37.7426439358
 20
65.1528757565
 10
37.4746727552
 20
65.1515542332
 10
37.219124922
 20
65.1173803017
 10
36.977841664
 20
65.0506001859
 10
36.7525614327
 20
64.9516950382
 10
36.5449073774
 20
64.8213774724
 10
36.3563756501
 20
64.6605864294
 10
36.1883246265
 20
64.4704804126
 10
36.0419651179
 20
64.2524291401
 10
35.9183516479
 20
64.0080036762
 10
35.8183748544
 20
63.7389651121
 10
35.7427550726
 20
63.4472518768
 10
35.6920371447
 20
63.1349657709
 10
35.6665864944
 20
62.8043568228
 10
35.6665864944
 20
62.4578070776
 10
35.6920371447
 20
62.0978134343
 10
35.7427550726
 20
61.7269696551
 10
35.8183748544
 20
61.3479476781
 10
35.9183516479
 20
60.9634783654
 10
36.0419651179
 20
60.576331827
 10
36.1883246265
 20
60.1892974627
 10
36.3563756501
 20
59.8051638639
 10
36.5449073774
 20
59.4266987221
 10
36.7525614327
 20
59.0566288872
 10
36.977841664
 20
58.6976207209
 10
37.219124922
 20
58.3522608852
 10
37.4746727552
 20
58.0230377057
 10
37.7426439358
 20
57.712323243
 10
38.0211077251
 20
57.4223562018
 10
38.3080577853
 20
57.1552258013
 10
38.6014266345
 20
56.9128567222
 10
38.8991005434
 20
56.6969952393
 10
39.1989347648
 20
56.5091966395
  0
LINE
  5
19E
330
1F
100
AcDbEntity
  8
0
  6
Continuous
 62
     7
370
    25
100
AcDbLine
 10
36.0956048595
 20
65.151067414
 30
0.0
 11
36.1128532493
 21
65.1609005766
 31
0.0
  0
SPLINE
  5
19F
330
1F
100
AcDbEntity
  8
0
  6
Continuous
 62
     7
370
    25
100
AcDbSpline
210
0.0
220
0.0
230
1.0
 70
    11
 71
     3
 72
    38
 73
    34
 74
     0
 42
0.00000001
 43
0.00000001
 40
0.0
 40
0.0
 40
0.0
 40
0.0
 40
0.0625
 40
0.0625
 40
0.125
 40
0.125
 40
0.1875
 40
0.1875
 40
0.25
 40
0.25
 40
0.3125
 40
0.3125
 40
0.375
 40
0.375
 40
0.4375
 40
0.4375
 40
0.5
 40
0.5
 40
0.5625
 40
0.5625
 40
0.625
 40
0.625
 40
0.6875
 40
0.6875
 40
0.75
 40
0.75
 40
0.8125
 40
0.8125
 40
0.875
 40
0.875
 40
0.9375
 40
0.9375
 40
1.0
 40
1.0
 40
1.0
 40
1.0
 10
34.60274068711932
 20
52.70604657500076
 30
0.0
 10
34.50910196226411
 20
52.65199008976649
 30
0.0
 10
34.39872829733147
 20
52.60554422921138
 30
0.0
 10
34.15651834164186
 20
52.53377415396076
 30
0.0
 10
34.02567553540331
 20
52.50910344043754
 30
0.0
 10
33.76536104834745
 20
52.48963574759856
 30
0.0
 10
33.63397410986169
 20
52.49495733865645
 30
0.0
 10
33.39329338403039
 20
52.53866526200254
 30
0.0
 10
33.28143624478122
 20
52.57763002855176
 30
0.0
 10
33.09644115190625
 20
52.68427862192881
 30
0.0
 10
33.02202771582134
 20
52.75240848921538
 30
0.0
 10
32.92156505138501
 20
52.9061857522511
 30
0.0
 10
32.8956661577901
 20
52.99069930959185
 30
0.0
 10
32.89560171404594
 20
53.16231319941668
 30
0.0
 10
32.92148487583844
 20
53.2469201062678
 30
0.0
 10
33.0215128505379
 20
53.40055127802253
 30
0.0
 10
33.09589077863588
 20
53.46892640264239
 30
0.0
 10
33.28059987707641
 20
53.57565746154004
 30
0.0
 10
33.39240088207431
 20
53.61465857429851
 30
0.0
 10
33.63316474227706
 20
53.65838773432517
 30
0.0
 10
33.76435135361288
 20
53.66371107386409
 30
0.0
 10
34.02507546513289
 20
53.64433357690781
 30
0.0
 10
34.15550792063314
 20
53.61987549255286
 30
0.0
 10
34.39830260062718
 20
53.54820776006665
 30
0.0
 10
34.50871591788573
 20
53.50181209014769
 30
0.0
 10
34.69569238796094
 20
53.39400673497165
 30
0.0
 10
34.76939666363673
 20
53.33414184917803
 30
0.0
 10
34.86956948737121
 20
53.20833107086288
 30
0.0
 10
34.89553785085329
 20
53.14239037848838
 30
0.0
 10
34.89572941876474
 20
53.01168149607584
 30
0.0
 10
34.86977672936414
 20
52.9456184255788
 30
0.0
 10
34.77048236274846
 20
52.82051247479905
 30
0.0
 10
34.69637941197452
 20
52.76010306023502
 30
0.0
 10
34.60274068711932
 20
52.70604657500076
 30
0.0
  0
LINE
  5
1A0
330
1F
100
AcDbEntity
  8
0
  6
Continuous
 62
     7
370
    25
100
AcDbLine
 10
37.3281060714
 20
64.1215295507
 30
0.0
 11
41.0697634582
 21
61.9615167184
 31
0.0
  0
LWPOLYLINE
  5
1A1
330
1F
100
AcDbEntity
  8
0
  6
Continuous
 62
     7
370
    25
100
AcDbPolyline
 90
       52
 70
   128
 43
0.0
 10
37.3281060714
 20
64.1215295507
 10
37.13559565
 20
64.017032122
 10
36.9616370038
 20
63.8817388499
 10
36.8077942198
 20
63.7168661754
 10
36.6754505203
 20
63.5238964921
 10
36.5657958264
 20
63.3045648178
 10
36.4798160589
 20
63.0608431949
 10
36.4182842742
 20
62.7949229591
 10
36.3817537132
 20
62.5091950369
 10
36.3705528276
 20
62.2062284489
 10
36.384782326
 20
61.8887472106
 10
36.4243142689
 20
61.559605841
 10
36.4887932191
 20
61.2217636969
 10
36.5776394372
 20
60.8782583651
 10
36.6900540942
 20
60.5321783508
 10
36.8250264538
 20
60.1866353086
 10
36.9813429606
 20
59.8447360651
 10
37.1575981504
 20
59.5095546851
 10
37.3522072879
 20
59.1841048319
 10
37.5634206146
 20
58.8713126715
 10
37.7893390816
 20
58.5739905626
 10
38.0279314236
 20
58.2948117705
 10
38.2770524232
 20
58.0362864315
 10
38.5344621979
 20
57.8007389836
 10
38.79784634
 20
57.5902872675
 10
39.064836725
 20
57.4068234843
 10
39.3330328046
 20
57.2519971831
 10
39.6000231897
 20
57.1272004292
 10
39.8634073317
 20
57.0335552878
 10
40.1208171065
 20
56.9719037359
 10
40.369938106
 20
56.9428000911
 10
40.6085304481
 20
56.9465060286
 10
40.834448915
 20
56.9829882278
 10
41.0456622418
 20
57.0519186719
 10
41.2402713793
 20
57.1526775976
 10
41.4165265691
 20
57.2843590671
 10
41.5728430758
 20
57.4457791135
 10
41.7078154355
 20
57.6354863863
 10
41.8202300924
 20
57.8517752003
 10
41.9090763105
 20
58.0927008723
 10
41.9735552607
 20
58.3560972051
 10
42.0130872037
 20
58.6395959649
 10
42.0273167021
 20
58.940648174
 10
42.0161158164
 20
59.2565470293
 10
41.9795852555
 20
59.5844522393
 10
41.9180534708
 20
59.9214155616
 10
41.8320737033
 20
60.264407311
 10
41.7224190093
 20
60.6103436001
 10
41.5900753099
 20
60.9561140664
 10
41.4362325258
 20
61.2986098385
 10
41.2622738797
 20
61.6347514883
 10
41.0697634582
 20
61.9615167184
  0
LINE
  5
1A2
330
1F
100
AcDbEntity
  8
0
  6
Continuous
 62
     7
370
    25
100
AcDbLine
 10
37.077310387
 20
59.6567226194
 30
0.0
 11
41.0697634582
 21
61.9615167184
 31
0.0
  0
LINE
  5
1A3
330
1F
100
AcDbEntity
  8
0
  6
Continuous
 62
     7
370
    25
100
AcDbLine
 10
37.3281060714
 20
64.1215295507
 30
0.0
 11
37.0779185116
 21
63.9770993466
 31
0.0
  0
ARC
  5
1A4
330
1F
100
AcDbEntity
  8
0
  6
Continuous
 62
     7
370
    25
100
AcDbCircle
 10
23.9599579073
 20
55.7797587351
 30
0.0
 40
0.5817151176741969
100
AcDbArc
 50
41.349363465
 51
114.536126727
  0
ARC
  5
1A5
330
1F
100
AcDbEntity
  8
0
  6
Continuous
 62
     7
370
    25
100
AcDbCircle
 10
24.3922175274
 20
56.2547326562
 30
0.0
 40
1.363120277485675
100
AcDbArc
 50
89.8137462991
 51
119.6253579022
  0
ARC
  5
1A6
330
1F
100
AcDbEntity
  8
0
  6
Continuous
 62
     7
370
    25
100
AcDbCircle
 10
28.0394634531
 20
49.9377563528
 30
0.0
 40
1.362605594459884
100
AcDbArc
 50
300.3697603182
 51
330.1930315465
  0
ARC
  5
1A7
330
1F
100
AcDbEntity
  8
0
  6
Continuous
 62
     7
370
    25
100
AcDbCircle
 10
27.4117561277
 20
49.8011696747
 30
0.0
 40
0.5816591846447215
100
AcDbArc
 50
305.4594123342
 51
18.652854695
  0
SPLINE
  5
1A8
330
1F
100
AcDbEntity
  8
0
  6
Continuous
 62
     7
370
    25
100
AcDbSpline
210
0.0
220
0.0
230
1.0
 70
     8
 71
     3
 72
    14
 73
    10
 74
     0
 42
0.00000001
 43
0.00000001
 40
0.0
 40
0.0
 40
0.0
 40
0.0
 40
0.2500000000000001
 40
0.2500000000000001
 40
0.5000000000000001
 40
0.5000000000000001
 40
0.7500000000000001
 40
0.7500000000000001
 40
1.0
 40
1.0
 40
1.0
 40
1.0
 10
24.39664866960257
 20
57.61784573142894
 30
0.0
 10
24.41261877352985
 20
57.48833695301382
 30
0.0
 10
24.42616657579386
 20
57.36361920966723
 30
0.0
 10
24.4444715159157
 20
57.11688981352374
 30
0.0
 10
24.44930787570631
 20
56.99501416764929
 30
0.0
 10
24.44930712367981
 20
56.75199655794209
 30
0.0
 10
24.4444530953507
 20
56.63078951684357
 30
0.0
 10
24.42614700129726
 20
56.39254533131373
 30
0.0
 10
24.41263205333735
 20
56.27523050708516
 30
0.0
 10
24.39664866960254
 20
56.16406805877422
 30
0.0
  0
SPLINE
  5
1A9
330
1F
100
AcDbEntity
  8
0
  6
Continuous
 62
     7
370
    25
100
AcDbSpline
210
0.0
220
0.0
230
1.0
 70
     8
 71
     3
 72
    14
 73
    10
 74
     0
 42
0.00000001
 43
0.00000001
 40
0.0
 40
0.0
 40
0.0
 40
0.0
 40
0.2499999999999999
 40
0.2499999999999999
 40
0.4999999999999998
 40
0.4999999999999998
 40
0.7499999999999999
 40
0.7499999999999999
 40
1.0
 40
1.0
 40
1.0
 40
1.0
 10
27.96286294847448
 20
49.98720375521978
 30
0.0
 10
28.0670310108737
 20
49.94551049936999
 30
0.0
 10
28.17562889857365
 20
49.89846208385263
 30
0.0
 10
28.39121869215699
 20
49.79514157478291
 30
0.0
 10
28.49834840678232
 20
49.73888138080005
 30
0.0
 10
28.70879623784426
 20
49.61739156553382
 30
0.0
 10
28.81216713316019
 20
49.55211194221751
 30
0.0
 10
29.0165579561588
 20
49.41298146918852
 30
0.0
 10
29.1175484631053
 20
49.33907501789687
 30
0.0
 10
29.22180314559331
 20
49.26043304917253
 30
0.0
  0
SPLINE
  5
1AA
330
1F
100
AcDbEntity
  8
0
  6
Continuous
 62
     7
370
    25
100
AcDbSpline
210
0.0
220
0.0
230
1.0
 70
     8
 71
     3
 72
    14
 73
    10
 74
     0
 42
0.00000001
 43
0.00000001
 40
0.0
 40
0.0
 40
0.0
 40
0.0
 40
0.25
 40
0.25
 40
0.5
 40
0.5
 40
0.75
 40
0.75
 40
1.0
 40
1.0
 40
1.0
 40
1.0
 10
23.71839086299576
 20
56.30894475276035
 30
0.0
 10
23.7519547279082
 20
56.37953724242999
 30
0.0
 10
23.78357194401826
 20
56.46099626886512
 30
0.0
 10
23.82862012404015
 20
56.63683724869109
 30
0.0
 10
23.8418291637338
 20
56.73244092465364
 30
0.0
 10
23.84180253151576
 20
56.92582071279084
 30
0.0
 10
23.82899059605073
 20
57.023831883023
 30
0.0
 10
23.78396881286537
 20
57.22637045768375
 30
0.0
 10
23.75188375764619
 20
57.3305474243671
 30
0.0
 10
23.71839086299572
 20
57.43966072038062
 30
0.0
  0
SPLINE
  5
1AB
330
1F
100
AcDbEntity
  8
0
  6
Continuous
 62
     7
370
    25
100
AcDbSpline
210
0.0
220
0.0
230
1.0
 70
     8
 71
     3
 72
    14
 73
    10
 74
     0
 42
0.00000001
 43
0.00000001
 40
0.0
 40
0.0
 40
0.0
 40
0.0
 40
0.25
 40
0.25
 40
0.5
 40
0.5
 40
0.75
 40
0.75
 40
1.0
 40
1.0
 40
1.0
 40
1.0
 10
28.72836751087584
 20
48.76212664698639
 30
0.0
 10
28.65045672796149
 20
48.84586189697382
 30
0.0
 10
28.57741640258496
 20
48.92453632470185
 30
0.0
 10
28.4251928834608
 20
49.06443094924306
 30
0.0
 10
28.34483174079715
 20
49.12607491326345
 30
0.0
 10
28.17736549009033
 20
49.22272036966222
 30
0.0
 10
28.09009949338295
 20
49.25830403241559
 30
0.0
 10
27.91458464056202
 20
49.30763923018293
 30
0.0
 10
27.82693784380058
 20
49.32118727563119
 30
0.0
 10
27.74919180200556
 20
49.32739275168977
 30
0.0
  0
LWPOLYLINE
  5
1AC
330
1F
100
AcDbEntity
  8
0
  6
Continuous
 62
     7
370
    25
100
AcDbPolyline
 90
       43
 70
   128
 43
0.0
 10
28.592333047
 20
41.812457276
 10
29.1178161388
 20
41.523657387
 10
29.6420906026
 20
41.2646318325
 10
30.1639505904
 20
41.0359763796
 10
30.6821958074
 20
40.8382169432
 10
31.1956342732
 20
40.6718083762
 10
31.7030850627
 20
40.5371334239
 10
32.2033810229
 20
40.4345018427
 10
32.695371457
 20
40.3641496888
 10
33.1779247713
 20
40.3262387742
 10
33.6499310777
 20
40.3208562954
 10
34.1103047466
 20
40.3480146321
 10
34.5579869037
 20
40.4076513193
 10
34.9919478657
 20
40.4996291908
 10
35.4111895086
 20
40.6237366945
 10
35.8147475632
 20
40.7796883792
 10
36.2016938329
 20
40.9671255509
 10
36.5711383289
 20
41.1856170982
 10
36.9222313171
 20
41.4346604835
 10
37.2541652724
 20
41.7136828991
 10
37.5661767359
 20
42.0220425844
 10
37.8575480714
 20
42.3590303023
 10
38.1276091155
 20
42.7238709703
 10
38.375738719
 20
43.1157254431
 10
38.601366176
 20
43.5336924428
 10
38.803972536
 20
43.9768106321
 10
38.983091798
 20
44.4440608248
 10
39.1383119818
 20
44.9343683305
 10
39.2692760762
 20
45.4466054263
 10
39.3756828594
 20
45.9795939504
 10
39.4572875926
 20
46.5321080121
 10
39.513902582
 20
47.1028768114
 10
39.5453976116
 20
47.6905875618
 10
39.5517002417
 20
48.2938885097
 10
39.532795976
 20
48.9113920435
 10
39.488728295
 20
49.5416778854
 10
39.4195985558
 20
50.1832963578
 10
39.3255657589
 20
50.8347717176
 10
39.2068461829
 20
51.4946055505
 10
39.0637128864
 20
52.1612802177
 10
38.8964950808
 20
52.8332623459
 10
38.7055773723
 20
53.5090063549
 10
38.588386725
 20
53.8887578818
  0
LWPOLYLINE
  5
1AD
330
1F
100
AcDbEntity
  8
0
  6
Continuous
 62
     7
370
    25
100
AcDbPolyline
 90
       77
 70
   128
 43
0.0
 10
33.0888336955
 20
63.415295368
 10
32.9378976611
 20
63.5792657381
 10
32.4504856338
 20
64.0878725823
 10
31.9541997319
 20
64.5743553429
 10
31.450181429
 20
65.0375950941
 10
30.9395899831
 20
65.4765263695
 10
30.4235997711
 20
65.8901396133
 10
29.903397587
 20
66.2774835016
 10
29.3801799124
 20
66.6376671311
 10
28.8551501647
 20
66.9698620679
 10
28.3295159293
 20
67.2733042531
 10
27.8044861817
 20
67.5472957599
 10
27.2812685071
 20
67.7912063989
 10
26.7610663229
 20
68.004475168
 10
26.2450761109
 20
68.1866115422
 10
25.7344846651
 20
68.3371966018
 10
25.2304663621
 20
68.4558839966
 10
24.7341804603
 20
68.5424007416
 10
24.246768433
 20
68.5965478456
 10
23.7693513436
 20
68.6182007685
 10
23.3030272667
 20
68.6073097079
 10
22.8488687625
 20
68.5638997136
 10
22.4079204103
 20
68.4880706299
 10
21.9811964053
 20
68.3799968662
 10
21.5696782265
 20
68.2399269956
 10
21.1743123787
 20
68.0681831833
 10
20.7960082163
 20
67.8651604456
 10
20.4356358507
 20
67.6313257412
 10
20.0940241502
 20
67.3672168975
 10
19.7719588324
 20
67.0734413732
 10
19.4701806579
 20
66.7506748616
 10
19.1893837263
 20
66.3996597359
 10
18.9302138794
 20
66.0212033421
 10
18.6932672163
 20
65.6161761422
 10
18.4790887217
 20
65.1855097115
 10
18.2881710132
 20
64.7301945968
 10
18.1209532076
 20
64.2512780374
 10
17.9778199112
 20
63.7498615567
 10
17.8591003351
 20
63.2270984286
 10
17.7650675383
 20
62.6841910252
 10
17.695937799
 20
62.1223880509
 10
17.651870118
 20
61.5429816704
 10
17.6329658524
 20
60.9473045371
 10
17.6392684824
 20
60.3367267274
 10
17.670763512
 20
59.7126525899
 10
17.7273785015
 20
59.0765175151
 10
17.8089832346
 20
58.429784634
 10
17.9153900179
 20
57.773941453
 10
18.0463541122
 20
57.1104964324
 10
18.2015742961
 20
56.4409755171
 10
18.3806935581
 20
55.7669186265
 10
18.5832999181
 20
55.0898761132
 10
18.8089273751
 20
54.4114051966
 10
19.0570569786
 20
53.7330663816
 10
19.3271180226
 20
53.0564198691
 10
19.6184893581
 20
52.3830219679
 10
19.9305008217
 20
51.7144215147
 10
20.262434777
 20
51.052156312
 10
20.6135277652
 20
50.3977495909
 10
20.9829722612
 20
49.7527065078
 10
21.3699185309
 20
49.1185106827
 10
21.7734765854
 20
48.496620786
 10
22.1927182283
 20
47.8884671847
 10
22.6266791904
 20
47.2954486513
 10
23.0743613475
 20
46.7189291476
 10
23.5347350164
 20
46.1602346869
 10
24.0067413227
 20
45.6206502844
 10
24.489294637
 20
45.1014170014
 10
24.9812850712
 20
44.6037290912
 10
25.4815810314
 20
44.1287312519
 10
25.9890318209
 20
43.6775159937
 10
26.5024702866
 20
43.2511211262
 10
27.0207155037
 20
42.8505273713
 10
27.5425754915
 20
42.4766561075
 10
28.0668499553
 20
42.1303672505
 10
28.592333047
 20
41.812457276
 10
28.592333047
 20
41.812457276
  0
LWPOLYLINE
  5
1AE
330
1F
100
AcDbEntity
  8
0
  6
Continuous
 62
     7
370
    25
100
AcDbPolyline
 90
       50
 70
   128
 43
0.0
 10
28.2387796564
 20
41.2000848421
 10
27.7044962864
 20
41.5230962411
 10
27.1714051114
 20
41.8745392248
 10
26.6406956664
 20
42.2536295864
 10
26.1135521717
 20
42.6595214271
 10
25.5911508906
 20
43.0913090436
 10
25.0746575044
 20
43.5480289487
 10
24.5652245121
 20
44.0286620218
 10
24.0639886577
 20
44.5321357826
 10
23.5720683945
 20
45.0573267843
 10
23.0905613889
 20
45.6030631203
 10
22.6205420713
 20
46.1681270395
 10
22.1630592386
 20
46.7512576633
 10
21.7191337139
 20
47.3511537993
 10
21.2897560687
 20
47.9664768447
 10
20.8758844123
 20
48.5958537731
 10
20.4784422543
 20
49.2378801985
 10
20.0983164434
 20
49.8911235089
 10
19.7363551891
 20
50.5541260631
 10
19.3933661685
 20
51.225408443
 10
19.0701147241
 20
51.9034727552
 10
18.7673221563
 20
52.5868059732
 10
18.4856641137
 20
53.2738833132
 10
18.2257690856
 20
53.9631716371
 10
17.9882169994
 20
54.6531328731
 10
17.7735379267
 20
55.3422274479
 10
17.5822109005
 20
56.0289177221
 10
17.4146628461
 20
56.711671421
 10
17.2712676288
 20
57.3889650544
 10
17.1523452193
 20
58.0592873151
 10
17.0581609802
 20
58.7211424522
 10
16.9889250732
 20
59.3730536081
 10
16.9447919907
 20
60.013566114
 10
16.9258602109
 20
60.641250736
 10
16.932171978
 20
61.2547068644
 10
16.963713208
 20
61.8525656387
 10
17.02041352
 20
62.4334930021
 10
17.1021463935
 20
62.9961926785
 10
17.2087294505
 20
63.539409065
 10
17.3399248625
 20
64.0619300334
 10
17.4954398813
 20
64.562589635
 10
17.6749274919
 20
65.0402707026
 10
17.8779871875
 20
65.4939073429
 10
18.1041658624
 20
65.9224873151
 10
18.3529588235
 20
66.3250542898
 10
18.6238109165
 20
66.7007099826
 10
18.9161177644
 20
67.0486161588
 10
19.2292271164
 20
67.3679965036
 10
19.562440303
 20
67.6581383547
 10
19.872441458
 20
67.8892682059
  0
ARC
  5
1AF
330
1F
100
AcDbEntity
  8
0
  6
Continuous
 62
     7
370
    25
100
AcDbCircle
 10
32.9993343901
 20
47.986511482
 30
0.0
 40
8.28966030126235
100
AcDbArc
 50
234.9510392325
 51
289.9574517078
  0
ARC
  5
1B0
330
1F
100
AcDbEntity
  8
0
  6
Continuous
 62
     7
370
    25
100
AcDbCircle
 10
30.1692027021
 20
46.3490368209
 30
0.0
 40
8.284867826055752
100
AcDbArc
 50
234.9421887133
 51
290.0568452262
  0
LWPOLYLINE
  5
1B1
330
1F
100
AcDbEntity
  8
0
  6
Continuous
 62
     7
370
    25
100
AcDbPolyline
 90
       50
 70
   128
 43
0.0
 10
17.0367064112
 20
66.2513915543
 10
16.7340131782
 20
66.025322131
 10
16.4007999916
 20
65.73518028
 10
16.0876906397
 20
65.4157999351
 10
15.7953837917
 20
65.0678937589
 10
15.5245316988
 20
64.6922380661
 10
15.2757387377
 20
64.2896710914
 10
15.0495600628
 20
63.8610911192
 10
14.8465003672
 20
63.407454479
 10
14.6670127565
 20
62.9297734114
 10
14.5114977378
 20
62.4291138098
 10
14.3803023257
 20
61.9065928414
 10
14.2737192687
 20
61.3633764549
 10
14.1919863952
 20
60.8006767784
 10
14.1352860832
 20
60.219749415
 10
14.1037448532
 20
59.6218906408
 10
14.0974330861
 20
59.0084345124
 10
14.1163648659
 20
58.3807498903
 10
14.1604979484
 20
57.7402373844
 10
14.2297338554
 20
57.0883262286
 10
14.3239180946
 20
56.4264710915
 10
14.442840504
 20
55.7561488307
 10
14.5862357213
 20
55.0788551974
 10
14.7537837757
 20
54.3961014984
 10
14.945110802
 20
53.7094112243
 10
15.1597898747
 20
53.0203166495
 10
15.3973419609
 20
52.3303554135
 10
15.657236989
 20
51.6410670896
 10
15.9388950315
 20
50.9539897495
 10
16.2416875993
 20
50.2706565316
 10
16.5649390437
 20
49.5925922193
 10
16.9079280644
 20
48.9213098394
 10
17.2698893187
 20
48.2583072853
 10
17.6500151295
 20
47.6050639749
 10
18.0474572876
 20
46.9630375495
 10
18.461328944
 20
46.3336606211
 10
18.8907065892
 20
45.7183375757
 10
19.3346321139
 20
45.1184414397
 10
19.7921149465
 20
44.5353108158
 10
20.2621342641
 20
43.9702468966
 10
20.7436412697
 20
43.4245105606
 10
21.235561533
 20
42.899319559
 10
21.7367973873
 20
42.3958457982
 10
22.2462303797
 20
41.9152127251
 10
22.7627237658
 20
41.4584928199
 10
23.285125047
 20
41.0267052035
 10
23.8122685417
 20
40.6208133628
 10
24.3429779867
 20
40.2417230011
 10
24.8760691616
 20
39.8902800175
 10
25.4103525317
 20
39.5672686184
  0
LWPOLYLINE
  5
1B2
330
1F
100
AcDbEntity
  8
0
  6
Continuous
 62
     7
370
    25
100
AcDbPolyline
 90
       28
 70
   128
 43
0.0
 10
35.2933665978
 20
51.9865832513
 10
35.326652154
 20
51.9329733223
 10
35.4664482165
 20
51.6835104984
 10
35.5865754355
 20
51.4262868026
 10
35.6850927616
 20
51.1654585273
 10
35.7604083242
 20
50.9052402091
 10
35.8113051535
 20
50.6498365287
 10
35.836960844
 20
50.4033743702
 10
35.836960844
 20
50.1698361386
 10
35.8113051535
 20
49.9529954099
 10
35.7604083242
 20
49.7563559576
 10
35.6850927616
 20
49.5830951372
 10
35.5865754355
 20
49.4360125455
 10
35.4664482165
 20
49.3174847844
 10
35.326652154
 20
49.2294270587
 10
35.169446112
 20
49.1732622299
 10
34.9973702698
 20
49.1498978249
 10
34.8132050772
 20
49.1597113725
 10
34.619926327
 20
49.2025443025
 10
34.4206570715
 20
49.2777045085
 10
34.2186171593
 20
49.3839775308
 10
34.0170712079
 20
49.51964618
 10
33.8192758534
 20
49.682518284
 10
33.6284271287
 20
49.8699621097
 10
33.4476088209
 20
50.0789488872
 10
33.2797426431
 20
50.3061017494
 10
33.1275410241
 20
50.5477502966
 10
33.0486261732
 20
50.6907221874
  0
LWPOLYLINE
  5
1B3
330
1F
100
AcDbEntity
  8
0
  6
Continuous
 62
     7
370
    25
100
AcDbPolyline
 90
       28
 70
   128
 43
0.0
 10
27.5486455351
 20
60.2170128204
 10
27.4639892876
 20
60.3573096267
 10
27.330815285
 20
60.609946154
 10
27.2180252404
 20
60.868904127
 10
27.127441647
 20
61.1299992303
 10
27.0605281799
 20
61.3890126158
 10
27.0183660457
 20
61.6417590726
 10
27.001636512
 20
61.8841546525
 10
27.0106098992
 20
62.1122826597
 10
27.045141213
 20
62.3224569379
 10
27.1046724866
 20
62.511281432
 10
27.188241797
 20
62.675705063
 10
27.2944988078
 20
62.8130710277
 10
27.4217265884
 20
62.9211597282
 10
27.5678693567
 20
62.998224637
 10
27.7305656968
 20
63.0430205176
 10
27.9071867156
 20
63.0548235458
 10
28.0948785211
 20
63.0334430047
 10
28.2906083363
 20
62.9792243673
 10
28.4912135041
 20
62.8930437134
 10
28.6934525899
 20
62.7762935743
 10
28.8940577577
 20
62.6308604314
 10
29.089787573
 20
62.4590942344
 10
29.2774793785
 20
62.2637704295
 10
29.4541003972
 20
62.0480451137
 10
29.6167967373
 20
61.8154040372
 10
29.7629395056
 20
61.5696062797
 10
29.7933217042
 20
61.5128367904
  0
ARC
  5
1B4
330
1F
100
AcDbEntity
  8
0
  6
Continuous
 62
     7
370
    25
100
AcDbCircle
 10
26.7615562006
 20
57.5756629632
 30
0.0
 40
2.365283707337189
100
AcDbArc
 50
83.2000813922
 51
178.9781256622
  0
ARC
  5
1B5
330
1F
100
AcDbEntity
  8
0
  6
Continuous
 62
     7
370
    25
100
AcDbCircle
 10
30.3673580685
 20
51.3295970645
 30
0.0
 40
2.365107989865442
100
AcDbArc
 50
241.0296933469
 51
336.7970771758
  0
LWPOLYLINE
  5
1B6
330
1F
100
AcDbEntity
  8
0
  6
Continuous
 62
     7
370
    25
100
AcDbPolyline
 90
       31
 70
   128
 43
0.0
 10
38.8453813742
 20
55.8968242056
 10
38.532439864
 20
56.0920443404
 10
38.2215278996
 20
56.3151240904
 10
37.9146618644
 20
56.5646166979
 10
37.6138319023
 20
56.8389041076
 10
37.3209890112
 20
57.1362074604
 10
37.0380323894
 20
57.4545986299
 10
36.7667971194
 20
57.7920127272
 10
36.5090422659
 20
58.1462614925
 10
36.266439468
 20
58.5150474865
 10
36.0405620981
 20
58.8959789905
 10
35.8328750574
 20
59.2865855177
 10
35.6447252761
 20
59.6843338347
 10
35.4773329779
 20
60.0866443912
 10
35.331783766
 20
60.4909080487
 10
35.2090215828
 20
60.8945030023
 10
35.1098425882
 20
61.2948117839
 10
35.0348899961
 20
61.6892382374
 10
34.9846499028
 20
62.0752243559
 10
34.9594481346
 20
62.4502668713
 10
34.9594481346
 20
62.811933489
 10
34.9846499028
 20
63.1578786622
 10
35.0348899961
 20
63.4858588037
 10
35.1098425882
 20
63.7937468364
 10
35.2090215828
 20
64.0795459883
 10
35.331783766
 20
64.3414027422
 10
35.4773329779
 20
64.5776188565
 10
35.6447252761
 20
64.7866623792
 10
35.8328750574
 20
64.9671775828
 10
36.0405620981
 20
65.1179937569
 10
36.0956048595
 20
65.151067414
  0
ARC
  5
1B7
330
1F
100
AcDbEntity
  8
0
  6
Continuous
 62
     7
370
    25
100
AcDbCircle
 10
40.4560088705
 20
58.1410032811
 30
0.0
 40
2.762328846286241
100
AcDbArc
 50
234.3333304481
 51
294.3489985289
  0
ARC
  5
1B8
330
1F
100
AcDbEntity
  8
0
  6
Continuous
 62
     7
370
    25
100
AcDbCircle
 10
30.5564732617
 20
52.4260332967
 30
0.0
 40
2.762213164139915
100
AcDbArc
 50
234.3326467416
 51
294.3568948293
  0
LWPOLYLINE
  5
1B9
330
1F
100
AcDbEntity
  8
0
  6
Continuous
 62
     7
370
    25
100
AcDbPolyline
 90
       31
 70
   128
 43
0.0
 10
26.1961099229
 20
59.4362106313
 10
26.1410671614
 20
59.4031369741
 10
25.9333801208
 20
59.2523208
 10
25.7452303395
 20
59.0718055965
 10
25.5778380413
 20
58.8627620738
 10
25.4322888293
 20
58.6265459594
 10
25.3095266462
 20
58.3646892055
 10
25.2103476516
 20
58.0788900536
 10
25.1353950595
 20
57.7710020209
 10
25.0851549662
 20
57.4430218794
 10
25.059953198
 20
57.0970767062
 10
25.059953198
 20
56.7354100885
 10
25.0851549662
 20
56.3603675731
 10
25.1353950595
 20
55.9743814546
 10
25.2103476516
 20
55.5799550011
 10
25.3095266462
 20
55.1796462195
 10
25.4322888293
 20
54.7760512659
 10
25.5778380413
 20
54.3717876084
 10
25.7452303395
 20
53.969477052
 10
25.9333801208
 20
53.5717287349
 10
26.1410671614
 20
53.1811222078
 10
26.3669445314
 20
52.8001907037
 10
26.6095473293
 20
52.4314047097
 10
26.8673021828
 20
52.0771559445
 10
27.1385374528
 20
51.7397418471
 10
27.4214940746
 20
51.4213506776
 10
27.7143369657
 20
51.1240473249
 10
28.0151669278
 20
50.8497599152
 10
28.322032963
 20
50.6002673077
 10
28.6329449274
 20
50.3771875576
 10
28.9458864376
 20
50.1819674228
  0
LWPOLYLINE
  5
1BA
330
1F
100
AcDbEntity
  8
0
  6
Continuous
 62
     7
370
    25
100
AcDbPolyline
 90
       15
 70
   128
 43
0.0
 10
23.718390863
 20
57.4396607204
 10
23.636411276
 20
57.6693851742
 10
23.5326224083
 20
57.8962344688
 10
23.4091708612
 20
58.1155168201
 10
23.2686099067
 20
58.3226969465
 10
23.1138466804
 20
58.5134898693
 10
22.9480820546
 20
58.6839495362
 10
22.7747444368
 20
58.8305504351
 10
22.5974188619
 20
58.9502605101
 10
22.4197728455
 20
59.0406038714
 10
22.2454805304
 20
59.0997120033
 10
22.0781466972
 20
59.1263624085
 10
21.9212322082
 20
59.1200038932
 10
21.7779824289
 20
59.0807679667
 10
21.7043824392
 20
59.0444376713
  0
ARC
  5
1BB
330
1F
100
AcDbEntity
  8
0
  6
Continuous
 62
     7
370
    25
100
AcDbCircle
 10
23.1236939824
 20
56.5743190763
 30
0.0
 40
0.6512203247540687
100
AcDbArc
 50
300.838388663
 51
335.9519181785
  0
ARC
  5
1BC
330
1F
100
AcDbEntity
  8
0
  6
Continuous
 62
     7
370
    25
100
AcDbCircle
 10
27.6817717992
 20
48.6796592905
 30
0.0
 40
0.6512327491291218
100
AcDbArc
 50
84.0577076797
 51
119.1076380876
  0
LWPOLYLINE
  5
1BD
330
1F
100
AcDbEntity
  8
0
  6
Continuous
 62
     7
370
    25
100
AcDbPolyline
 90
       15
 70
   128
 43
0.0
 10
29.111300593
 20
46.2154433748
 10
29.1794845454
 20
46.2609902863
 10
29.2850752634
 20
46.3654536201
 10
29.3690260949
 20
46.4981888969
 10
29.4296007366
 20
46.6564508349
 10
29.4655463608
 20
46.8369662002
 10
29.476119526
 20
47.0360015047
 10
29.4611015542
 20
47.2494402241
 10
29.4208030527
 20
47.4728679371
 10
29.3560574907
 20
47.7016636261
 10
29.2682039605
 20
47.931095251
 10
29.1590594826
 20
48.1564176191
 10
29.0308814249
 20
48.3729705269
 10
28.886320815
 20
48.5762751442
 10
28.7283675109
 20
48.762126647
  0
LWPOLYLINE
  5
1BE
330
1F
100
AcDbEntity
  8
0
  6
Continuous
 62
     7
370
    25
100
AcDbPolyline
 90
       14
 70
   128
 43
0.0
 10
29.1889584913
 20
61.163945334
 10
29.1794845454
 20
61.1823706321
 10
29.0544378086
 20
61.4007773613
 10
28.9125213175
 20
61.6066978663
 10
28.7566702433
 20
61.7958732204
 10
28.5901079577
 20
61.9643908264
 10
28.4162793655
 20
62.1087653386
 10
28.2387796564
 20
62.2260107482
 10
28.0612799473
 20
62.3137021405
 10
27.8874513552
 20
62.3700258488
 10
27.7208890696
 20
62.3938169644
 10
27.5650379954
 20
62.3845834304
 10
27.4231215043
 20
62.3425162183
 10
27.3662587199
 20
62.3140322898
  0
LWPOLYLINE
  5
1BF
330
1F
100
AcDbEntity
  8
0
  6
Continuous
 62
     7
370
    25
100
AcDbPolyline
 90
       14
 70
   128
 43
0.0
 10
34.7731768737
 20
49.4850379933
 10
34.8261992066
 20
49.5200095431
 10
34.9335752213
 20
49.6219026151
 10
35.0194841362
 20
49.7522795222
 10
35.0821491501
 20
49.9084437594
 10
35.1202742014
 20
50.0871654781
 10
35.133070773
 20
50.2847482871
 10
35.1202742014
 20
50.4971057033
 10
35.0821491501
 20
50.7198456692
 10
35.0194841362
 20
50.9483613914
 10
34.9335752213
 20
51.1779266204
 10
34.8261992066
 20
51.4037934001
 10
34.699576884
 20
51.6212902673
 10
34.6890126303
 20
51.6376971321
  0
ENDSEC
  0
SECTION
  2
OBJECTS
  0
DICTIONARY
  5
C
330
0
100
AcDbDictionary
281
     1
  3
ACAD_GROUP
350
D
  3
ACAD_LAYOUT
350
1A
  3
ACAD_MLINESTYLE
350
17
  3
ACAD_PLOTSETTINGS
350
19
  3
ACAD_PLOTSTYLENAME
350
E
  3
ACAD_SCALELIST
350
47
  3
DWGPROPS
350
1C0
  0
DICTIONARY
  5
D
102
{ACAD_REACTORS
330
C
102
}
330
C
100
AcDbDictionary
281
     1
  0
DICTIONARY
  5
1A
102
{ACAD_REACTORS
330
C
102
}
330
C
100
AcDbDictionary
281
     1
  3
Layout1
350
1E
  3
Layout2
350
26
  3
Model
350
22
  0
DICTIONARY
  5
17
102
{ACAD_REACTORS
330
C
102
}
330
C
100
AcDbDictionary
281
     1
  3
Standard
350
18
  0
DICTIONARY
  5
19
102
{ACAD_REACTORS
330
C
102
}
330
C
100
AcDbDictionary
281
     1
  0
ACDBDICTIONARYWDFLT
  5
E
102
{ACAD_REACTORS
330
C
102
}
330
C
100
AcDbDictionary
281
     1
  3
Normal
350
F
100
AcDbDictionaryWithDefault
340
F
  0
DICTIONARY
  5
47
102
{ACAD_REACTORS
330
C
102
}
330
C
100
AcDbDictionary
281
     1
  3
A0
350
48
  3
A1
350
49
  3
A2
350
4A
  3
A3
350
4B
  3
A4
350
4C
  3
A5
350
4D
  3
A6
350
4E
  3
A7
350
4F
  3
A8
350
50
  3
A9
350
51
  3
B0
350
52
  3
B1
350
53
  3
B2
350
54
  3
B3
350
55
  3
B4
350
56
  3
B5
350
57
  3
B6
350
58
  0
XRECORD
  5
1C0
102
{ACAD_REACTORS
330
C
102
}
330
C
100
AcDbXrecord
280
     1
  1
DWGPROPS COOKIE
  2

  3

  4

  6

  7

  8
Oshadha
  9

300
=
301
=
302
=
303
=
304
=
305
=
306
=
307
=
308
=
309
=
 40
0.0
 41
2460788.809989942
 42
2460788.809991389
  1

 90
        0
  0
LAYOUT
  5
1E
102
{ACAD_REACTORS
330
1A
102
}
330
1A
100
AcDbPlotSettings
  1

  2
none_device
  4

  6

 40
0.0
 41
0.0
 42
0.0
 43
0.0
 44
0.0
 45
0.0
 46
0.0
 47
0.0
 48
0.0
 49
0.0
140
0.0
141
0.0
142
1.0
143
1.0
 70
   688
 72
     1
 73
     0
 74
     5
  7

 75
    16
147
1.0
148
0.0
149
0.0
100
AcDbLayout
  1
Layout1
 70
     1
 71
     1
 10
0.0
 20
0.0
 11
420.0
 21
297.0
 12
0.0
 22
0.0
 32
0.0
 14
1.0000000000E+20
 24
1.0000000000E+20
 34
1.0000000000E+20
 15
-1.0000000000E+20
 25
-1.0000000000E+20
 35
-1.0000000000E+20
146
0.0
 13
0.0
 23
0.0
 33
0.0
 16
1.0
 26
0.0
 36
0.0
 17
0.0
 27
1.0
 37
0.0
 76
     0
330
1B
  0
LAYOUT
  5
26
102
{ACAD_REACTORS
330
1A
102
}
330
1A
100
AcDbPlotSettings
  1

  2
none_device
  4

  6

 40
0.0
 41
0.0
 42
0.0
 43
0.0
 44
0.0
 45
0.0
 46
0.0
 47
0.0
 48
0.0
 49
0.0
140
0.0
141
0.0
142
1.0
143
1.0
 70
   688
 72
     1
 73
     0
 74
     5
  7

 75
    16
147
1.0
148
0.0
149
0.0
100
AcDbLayout
  1
Layout2
 70
     1
 71
     2
 10
0.0
 20
0.0
 11
0.0
 21
0.0
 12
0.0
 22
0.0
 32
0.0
 14
0.0
 24
0.0
 34
0.0
 15
0.0
 25
0.0
 35
0.0
146
0.0
 13
0.0
 23
0.0
 33
0.0
 16
1.0
 26
0.0
 36
0.0
 17
0.0
 27
1.0
 37
0.0
 76
     0
330
23
  0
LAYOUT
  5
22
102
{ACAD_REACTORS
330
1A
102
}
330
1A
100
AcDbPlotSettings
  1

  2
none_device
  4
Letter_(8.50_x_11.00_Inches)
  6

 40
6.35
 41
6.35
 42
6.35000508
 43
6.35000508
 44
215.9
 45
279.4
 46
0.0
 47
0.0
 48
0.0
 49
0.0
140
0.0
141
0.0
142
1.0
143
1.0
 70
  1712
 72
     1
 73
     0
 74
     0
  7

 75
     0
147
1.0
148
0.0
149
0.0
100
AcDbLayout
  1
Model
 70
     1
 71
     0
 10
0.0
 20
0.0
 11
168.2
 21
118.8
 12
0.0
 22
0.0
 32
0.0
 14
0.0
 24
0.0
 34
0.0
 15
168.2
 25
118.8
 35
0.0
146
0.0
 13
0.0
 23
0.0
 33
0.0
 16
1.0
 26
0.0
 36
0.0
 17
0.0
 27
1.0
 37
0.0
 76
     0
330
1F
331
29
  0
MLINESTYLE
  5
18
102
{ACAD_REACTORS
330
17
102
}
330
17
100
AcDbMlineStyle
  2
Standard
 70
     0
  3

 62
   256
 51
90.0
 52
90.0
 71
     2
 49
0.5
 62
   256
  6
BYLAYER
 49
-0.5
 62
   256
  6
BYLAYER
  0
ACDBPLACEHOLDER
  5
F
102
{ACAD_REACTORS
330
E
102
}
330
E
  0
SCALE
  5
48
102
{ACAD_REACTORS
330
47
102
}
330
47
100
AcDbScale
 70
     0
300
1:1
140
1.0
141
1.0
290
     1
  0
SCALE
  5
49
102
{ACAD_REACTORS
330
47
102
}
330
47
100
AcDbScale
 70
     0
300
1:2
140
1.0
141
2.0
290
     0
  0
SCALE
  5
4A
102
{ACAD_REACTORS
330
47
102
}
330
47
100
AcDbScale
 70
     0
300
1:4
140
1.0
141
4.0
290
     0
  0
SCALE
  5
4B
102
{ACAD_REACTORS
330
47
102
}
330
47
100
AcDbScale
 70
     0
300
1:5
140
1.0
141
5.0
290
     0
  0
SCALE
  5
4C
102
{ACAD_REACTORS
330
47
102
}
330
47
100
AcDbScale
 70
     0
300
1:8
140
1.0
141
8.0
290
     0
  0
SCALE
  5
4D
102
{ACAD_REACTORS
330
47
102
}
330
47
100
AcDbScale
 70
     0
300
1:10
140
1.0
141
10.0
290
     0
  0
SCALE
  5
4E
102
{ACAD_REACTORS
330
47
102
}
330
47
100
AcDbScale
 70
     0
300
1:16
140
1.0
141
16.0
290
     0
  0
SCALE
  5
4F
102
{ACAD_REACTORS
330
47
102
}
330
47
100
AcDbScale
 70
     0
300
1:20
140
1.0
141
20.0
290
     0
  0
SCALE
  5
50
102
{ACAD_REACTORS
330
47
102
}
330
47
100
AcDbScale
 70
     0
300
1:30
140
1.0
141
30.0
290
     0
  0
SCALE
  5
51
102
{ACAD_REACTORS
330
47
102
}
330
47
100
AcDbScale
 70
     0
300
1:40
140
1.0
141
40.0
290
     0
  0
SCALE
  5
52
102
{ACAD_REACTORS
330
47
102
}
330
47
100
AcDbScale
 70
     0
300
1:50
140
1.0
141
50.0
290
     0
  0
SCALE
  5
53
102
{ACAD_REACTORS
330
47
102
}
330
47
100
AcDbScale
 70
     0
300
1:100
140
1.0
141
100.0
290
     0
  0
SCALE
  5
54
102
{ACAD_REACTORS
330
47
102
}
330
47
100
AcDbScale
 70
     0
300
2:1
140
2.0
141
1.0
290
     0
  0
SCALE
  5
55
102
{ACAD_REACTORS
330
47
102
}
330
47
100
AcDbScale
 70
     0
300
4:1
140
4.0
141
1.0
290
     0
  0
SCALE
  5
56
102
{ACAD_REACTORS
330
47
102
}
330
47
100
AcDbScale
 70
     0
300
8:1
140
8.0
141
1.0
290
     0
  0
SCALE
  5
57
102
{ACAD_REACTORS
330
47
102
}
330
47
100
AcDbScale
 70
     0
300
10:1
140
10.0
141
1.0
290
     0
  0
SCALE
  5
58
102
{ACAD_REACTORS
330
47
102
}
330
47
100
AcDbScale
 70
     0
300
100:1
140
100.0
141
1.0
290
     0
  0
ENDSEC
  0
EOF
